<?xml version="1.0" encoding="utf-8"?>
<!-- Generator: Adobe Illustrator 27.2.0, SVG Export Plug-In . SVG Version: 6.00 Build 0)  -->
<svg version="1.1" id="Layer_1" xmlns="http://www.w3.org/2000/svg" xmlns:xlink="http://www.w3.org/1999/xlink" x="0px" y="0px"
	 viewBox="0 0 324.1 176.2" style="enable-background:new 0 0 324.1 176.2;" xml:space="preserve">
<style type="text/css">
	.st0{fill:#A11D21;}
	.st1{clip-path:url(#SVGID_00000075133167975534865890000013946659582467055281_);}
	.st2{fill:none;}
	.st3{opacity:0.41;}
	.st4{opacity:0.78;fill:#010101;enable-background:new    ;}
	.st5{fill:#E6E7E8;}
	.st6{fill:#939598;}
	.st7{opacity:0.78;}
	.st8{fill:#010101;}
	.st9{fill:#FFFFFF;}
</style>
<g>
	<g id="Layer_1_00000167368862820285409820000014609995734088884641_">
		<g>
			<g>
				<rect x="117.8" y="34.6" class="st0" width="88.4" height="123.7"/>
				<g>
					<defs>
						<rect id="SVGID_1_" x="117.7" y="35" width="88.4" height="123.7"/>
					</defs>
					<clipPath id="SVGID_00000139284297020118488990000000187587637420934039_">
						<use xlink:href="#SVGID_1_"  style="overflow:visible;"/>
					</clipPath>
					<g style="clip-path:url(#SVGID_00000139284297020118488990000000187587637420934039_);">
						<g>
							<path class="st2" d="M148.1,74.1c0.5,0.1,1.2-0.6,2.2-1.2c-0.8-0.9-1.4-1.9-1.8-1.8c-0.7,0.1-1.5,0.8-1.7,1.4
								C146.7,72.9,147.6,74,148.1,74.1L148.1,74.1z"/>
							<path class="st2" d="M174.5,72.5c0,0.6,0.9,1.1,1.4,1.7c0.6-0.6,1.5-1.1,1.7-1.7c0.1-0.5-0.8-1.2-1.5-2.1
								C175.3,71.3,174.5,71.9,174.5,72.5L174.5,72.5z"/>
							<g class="st3">
								<path class="st4" d="M160.2,144.4c1.5,0.3,2.7,0.5,4,0.7v-6.9c-1.4-0.4-2.8-0.8-4.4-1.3
									C159.9,139.9,160.1,142.2,160.2,144.4L160.2,144.4z"/>
								<path class="st5" d="M160.2,146.4c1.5,0.3,2.7,0.5,4,0.7v-6.9c-1.4-0.4-2.8-0.8-4.4-1.3
									C159.9,141.9,160.1,144.2,160.2,146.4L160.2,146.4z"/>
								<path class="st6" d="M160.2,145.4c1.5,0.3,2.7,0.5,4,0.7v-6.9c-1.4-0.4-2.8-0.8-4.4-1.3
									C159.9,140.9,160.1,143.2,160.2,145.4L160.2,145.4z"/>
							</g>
							<g class="st3">
								<path class="st4" d="M171.1,39c-3.8-4.8-10.8-5.3-15.2-1.2c-4.3,4.1-4.6,11.4,0.2,15c2.9,2.2,3.3,4.5,3.3,7.5
									c0,1.9,0.1,3.8,0.2,5.7c0.2,10.4,0.4,20.8,0.6,31.2c0,0.8,0.4,2.1,1,2.4c1.4,0.8,3.1,1.1,4.9,1.6c0-1.3,0-2.3,0-3.3
									c0.2-13.4,0.4-26.8,0.6-40.1c0-1.8,0.5-2.9,2.1-4C173.7,50.6,174.8,43.7,171.1,39z"/>
								<path class="st5" d="M171.1,41c-3.8-4.8-10.8-5.3-15.2-1.2c-4.3,4.1-4.6,11.4,0.2,15c2.9,2.2,3.3,4.5,3.3,7.5
									c0,1.9,0.1,3.8,0.2,5.7c0.2,10.4,0.4,20.8,0.6,31.2c0,0.8,0.4,2.1,1,2.4c1.4,0.8,3.1,1.1,4.9,1.6c0-1.3,0-2.3,0-3.3
									c0.2-13.4,0.4-26.8,0.6-40.1c0-1.8,0.5-2.9,2.1-4C173.7,52.6,174.8,45.7,171.1,41z"/>
								<path class="st6" d="M171.1,40c-3.8-4.8-10.8-5.3-15.2-1.2c-4.3,4.1-4.6,11.4,0.2,15c2.9,2.2,3.3,4.5,3.3,7.5
									c0,1.9,0.1,3.8,0.2,5.7c0.2,10.4,0.4,20.8,0.6,31.2c0,0.8,0.4,2.1,1,2.4c1.4,0.8,3.1,1.1,4.9,1.6c0-1.3,0-2.3,0-3.3
									c0.2-13.4,0.4-26.8,0.6-40.1c0-1.8,0.5-2.9,2.1-4C173.7,51.6,174.8,44.7,171.1,40z"/>
							</g>
							<g class="st3">
								<path class="st4" d="M157.4,155.7c0.2-0.2,0.4-0.3,0.6-0.5c-2.8-0.7-5.6-1.3-8.6-2c-0.2,1.5-0.3,2.9-0.2,4.1h9
									C158,156.8,157.7,156.2,157.4,155.7L157.4,155.7z"/>
								<path class="st5" d="M157.4,157.7c0.2-0.2,0.4-0.3,0.6-0.5c-2.8-0.7-5.6-1.3-8.6-2c-0.2,1.5-0.3,2.9-0.2,4.1h9
									C158,158.8,157.7,158.2,157.4,157.7L157.4,157.7z"/>
								<path class="st6" d="M157.4,156.7c0.2-0.2,0.4-0.3,0.6-0.5c-2.8-0.7-5.6-1.3-8.6-2c-0.2,1.5-0.3,2.9-0.2,4.1h9
									C158,157.8,157.7,157.2,157.4,156.7L157.4,156.7z"/>
							</g>
							<g class="st3">
								<path class="st4" d="M175.4,154.7c-0.3-3.7-2.9-5.4-6-6.5c-1.9-0.7-4-1.1-6-1.6c-2.8-0.8-5.7-1.3-8.3-2.4
									c-3.1-1.3-3.2-3.4-0.4-5.3c1.1-0.8,2.4-1.4,4-2.4c-3.3-1.2-6.2-2.2-9.2-3.2c-0.6-0.2-1.6-0.2-2,0.2
									c-4.8,4.7-6.4,13.2,1.5,17c2.6,1.3,5.6,1.9,8.5,2.6c2.6,0.7,5.4,1.1,7.9,2c1.5,0.5,1.9,1.2,1.3,2.2h8.7
									C175.5,156.5,175.5,155.6,175.4,154.7L175.4,154.7z"/>
								<path class="st5" d="M175.4,156.7c-0.3-3.7-2.9-5.4-6-6.5c-1.9-0.7-4-1.1-6-1.6c-2.8-0.8-5.7-1.3-8.3-2.4
									c-3.1-1.3-3.2-3.4-0.4-5.3c1.1-0.8,2.4-1.4,4-2.4c-3.3-1.2-6.2-2.2-9.2-3.2c-0.6-0.2-1.6-0.2-2,0.2
									c-4.8,4.7-6.4,13.2,1.5,17c2.6,1.3,5.6,1.9,8.5,2.6c2.6,0.7,5.4,1.1,7.9,2c1.5,0.5,1.9,1.2,1.3,2.2h8.7
									C175.5,158.5,175.5,157.6,175.4,156.7L175.4,156.7z"/>
								<path class="st6" d="M175.4,155.7c-0.3-3.7-2.9-5.4-6-6.5c-1.9-0.7-4-1.1-6-1.6c-2.8-0.8-5.7-1.3-8.3-2.4
									c-3.1-1.3-3.2-3.4-0.4-5.3c1.1-0.8,2.4-1.4,4-2.4c-3.3-1.2-6.2-2.2-9.2-3.2c-0.6-0.2-1.6-0.2-2,0.2
									c-4.8,4.7-6.4,13.2,1.5,17c2.6,1.3,5.6,1.9,8.5,2.6c2.6,0.7,5.4,1.1,7.9,2c1.5,0.5,1.9,1.2,1.3,2.2h8.7
									C175.5,157.5,175.5,156.6,175.4,155.7L175.4,155.7z"/>
							</g>
							<g class="st3">
								<g class="st7">
									<path class="st8" d="M192.8,97c9.8-12,3.4-24-5.7-29.5c-2.6-1.6-5.8-2.6-8.5-1c-3.4,1.9-6.7,4.3-9.5,7
										c-2.1,2-1.4,4.2,1.5,4.7c3.6,0.6,7.2,0.9,10.9,0.9c5.1,0,7.3,2.6,5.9,7.5c-1,3.5-3.4,6-6.3,7.7c-4.4,2.7-9,4.9-13.5,7.3
										c3.8,1.4,7.8,2.9,11.9,4.3c0.7,0.2,1.7,0.1,2.3-0.2C186,103.5,189.8,100.8,192.8,97L192.8,97z M175.9,73.2
										c-0.5-0.6-1.4-1.1-1.4-1.7c0-0.6,0.8-1.2,1.6-2.1c0.7,0.9,1.6,1.6,1.5,2.1C177.4,72.1,176.5,72.6,175.9,73.2L175.9,73.2z"
										/>
								</g>
								<path class="st5" d="M192.8,99c9.8-12,3.4-24-5.7-29.5c-2.6-1.6-5.8-2.6-8.5-1c-3.4,1.9-6.7,4.3-9.5,7
									c-2.1,2-1.4,4.2,1.5,4.7c3.6,0.6,7.2,0.9,10.9,0.9c5.1,0,7.3,2.6,5.9,7.5c-1,3.5-3.4,6-6.3,7.7c-4.4,2.7-9,4.9-13.5,7.3
									c3.8,1.4,7.8,2.9,11.9,4.3c0.7,0.2,1.7,0.1,2.3-0.2C186,105.5,189.8,102.8,192.8,99L192.8,99z M175.9,75.2
									c-0.5-0.6-1.4-1.1-1.4-1.7c0-0.6,0.8-1.2,1.6-2.1c0.7,0.9,1.6,1.6,1.5,2.1C177.4,74.1,176.5,74.6,175.9,75.2L175.9,75.2z"/>
								<path class="st6" d="M192.8,98c9.8-12,3.4-24-5.7-29.5c-2.6-1.6-5.8-2.6-8.5-1c-3.4,1.9-6.7,4.3-9.5,7
									c-2.1,2-1.4,4.2,1.5,4.7c3.6,0.6,7.2,0.9,10.9,0.9c5.1,0,7.3,2.6,5.9,7.5c-1,3.5-3.4,6-6.3,7.7c-4.4,2.7-9,4.9-13.5,7.3
									c3.8,1.4,7.8,2.9,11.9,4.3c0.7,0.2,1.7,0.1,2.3-0.2C186,104.5,189.8,101.8,192.8,98L192.8,98z M175.9,74.2
									c-0.5-0.6-1.4-1.1-1.4-1.7c0-0.6,0.8-1.2,1.6-2.1c0.7,0.9,1.6,1.6,1.5,2.1C177.4,73.1,176.5,73.6,175.9,74.2L175.9,74.2z"/>
							</g>
							<g class="st3">
								<g class="st7">
									<path class="st8" d="M184.6,124c3.2-4.3,2.3-9.2-2-12.5c-1.7-1.3-3.6-2.5-5.5-3.3c-5-2-10.1-3.8-15.2-5.5
										c-6.8-2.4-13.8-4.5-19.6-9.1c-2.1-1.7-4.1-4-5.1-6.5c-2.1-5.1,0.4-8.1,5.9-8c3.6,0,7.3-0.3,10.9-1c2.6-0.5,3.2-2.5,1.4-4.4
										c-1.9-2.1-4.2-4-6.6-5.7c-4.2-3.1-8.5-2.7-12.7,0.2c-11.1,7.4-12.5,20.6-3.4,30.2c5.4,5.8,12.3,8.9,19.7,11.2
										c7.2,2.3,14.5,4.2,21.6,6.5c1.1,0.3,2.4,1.5,2.6,2.5c0.1,0.7-1.1,2.2-2.1,2.7c-2.7,1.4-5.6,2.5-8.7,3.8
										c3.6,1.6,7.1,3,10.5,4.5c0.1,0.1,0.3,0.2,0.5,0.2c0.5-0.1,1.2,0,1.6-0.3C180.5,127.8,183,126.2,184.6,124L184.6,124z
										 M146.9,71.5c0.2-0.6,1.1-1.3,1.7-1.4c0.4-0.1,1,1,1.8,1.8c-1,0.6-1.7,1.3-2.2,1.2C147.6,73,146.7,71.9,146.9,71.5
										L146.9,71.5z"/>
								</g>
								<path class="st5" d="M184.6,126c3.2-4.3,2.3-9.2-2-12.5c-1.7-1.3-3.6-2.5-5.5-3.3c-5-2-10.1-3.8-15.2-5.5
									c-6.8-2.4-13.8-4.5-19.6-9.1c-2.1-1.7-4.1-4-5.1-6.5c-2.1-5.1,0.4-8.1,5.9-8c3.6,0,7.3-0.3,10.9-1c2.6-0.5,3.2-2.5,1.4-4.4
									c-1.9-2.1-4.2-4-6.6-5.7c-4.2-3.1-8.5-2.7-12.7,0.2c-11.1,7.4-12.5,20.6-3.4,30.2c5.4,5.8,12.3,8.9,19.7,11.2
									c7.2,2.3,14.5,4.2,21.6,6.5c1.1,0.3,2.4,1.5,2.6,2.5c0.1,0.7-1.1,2.2-2.1,2.7c-2.7,1.4-5.6,2.5-8.7,3.8
									c3.6,1.6,7.1,3,10.5,4.5c0.1,0.1,0.3,0.2,0.5,0.2c0.5-0.1,1.2,0,1.6-0.3C180.5,129.8,183,128.2,184.6,126L184.6,126z
									 M146.9,73.5c0.2-0.6,1.1-1.3,1.7-1.4c0.4-0.1,1,1,1.8,1.8c-1,0.6-1.7,1.3-2.2,1.2C147.6,75,146.7,73.9,146.9,73.5
									L146.9,73.5z"/>
								<path class="st6" d="M184.6,125c3.2-4.3,2.3-9.2-2-12.5c-1.7-1.3-3.6-2.5-5.5-3.3c-5-2-10.1-3.8-15.2-5.5
									c-6.8-2.4-13.8-4.5-19.6-9.1c-2.1-1.7-4.1-4-5.1-6.5c-2.1-5.1,0.4-8.1,5.9-8c3.6,0,7.3-0.3,10.9-1c2.6-0.5,3.2-2.5,1.4-4.4
									c-1.9-2.1-4.2-4-6.6-5.7c-4.2-3.1-8.5-2.7-12.7,0.2c-11.1,7.4-12.5,20.6-3.4,30.2c5.4,5.8,12.3,8.9,19.7,11.2
									c7.2,2.3,14.5,4.2,21.6,6.5c1.1,0.3,2.4,1.5,2.6,2.5c0.1,0.7-1.1,2.2-2.1,2.7c-2.7,1.4-5.6,2.5-8.7,3.8
									c3.6,1.6,7.1,3,10.5,4.5c0.1,0.1,0.3,0.2,0.5,0.2c0.5-0.1,1.2,0,1.6-0.3C180.5,128.8,183,127.2,184.6,125L184.6,125z
									 M146.9,72.5c0.2-0.6,1.1-1.3,1.7-1.4c0.4-0.1,1,1,1.8,1.8c-1,0.6-1.7,1.3-2.2,1.2C147.6,74,146.7,72.9,146.9,72.5
									L146.9,72.5z"/>
							</g>
							<g class="st3">
								<path class="st4" d="M168.9,144.2c-0.5,0.4-1.2,0.6-1.7,0.9c3.1,1.6,6.1,3.2,9.7,5.1c1-1.6,2.5-3.4,3.3-5.4
									c1.8-4.8-1-10.8-6.5-13.6c-4.2-2.1-8.7-3.7-13.1-5.4c-3.4-1.4-7-2.5-10.4-4.2c-3-1.5-2.9-3.8,0.2-5.3c1.9-0.9,4-1.5,6.2-2.3
									c-3.7-1.2-7.3-2.4-10.9-3.6c-0.2-0.1-0.5-0.2-0.7-0.2c-0.4-0.1-0.8-0.2-1.2-0.1c-3.5,0.9-6.6,6.1-5.8,9.8
									c1.3,6.3,6,9.2,11.6,11.2c4.8,1.8,9.7,3.3,14.6,5c1.8,0.6,3.6,1.4,5.2,2.4c1.1,0.7,2.3,2,2.3,3.1
									C171.6,142.5,169.9,143.4,168.9,144.2L168.9,144.2z"/>
								<path class="st5" d="M168.9,146.2c-0.5,0.4-1.2,0.6-1.7,0.9c3.1,1.6,6.1,3.2,9.7,5.1c1-1.6,2.5-3.4,3.3-5.4
									c1.8-4.8-1-10.8-6.5-13.6c-4.2-2.1-8.7-3.7-13.1-5.4c-3.4-1.4-7-2.5-10.4-4.2c-3-1.5-2.9-3.8,0.2-5.3c1.9-0.9,4-1.5,6.2-2.3
									c-3.7-1.2-7.3-2.4-10.9-3.6c-0.2-0.1-0.5-0.2-0.7-0.2c-0.4-0.1-0.8-0.2-1.2-0.1c-3.5,0.9-6.6,6.1-5.8,9.8
									c1.3,6.3,6,9.2,11.6,11.2c4.8,1.8,9.7,3.3,14.6,5c1.8,0.6,3.6,1.4,5.2,2.4c1.1,0.7,2.3,2,2.3,3.1
									C171.6,144.5,169.9,145.4,168.9,146.2L168.9,146.2z"/>
								<path class="st6" d="M168.9,145.2c-0.5,0.4-1.2,0.6-1.7,0.9c3.1,1.6,6.1,3.2,9.7,5.1c1-1.6,2.5-3.4,3.3-5.4
									c1.8-4.8-1-10.8-6.5-13.6c-4.2-2.1-8.7-3.7-13.1-5.4c-3.4-1.4-7-2.5-10.4-4.2c-3-1.5-2.9-3.8,0.2-5.3c1.9-0.9,4-1.5,6.2-2.3
									c-3.7-1.2-7.3-2.4-10.9-3.6c-0.2-0.1-0.5-0.2-0.7-0.2c-0.4-0.1-0.8-0.2-1.2-0.1c-3.5,0.9-6.6,6.1-5.8,9.8
									c1.3,6.3,6,9.2,11.6,11.2c4.8,1.8,9.7,3.3,14.6,5c1.8,0.6,3.6,1.4,5.2,2.4c1.1,0.7,2.3,2,2.3,3.1
									C171.6,143.5,169.9,144.4,168.9,145.2L168.9,145.2z"/>
							</g>
							<g class="st3">
								<path class="st4" d="M201.6,40.3c1.6,0.2,3.1,0.3,4.7,0.4v-7.2h-6.4c-0.6,0.1-1.2,0.1-1.9,0.2c-8.2,1-10.8,3.9-10.6,12
									c0.1,2.5-0.9,4.5-2.6,6.2c-3.4,3.3-7.6,4.9-12.4,5.4c0.6,2.3,2.2,3.8,4.3,4.6c5.9,2.4,10.8,0.2,15.4-3.6
									c1,1.8,1.9,3.3,2.7,4.8c2.4,4.5,4.4,9.2,7.1,13.4c1.4,2.1,2.9,4.2,4.4,6.1V69.9c-3.7-4.6-7.3-9.2-11-13.8
									c0.3-0.2,0.5-0.5,0.8-0.7c2.3,2.4,4.7,4.8,7,7.2c1.1,1.1,2.1,2.3,3.1,3.4v-7.9c-2.8-2.3-5.5-4.7-8.2-7.3
									c2.9,1.1,5.6,2.4,8.1,4.1c0,0,0.1,0,0.1,0.1v-5.7c-2.1-1.1-4.3-2.2-6.4-3.4c1-0.2,1.9-0.1,2.8,0.2c1.2,0.4,2.4,0.8,3.6,1.2
									v-4.6c-1.6-0.4-3.2-0.8-4.9-1.2L201.6,40.3L201.6,40.3z"/>
								<path class="st5" d="M201.6,42.3c1.6,0.2,3.1,0.3,4.7,0.4v-7.2h-6.4c-0.6,0.1-1.2,0.1-1.9,0.2c-8.2,1-10.8,3.9-10.6,12
									c0.1,2.5-0.9,4.5-2.6,6.2c-3.4,3.3-7.6,4.9-12.4,5.4c0.6,2.3,2.2,3.8,4.3,4.6c5.9,2.4,10.8,0.2,15.4-3.6
									c1,1.8,1.9,3.3,2.7,4.8c2.4,4.5,4.4,9.2,7.1,13.4c1.4,2.1,2.9,4.2,4.4,6.1V71.9c-3.7-4.6-7.3-9.2-11-13.8
									c0.3-0.2,0.5-0.5,0.8-0.7c2.3,2.4,4.7,4.8,7,7.2c1.1,1.1,2.1,2.3,3.1,3.4v-7.9c-2.8-2.3-5.5-4.7-8.2-7.3
									c2.9,1.1,5.6,2.4,8.1,4.1c0,0,0.1,0,0.1,0.1v-5.7c-2.1-1.1-4.3-2.2-6.4-3.4c1-0.2,1.9-0.1,2.8,0.2c1.2,0.4,2.4,0.8,3.6,1.2
									v-4.6c-1.6-0.4-3.2-0.8-4.9-1.2L201.6,42.3L201.6,42.3z"/>
								<path class="st6" d="M201.6,41.3c1.6,0.2,3.1,0.3,4.7,0.4v-7.2h-6.4c-0.6,0.1-1.2,0.1-1.9,0.2c-8.2,1-10.8,3.9-10.6,12
									c0.1,2.5-0.9,4.5-2.6,6.2c-3.4,3.3-7.6,4.9-12.4,5.4c0.6,2.3,2.2,3.8,4.3,4.6c5.9,2.4,10.8,0.2,15.4-3.6
									c1,1.8,1.9,3.3,2.7,4.8c2.4,4.5,4.4,9.2,7.1,13.4c1.4,2.1,2.9,4.2,4.4,6.1V70.9c-3.7-4.6-7.3-9.2-11-13.8
									c0.3-0.2,0.5-0.5,0.8-0.7c2.3,2.4,4.7,4.8,7,7.2c1.1,1.1,2.1,2.3,3.1,3.4v-7.9c-2.8-2.3-5.5-4.7-8.2-7.3
									c2.9,1.1,5.6,2.4,8.1,4.1c0,0,0.1,0,0.1,0.1v-5.7c-2.1-1.1-4.3-2.2-6.4-3.4c1-0.2,1.9-0.1,2.8,0.2c1.2,0.4,2.4,0.8,3.6,1.2
									v-4.6c-1.6-0.4-3.2-0.8-4.9-1.2L201.6,41.3L201.6,41.3z"/>
							</g>
							<g class="st3">
								<path class="st4" d="M117.8,83.7c0.1-0.1,0.2-0.2,0.3-0.4c3.8-6,7.2-12.3,10.7-18.5c1.2-2.1,2.3-4.2,3.4-6.3
									c9.7,6.1,18.2,5.6,19.5-1.1c-4.5-0.4-8.7-2.1-11.5-4.7c-2.4-2.2-3.7-4.7-3.1-8.2c0.8-4.5-0.9-7.8-5.4-9.1
									c-2.7-0.8-5.5-1.4-8.3-1.8h-5.7v7.2c1.7-0.2,3.3-0.3,5-0.5c0.1,0.4,0.1,0.8,0.2,1.2c-1.7,0.4-3.4,0.9-5.2,1.3v4.4
									c0.1,0,0.2-0.1,0.2-0.1c2-0.8,4.2-1.1,6.2-1.6c0.1,0.3,0.2,0.5,0.2,0.8c-2.2,1.2-4.4,2.3-6.7,3.5v5.6
									c0.8-0.6,1.7-1.2,2.5-1.8c1.8-1.2,3.9-2,5.9-2.9c0.2,0.3,0.4,0.7,0.6,1c-3,2.3-6,4.5-9,6.8v7.9c1.8-2.1,3.7-4.2,5.6-6.3
									c1.5-1.7,3.2-3.1,4.9-4.6c0.2,0.2,0.4,0.4,0.6,0.5c-3.4,4.9-7.2,9.5-11,14.2L117.8,83.7L117.8,83.7z"/>
								<path class="st5" d="M117.8,85.7c0.1-0.1,0.2-0.2,0.3-0.4c3.8-6,7.2-12.3,10.7-18.5c1.2-2.1,2.3-4.2,3.4-6.3
									c9.7,6.1,18.2,5.6,19.5-1.1c-4.5-0.4-8.7-2.1-11.5-4.7c-2.4-2.2-3.7-4.7-3.1-8.2c0.8-4.5-0.9-7.8-5.4-9.1
									c-2.7-0.8-5.5-1.4-8.3-1.8h-5.7v7.2c1.7-0.2,3.3-0.3,5-0.5c0.1,0.4,0.1,0.8,0.2,1.2c-1.7,0.4-3.4,0.9-5.2,1.3v4.4
									c0.1,0,0.2-0.1,0.2-0.1c2-0.8,4.2-1.1,6.2-1.6c0.1,0.3,0.2,0.5,0.2,0.8c-2.2,1.2-4.4,2.3-6.7,3.5v5.6
									c0.8-0.6,1.7-1.2,2.5-1.8c1.8-1.2,3.9-2,5.9-2.9c0.2,0.3,0.4,0.7,0.6,1c-3,2.3-6,4.5-9,6.8v7.9c1.8-2.1,3.7-4.2,5.6-6.3
									c1.5-1.7,3.2-3.1,4.9-4.6c0.2,0.2,0.4,0.4,0.6,0.5c-3.4,4.9-7.2,9.5-11,14.2L117.8,85.7L117.8,85.7z"/>
								<path class="st6" d="M117.8,84.7c0.1-0.1,0.2-0.2,0.3-0.4c3.8-6,7.2-12.3,10.7-18.5c1.2-2.1,2.3-4.2,3.4-6.3
									c9.7,6.1,18.2,5.6,19.5-1.1c-4.5-0.4-8.7-2.1-11.5-4.7c-2.4-2.2-3.7-4.7-3.1-8.2c0.8-4.5-0.9-7.8-5.4-9.1
									c-2.7-0.8-5.5-1.4-8.3-1.8h-5.7v7.2c1.7-0.2,3.3-0.3,5-0.5c0.1,0.4,0.1,0.8,0.2,1.2c-1.7,0.4-3.4,0.9-5.2,1.3v4.4
									c0.1,0,0.2-0.1,0.2-0.1c2-0.8,4.2-1.1,6.2-1.6c0.1,0.3,0.2,0.5,0.2,0.8c-2.2,1.2-4.4,2.3-6.7,3.5v5.6
									c0.8-0.6,1.7-1.2,2.5-1.8c1.8-1.2,3.9-2,5.9-2.9c0.2,0.3,0.4,0.7,0.6,1c-3,2.3-6,4.5-9,6.8v7.9c1.8-2.1,3.7-4.2,5.6-6.3
									c1.5-1.7,3.2-3.1,4.9-4.6c0.2,0.2,0.4,0.4,0.6,0.5c-3.4,4.9-7.2,9.5-11,14.2L117.8,84.7L117.8,84.7z"/>
							</g>
						</g>
					</g>
				</g>
				<path class="st9" d="M150.6,125.6v-2.6c7.5-0.8,8.2-1.2,8.2-9V77.8c0-7.9-0.7-8.2-8.2-9.1v-2.6h24.5v2.6
					c-7.6,0.8-8.3,1.2-8.3,9.1v36.3c0,7.9,0.7,8.1,8.3,9v2.6H150.6z"/>
			</g>
			<g>
				<rect x="15.8" y="34.6" class="st0" width="88.4" height="123.7"/>
				<path class="st9" d="M89.7,126.4c-1.2,0-2.2-0.1-3.4-0.2c-6.7-0.5-10.2-2.2-14.3-7.9c-3.4-4.7-6.7-10.4-9.6-15.1
					c-1.8-2.9-3-3.5-7.7-3.5h-3.2v14.4c0,7.8,1,8.2,8.3,9v2.6H35.5v-2.6c7.6-0.8,8.2-1.2,8.2-9V77.6c0-7.8-1-8.1-8.2-8.9v-2.6h23.3
					c6.7,0,11.2,0.8,14.6,3.1c3.8,2.4,6.2,6.5,6.2,12.1c0,7.9-5,12.8-11.8,15.7c1.7,2.8,5.6,9,8.3,13.1c3.4,4.8,5.1,7.1,7.2,9.4
					c2.5,2.7,4.6,3.7,6.7,4.2L89.7,126.4L89.7,126.4z M56,96.6c4.8,0,7.8-0.7,10.1-2.7c3.6-2.7,5-6.3,5-11.3
					c0-9.8-6.5-13.4-13.5-13.4c-2.7,0-4.2,0.4-4.8,0.9c-0.8,0.6-1.1,1.6-1.1,3.9v22.4L56,96.6L56,96.6z"/>
			</g>
			<g>
				<rect x="219.8" y="34.6" class="st0" width="88.4" height="123.7"/>
				<path class="st9" d="M297.1,68.7c-7.6,0.7-8.3,1.2-8.3,8.9v36.7c0,7.7,0.8,8,8.3,8.8v2.6h-24.5v-2.6c7.6-0.9,8.3-1.1,8.3-8.8V96
					h-31.3v18.3c0,7.6,0.7,7.9,8.2,8.8v2.6h-24.4v-2.6c7.4-0.8,8.2-1.1,8.2-8.8V77.6c0-7.7-0.8-8.1-8.2-8.9v-2.6h24.4v2.6
					c-7.3,0.6-8.2,1.3-8.2,8.9v14.6h31.3V77.6c0-7.6-1-8.2-8.3-8.9v-2.6h24.5C297.1,66.2,297.1,68.7,297.1,68.7z"/>
			</g>
		</g>
		<g>
			<path class="st0" d="M8.2,4.9C8.1,4.2,7.8,3.7,7.6,3.5C7.4,3.2,7.3,3.1,6.4,3.1H5.5v6.6c0,1.2,0.1,1.3,1.4,1.4v0.5H2.3V11
				c1.2-0.1,1.3-0.2,1.3-1.4V3.1H2.8c-0.8,0-1,0.1-1.3,0.5C1.3,3.8,1.1,4.3,0.9,4.9H0.4c0.1-1,0.2-2.1,0.2-2.8H1
				c0.2,0.3,0.4,0.3,0.8,0.3h5.6c0.4,0,0.6-0.1,0.8-0.3h0.4c0,0.6,0.1,1.8,0.1,2.7L8.2,4.9L8.2,4.9z"/>
			<path class="st0" d="M19.8,3c-1.1,0.1-1.2,0.2-1.2,1.4v5.4c0,1.2,0.1,1.2,1.2,1.3v0.5h-4.3V11c1.1-0.1,1.2-0.2,1.2-1.3V7.1h-3.8
				v2.6c0,1.2,0.1,1.2,1.2,1.3v0.5H9.8V11c1-0.1,1.2-0.2,1.2-1.3V4.3c0-1.2-0.1-1.3-1.2-1.4V2.4h4.3V3c-1.1,0.1-1.2,0.2-1.2,1.4v2
				h3.8v-2c0-1.2-0.1-1.2-1.2-1.4V2.4h4.3C19.8,2.4,19.8,3,19.8,3z"/>
			<path class="st0" d="M28.7,9.2c-0.1,0.4-0.5,2-0.6,2.4h-7.3v-0.5c1.3-0.1,1.4-0.2,1.4-1.4V4.3c0-1.2-0.2-1.3-1.1-1.4V2.5h4.5
				c1.5,0,2,0,2.2,0c0,0.2,0.1,1.4,0.1,2.3l-0.5,0.1c-0.1-0.5-0.4-1-0.6-1.3c-0.2-0.3-0.4-0.4-1.1-0.4h-0.9c-0.5,0-0.6,0-0.6,0.5
				v2.9h1.4c0.8,0,0.9-0.2,1.1-1.2h0.5v3.1h-0.5c-0.2-1-0.3-1.2-1.1-1.2h-1.4v2.4c0,1,0,1.3,0.9,1.3h1c0.8,0,1-0.1,1.3-0.5
				c0.4-0.4,0.6-0.9,0.9-1.4L28.7,9.2L28.7,9.2z"/>
			<path class="st0" d="M41.4,11.6c-0.1,0-0.2,0-0.4,0c-1.8-0.1-2.3-0.5-2.7-1.1c-0.6-0.8-1-1.6-1.4-2.5c-0.2-0.4-0.4-0.5-0.8-0.5
				h-0.3v2c0,1.1,0.1,1.2,1.2,1.4v0.5h-4.3V11c1.1-0.1,1.2-0.2,1.2-1.4V4.3c0-1.1-0.1-1.3-1.2-1.3V2.5h4.1c1.2,0,2,0.1,2.5,0.5
				c0.6,0.4,0.9,1,0.9,1.9c0,1.2-0.8,1.9-1.8,2.3c0.2,0.4,0.8,1.3,1.2,2c0.5,0.8,0.8,1.1,1.1,1.5c0.3,0.4,0.5,0.5,0.9,0.6L41.4,11.6
				L41.4,11.6z M36.1,7.1c0.6,0,1.1-0.1,1.4-0.4c0.5-0.4,0.7-0.9,0.7-1.6c0-1.5-0.8-2-1.6-2c-0.4,0-0.6,0.1-0.6,0.1
				c-0.1,0.1-0.1,0.2-0.1,0.5v3.3H36.1z"/>
			<path class="st0" d="M49.7,9.2c-0.1,0.4-0.5,2-0.6,2.4h-7.3v-0.5c1.3-0.1,1.4-0.2,1.4-1.4V4.3c0-1.2-0.2-1.3-1.1-1.4V2.5h4.5
				c1.5,0,2,0,2.2,0c0,0.2,0.1,1.4,0.1,2.3l-0.5,0.1c-0.1-0.5-0.4-1-0.6-1.3c-0.2-0.3-0.4-0.4-1.2-0.4h-0.9c-0.5,0-0.6,0-0.6,0.5
				v2.9h1.4c0.8,0,0.9-0.2,1.1-1.2h0.5v3.1h-0.5c-0.2-1-0.3-1.2-1.2-1.2h-1.4v2.4c0,1,0,1.3,0.9,1.3h1c0.8,0,1-0.1,1.3-0.5
				c0.3-0.4,0.6-0.9,0.8-1.4L49.7,9.2L49.7,9.2z"/>
			<path class="st0" d="M56,4.8c-0.3-0.9-0.7-1.9-2-1.9c-0.8,0-1.3,0.6-1.3,1.4s0.5,1.2,1.8,1.8c1.5,0.7,2.5,1.5,2.5,2.9
				c0,1.6-1.4,2.9-3.4,2.9c-0.9,0-1.7-0.2-2.3-0.4c-0.1-0.3-0.3-1.8-0.4-2.4l0.5-0.1c0.3,0.9,1.1,2.4,2.4,2.4c0.8,0,1.4-0.5,1.4-1.4
				c0-0.8-0.5-1.3-1.7-1.9C51.9,7,51,6.3,51,4.9s1.2-2.6,3.2-2.6c1,0,1.7,0.2,2,0.2c0.1,0.5,0.2,1.2,0.3,2.1L56,4.8L56,4.8z"/>
			<path class="st0" d="M65.7,9.2c-0.1,0.4-0.5,2-0.6,2.4h-7.3v-0.5c1.3-0.1,1.4-0.2,1.4-1.4V4.3C59.2,3.1,59,3.1,58,3V2.5h4.5
				c1.5,0,2,0,2.2,0c0,0.2,0.1,1.4,0.1,2.3l-0.6,0.1c-0.1-0.5-0.4-1-0.6-1.3c-0.2-0.3-0.4-0.4-1.2-0.4h-0.9c-0.5,0-0.6,0-0.6,0.5
				v2.9h1.4c0.8,0,0.9-0.2,1.1-1.2h0.6v3.1h-0.5c-0.2-1-0.3-1.2-1.2-1.2h-1.4v2.4c0,1,0,1.3,0.9,1.3h1c0.8,0,1-0.1,1.3-0.5
				c0.3-0.4,0.6-0.9,0.8-1.4L65.7,9.2L65.7,9.2z"/>
			<path class="st0" d="M71.8,11.6V11c0.9-0.1,0.9-0.3,0.7-0.9c-0.1-0.4-0.4-1.1-0.6-1.6h-2.7C69,9,68.8,9.5,68.7,10
				c-0.3,0.9,0,1,1.2,1.1v0.5h-3.5V11c0.9-0.1,1.1-0.2,1.6-1.4l2.9-7.2l0.7-0.1c0.9,2.4,1.8,4.9,2.8,7.3c0.5,1.3,0.6,1.4,1.6,1.5
				v0.5L71.8,11.6L71.8,11.6z M70.5,4.9c-0.4,1-0.8,1.9-1.2,3h2.2L70.5,4.9z"/>
			<path class="st0" d="M85.2,11.6c-0.1,0-0.2,0-0.4,0c-1.8-0.1-2.3-0.5-2.7-1.1c-0.6-0.8-1-1.6-1.4-2.5c-0.2-0.4-0.4-0.5-0.8-0.5
				h-0.3v2c0,1.1,0.1,1.2,1.2,1.4v0.5h-4.3V11c1.1-0.1,1.2-0.2,1.2-1.4V4.3c0-1.1-0.1-1.3-1.2-1.3V2.5h4.1c1.2,0,2,0.1,2.5,0.5
				c0.6,0.4,0.9,1,0.9,1.9c0,1.2-0.8,1.9-1.8,2.3c0.2,0.4,0.8,1.3,1.2,2c0.5,0.8,0.8,1.1,1.1,1.5c0.3,0.4,0.5,0.5,0.9,0.6L85.2,11.6
				L85.2,11.6z M79.8,7.1c0.6,0,1.1-0.1,1.4-0.4c0.5-0.4,0.7-0.9,0.7-1.6c0-1.5-0.8-2-1.6-2c-0.4,0-0.6,0.1-0.6,0.1
				c-0.1,0.1-0.1,0.2-0.1,0.5v3.3C79.4,7.1,79.8,7.1,79.8,7.1z"/>
			<path class="st0" d="M94.4,9.1c-0.2,0.7-0.6,1.8-0.8,2.2c-0.4,0.1-1.5,0.4-2.6,0.4c-3.8,0-5.3-2.4-5.3-4.7c0-2.9,2.2-4.9,5.6-4.9
				c1.2,0,2.3,0.3,2.7,0.3c0.1,0.7,0.2,1.7,0.3,2.3L93.6,5c-0.3-1.1-0.7-1.6-1.5-1.9c-0.3-0.1-0.8-0.2-1.2-0.2c-2,0-3.1,1.7-3.1,3.9
				c0,2.6,1.3,4.3,3.2,4.3c1.2,0,2-0.6,2.7-2.2L94.4,9.1L94.4,9.1z"/>
			<path class="st0" d="M105.6,3c-1.1,0.1-1.2,0.2-1.2,1.4v5.4c0,1.2,0.1,1.2,1.2,1.3v0.5h-4.3V11c1.1-0.1,1.2-0.2,1.2-1.3V7.1h-3.8
				v2.6c0,1.2,0.1,1.2,1.2,1.3v0.5h-4.3V11c1-0.1,1.2-0.2,1.2-1.3V4.3c0-1.2-0.1-1.3-1.2-1.4V2.4h4.3V3c-1.1,0.1-1.2,0.2-1.2,1.4v2
				h3.8v-2c0-1.2-0.1-1.2-1.2-1.4V2.4h4.3C105.6,2.4,105.6,3,105.6,3z"/>
			<path class="st0" d="M118.5,9.1c-0.2,0.7-0.6,1.8-0.8,2.2c-0.4,0.1-1.5,0.4-2.6,0.4c-3.8,0-5.3-2.4-5.3-4.7
				c0-2.9,2.2-4.9,5.6-4.9c1.2,0,2.3,0.3,2.7,0.3c0.1,0.7,0.2,1.7,0.3,2.3L117.8,5c-0.3-1.1-0.7-1.6-1.5-1.9
				c-0.3-0.1-0.8-0.2-1.2-0.2c-2,0-3.1,1.7-3.1,3.9c0,2.6,1.3,4.3,3.2,4.3c1.2,0,2-0.6,2.7-2.2L118.5,9.1L118.5,9.1z"/>
			<path class="st0" d="M127.2,9.1c-0.1,0.6-0.5,2.1-0.6,2.5h-6.9V11c1.2-0.1,1.3-0.2,1.3-1.4V4.3c0-1.2-0.1-1.3-1.2-1.4V2.5h4.4V3
				c-1.1,0.1-1.2,0.2-1.2,1.4v5.4c0,0.8,0,1.1,0.8,1.1c0,0,0.7,0,0.7,0c0.8,0,1-0.2,1.3-0.6c0.3-0.3,0.6-0.9,0.9-1.5L127.2,9.1
				L127.2,9.1z"/>
			<path class="st0" d="M137,3c-0.9,0.1-1.1,0.3-1.2,0.9c0,0.4-0.1,0.9-0.1,1.9v1.8c0,1.2-0.2,2.4-1,3.3c-0.6,0.7-1.6,1-2.6,1
				c-0.9,0-1.9-0.2-2.5-0.7c-0.8-0.6-1.2-1.5-1.2-3V4.5c0-1.3-0.1-1.4-1.2-1.5V2.5h4.3V3c-1.1,0.1-1.2,0.2-1.2,1.5v3.7
				c0,1.6,0.8,2.6,2.3,2.6c1.7,0,2.4-1.2,2.4-3.3V5.7c0-1,0-1.5-0.1-1.9c-0.1-0.6-0.4-0.8-1.4-0.8V2.5h3.5L137,3L137,3z"/>
			<path class="st0" d="M143,4.8c-0.3-0.9-0.7-1.9-2-1.9c-0.8,0-1.3,0.6-1.3,1.4s0.5,1.2,1.8,1.8c1.5,0.7,2.4,1.5,2.4,2.9
				c0,1.6-1.4,2.9-3.4,2.9c-0.9,0-1.7-0.2-2.4-0.4c-0.1-0.3-0.3-1.8-0.4-2.4l0.6-0.1c0.3,0.9,1.1,2.4,2.4,2.4c0.9,0,1.4-0.5,1.4-1.4
				c0-0.8-0.5-1.3-1.7-1.9C138.9,7,138,6.3,138,4.9s1.1-2.6,3.2-2.6c1,0,1.7,0.2,2,0.2c0.1,0.5,0.1,1.2,0.3,2.1L143,4.8L143,4.8z"/>
			<path class="st0" d="M152.6,4.9c-0.1-0.6-0.5-1.2-0.6-1.4c-0.2-0.3-0.4-0.4-1.2-0.4h-0.9v6.6c0,1.2,0.1,1.3,1.4,1.4v0.5h-4.6V11
				c1.2-0.1,1.3-0.2,1.3-1.4V3.1h-0.9c-0.8,0-1,0.1-1.3,0.5c-0.2,0.3-0.4,0.8-0.6,1.3h-0.5c0.1-1,0.2-2.1,0.2-2.8h0.4
				c0.2,0.3,0.4,0.3,0.8,0.3h5.6c0.4,0,0.6-0.1,0.8-0.3h0.4c0,0.6,0.1,1.8,0.1,2.7L152.6,4.9L152.6,4.9z"/>
			<path class="st0" d="M161.8,9.2c-0.1,0.4-0.5,2-0.6,2.4H154v-0.5c1.3-0.1,1.4-0.2,1.4-1.4V4.3c0-1.2-0.2-1.3-1.1-1.4V2.5h4.6
				c1.5,0,2,0,2.2,0c0,0.2,0.1,1.4,0.1,2.3l-0.6,0.1c-0.1-0.5-0.4-1-0.6-1.3c-0.2-0.3-0.4-0.4-1.1-0.4h-0.9c-0.5,0-0.6,0-0.6,0.5
				v2.9h1.4c0.8,0,0.9-0.2,1.1-1.2h0.6v3.1h-0.6c-0.2-1-0.3-1.2-1.1-1.2h-1.4v2.4c0,1,0,1.3,0.9,1.3h1c0.8,0,1-0.1,1.3-0.5
				c0.4-0.4,0.6-0.9,0.9-1.4L161.8,9.2L161.8,9.2z"/>
			<path class="st0" d="M171.5,11.6c-0.1,0-0.2,0-0.4,0c-1.8-0.1-2.3-0.5-2.7-1.1c-0.6-0.8-1-1.6-1.4-2.5c-0.2-0.4-0.4-0.5-0.9-0.5
				h-0.3v2c0,1.1,0.1,1.2,1.2,1.4v0.5h-4.3V11c1.1-0.1,1.2-0.2,1.2-1.4V4.3c0-1.1-0.1-1.3-1.2-1.3V2.5h4.1c1.2,0,2,0.1,2.5,0.5
				c0.6,0.4,0.9,1,0.9,1.9c0,1.2-0.8,1.9-1.8,2.3c0.2,0.4,0.8,1.3,1.2,2c0.5,0.8,0.8,1.1,1.1,1.5c0.3,0.4,0.5,0.5,0.9,0.6
				L171.5,11.6L171.5,11.6z M166.1,7.1c0.6,0,1.1-0.1,1.4-0.4c0.5-0.4,0.7-0.9,0.7-1.6c0-1.5-0.9-2-1.6-2c-0.4,0-0.6,0.1-0.6,0.1
				c-0.1,0.1-0.1,0.2-0.1,0.5v3.3H166.1z"/>
			<path class="st0" d="M181.4,4.8c-0.1-0.5-0.4-1-0.6-1.3c-0.3-0.3-0.5-0.4-1.1-0.4h-1.1c-0.5,0-0.5,0-0.5,0.5v3h1.5
				c0.8,0,0.9-0.2,1.1-1.2h0.5v3.1h-0.5c-0.1-0.9-0.4-1.2-1.1-1.2H178v2.2c0,1.3,0.1,1.4,1.3,1.5v0.5h-4.5V11
				c1.1-0.1,1.2-0.2,1.2-1.5V4.4c0-1.2-0.1-1.4-1.2-1.4V2.5h4.8c1.2,0,1.9,0,2.1,0c0,0.2,0.1,1.4,0.1,2.3
				C181.9,4.7,181.4,4.8,181.4,4.8z"/>
			<path class="st0" d="M187.9,2.2c2.6,0,4.7,1.9,4.7,4.7c0,3-2.1,4.9-4.8,4.9c-2.8,0-4.8-2-4.8-4.8C183,4.6,184.7,2.2,187.9,2.2z
				 M187.7,2.9c-1.4,0-2.5,1.4-2.5,3.9s0.9,4.4,2.8,4.4c1.3,0,2.4-1.3,2.4-3.8C190.4,4.5,189.3,2.9,187.7,2.9z"/>
			<path class="st0" d="M202.6,11.6c-0.1,0-0.2,0-0.4,0c-1.8-0.1-2.3-0.5-2.7-1.1c-0.6-0.8-1-1.6-1.4-2.5c-0.2-0.4-0.4-0.5-0.9-0.5
				h-0.3v2c0,1.1,0.1,1.2,1.2,1.4v0.5h-4.3V11c1.1-0.1,1.2-0.2,1.2-1.4V4.3c0-1.1-0.1-1.3-1.2-1.3V2.5h4.1c1.2,0,2,0.1,2.5,0.5
				c0.6,0.4,0.9,1,0.9,1.9c0,1.2-0.8,1.9-1.8,2.3c0.2,0.4,0.8,1.3,1.2,2c0.5,0.8,0.8,1.1,1.1,1.5c0.3,0.4,0.5,0.5,0.9,0.6
				L202.6,11.6L202.6,11.6z M197.3,7.1c0.6,0,1.1-0.1,1.4-0.4c0.5-0.4,0.7-0.9,0.7-1.6c0-1.5-0.9-2-1.6-2c-0.4,0-0.6,0.1-0.6,0.1
				c-0.1,0.1-0.1,0.2-0.1,0.5v3.3H197.3z"/>
			<path class="st0" d="M213.7,4.9c-0.1-0.6-0.5-1.2-0.6-1.4c-0.2-0.3-0.4-0.4-1.2-0.4H211v6.6c0,1.2,0.1,1.3,1.4,1.4v0.5h-4.6V11
				c1.2-0.1,1.3-0.2,1.3-1.4V3.1h-0.9c-0.8,0-1,0.1-1.3,0.5c-0.2,0.3-0.4,0.8-0.6,1.3h-0.5c0.1-1,0.2-2.1,0.2-2.8h0.4
				c0.2,0.3,0.4,0.3,0.8,0.3h5.6c0.4,0,0.6-0.1,0.8-0.3h0.4c0,0.6,0.1,1.8,0.1,2.7L213.7,4.9L213.7,4.9z"/>
			<path class="st0" d="M225.3,3c-1.1,0.1-1.2,0.2-1.2,1.4v5.4c0,1.2,0.1,1.2,1.2,1.3v0.5h-4.3V11c1.1-0.1,1.2-0.2,1.2-1.3V7.1h-3.8
				v2.6c0,1.2,0.1,1.2,1.2,1.3v0.5h-4.3V11c1-0.1,1.2-0.2,1.2-1.3V4.3c0-1.2-0.1-1.3-1.2-1.4V2.4h4.3V3c-1.1,0.1-1.2,0.2-1.2,1.4v2
				h3.8v-2c0-1.2-0.1-1.2-1.2-1.4V2.4h4.3C225.3,2.4,225.3,3,225.3,3z"/>
			<path class="st0" d="M234.1,9.2c-0.1,0.4-0.5,2-0.6,2.4h-7.3v-0.5c1.3-0.1,1.4-0.2,1.4-1.4V4.3c0-1.2-0.2-1.3-1.1-1.4V2.5h4.6
				c1.5,0,2,0,2.2,0c0,0.2,0.1,1.4,0.1,2.3l-0.6,0.1c-0.1-0.5-0.4-1-0.6-1.3c-0.2-0.3-0.4-0.4-1.1-0.4h-0.9c-0.5,0-0.6,0-0.6,0.5
				v2.9h1.4c0.8,0,0.9-0.2,1.1-1.2h0.6v3.1h-0.6c-0.2-1-0.3-1.2-1.1-1.2h-1.4v2.4c0,1,0,1.3,0.9,1.3h1c0.8,0,1-0.1,1.3-0.5
				c0.4-0.4,0.6-0.9,0.9-1.4L234.1,9.2L234.1,9.2z"/>
			<path class="st0" d="M248.1,3c-1.1,0.1-1.2,0.2-1.2,1.4v5.4c0,1.2,0.1,1.2,1.2,1.3v0.5h-4.3V11c1.1-0.1,1.2-0.2,1.2-1.3V7.1h-3.8
				v2.6c0,1.2,0.1,1.2,1.2,1.3v0.5h-4.3V11c1-0.1,1.2-0.2,1.2-1.3V4.3c0-1.2-0.1-1.3-1.2-1.4V2.4h4.3V3c-1.1,0.1-1.2,0.2-1.2,1.4v2
				h3.8v-2c0-1.2-0.1-1.2-1.2-1.4V2.4h4.3C248.1,2.4,248.1,3,248.1,3z"/>
			<path class="st0" d="M249.3,11.6V11c1.1-0.1,1.2-0.2,1.2-1.4V4.3c0-1.2-0.1-1.3-1.2-1.4V2.5h4.3V3c-1.1,0.1-1.2,0.2-1.2,1.4v5.3
				c0,1.2,0.1,1.2,1.2,1.4v0.5C253.7,11.6,249.3,11.6,249.3,11.6z"/>
			<path class="st0" d="M260,4.8c-0.3-0.9-0.7-1.9-2-1.9c-0.8,0-1.3,0.6-1.3,1.4s0.5,1.2,1.8,1.8c1.5,0.7,2.5,1.5,2.5,2.9
				c0,1.6-1.4,2.9-3.4,2.9c-0.9,0-1.7-0.2-2.4-0.4c-0.1-0.3-0.3-1.8-0.4-2.4l0.6-0.1c0.3,0.9,1.1,2.4,2.4,2.4c0.9,0,1.4-0.5,1.4-1.4
				c0-0.8-0.5-1.3-1.7-1.9C256,7,255,6.3,255,4.9s1.1-2.6,3.2-2.6c1,0,1.7,0.2,2,0.2c0.1,0.5,0.1,1.2,0.3,2.1L260,4.8L260,4.8z"/>
			<path class="st0" d="M269.7,4.9c-0.1-0.6-0.5-1.2-0.6-1.4c-0.2-0.3-0.4-0.4-1.2-0.4H267v6.6c0,1.2,0.1,1.3,1.4,1.4v0.5h-4.6V11
				c1.2-0.1,1.3-0.2,1.3-1.4V3.1h-0.9c-0.8,0-1,0.1-1.3,0.5c-0.2,0.3-0.4,0.8-0.6,1.3h-0.5c0.1-1,0.2-2.1,0.2-2.8h0.4
				c0.2,0.3,0.4,0.3,0.8,0.3h5.6c0.4,0,0.6-0.1,0.8-0.3h0.4c0,0.6,0.1,1.8,0.1,2.7L269.7,4.9L269.7,4.9z"/>
			<path class="st0" d="M276.1,2.2c2.6,0,4.7,1.9,4.7,4.7c0,3-2.1,4.9-4.8,4.9c-2.8,0-4.8-2-4.8-4.8C271.2,4.6,272.9,2.2,276.1,2.2z
				 M275.9,2.9c-1.4,0-2.5,1.4-2.5,3.9s0.9,4.4,2.8,4.4c1.3,0,2.4-1.3,2.4-3.8C278.6,4.5,277.5,2.9,275.9,2.9L275.9,2.9z"/>
			<path class="st0" d="M290.9,11.6c-0.1,0-0.2,0-0.4,0c-1.8-0.1-2.3-0.5-2.7-1.1c-0.6-0.8-1-1.6-1.4-2.5c-0.2-0.4-0.4-0.5-0.9-0.5
				h-0.3v2c0,1.1,0.1,1.2,1.2,1.4v0.5h-4.3V11c1.1-0.1,1.2-0.2,1.2-1.4V4.3c0-1.1-0.1-1.3-1.2-1.3V2.5h4.1c1.2,0,2,0.1,2.5,0.5
				c0.6,0.4,0.9,1,0.9,1.9c0,1.2-0.8,1.9-1.8,2.3c0.2,0.4,0.8,1.3,1.2,2c0.5,0.8,0.8,1.1,1.1,1.5c0.3,0.4,0.5,0.5,0.9,0.6
				L290.9,11.6L290.9,11.6z M285.5,7.1c0.6,0,1.1-0.1,1.4-0.4c0.5-0.4,0.7-0.9,0.7-1.6c0-1.5-0.9-2-1.6-2c-0.4,0-0.6,0.1-0.6,0.1
				c-0.1,0.1-0.1,0.2-0.1,0.5v3.3H285.5L285.5,7.1z"/>
			<path class="st0" d="M291.5,11.6V11c1.1-0.1,1.2-0.2,1.2-1.4V4.3c0-1.2-0.1-1.3-1.2-1.4V2.5h4.3V3c-1,0.1-1.2,0.2-1.2,1.4v5.3
				c0,1.2,0.1,1.2,1.2,1.4v0.5C295.8,11.6,291.5,11.6,291.5,11.6z"/>
			<path class="st0" d="M305.7,9.1c-0.2,0.7-0.6,1.8-0.8,2.2c-0.4,0.1-1.5,0.4-2.6,0.4c-3.8,0-5.3-2.4-5.3-4.7
				c0-2.9,2.2-4.9,5.6-4.9c1.2,0,2.3,0.3,2.6,0.3c0.1,0.7,0.2,1.7,0.3,2.3L304.9,5c-0.3-1.1-0.7-1.6-1.5-1.9
				c-0.3-0.1-0.8-0.2-1.2-0.2c-2,0-3,1.7-3,3.9c0,2.6,1.3,4.3,3.2,4.3c1.2,0,2-0.6,2.7-2.2L305.7,9.1L305.7,9.1z"/>
			<path class="st0" d="M311.8,11.6V11c0.9-0.1,0.9-0.3,0.7-0.9c-0.1-0.4-0.4-1.1-0.6-1.6h-2.7c-0.1,0.4-0.4,1-0.5,1.4
				c-0.3,0.9,0,1,1.1,1.1v0.5h-3.5V11c0.9-0.1,1.1-0.2,1.6-1.4l2.9-7.2l0.7-0.1c0.9,2.4,1.9,4.9,2.8,7.3c0.5,1.3,0.6,1.4,1.5,1.5
				v0.5L311.8,11.6L311.8,11.6z M310.6,4.9c-0.4,1-0.8,1.9-1.1,3h2.2L310.6,4.9L310.6,4.9z"/>
			<path class="st0" d="M323.8,9.1c-0.1,0.6-0.5,2.1-0.6,2.5h-7V11c1.2-0.1,1.3-0.2,1.3-1.4V4.3c0-1.2-0.1-1.3-1.2-1.4V2.5h4.4V3
				c-1.1,0.1-1.2,0.2-1.2,1.4v5.4c0,0.8,0,1.1,0.8,1.1c0,0,0.7,0,0.7,0c0.8,0,1-0.2,1.3-0.6c0.3-0.3,0.6-0.9,0.9-1.5L323.8,9.1
				L323.8,9.1z"/>
			<path class="st0" d="M18.9,21.6c-0.3-0.9-0.7-1.9-2-1.9c-0.8,0-1.3,0.6-1.3,1.4s0.5,1.2,1.8,1.9c1.5,0.7,2.5,1.5,2.5,2.9
				c0,1.6-1.4,2.9-3.4,2.9c-0.9,0-1.7-0.2-2.4-0.4c-0.1-0.3-0.3-1.8-0.4-2.4l0.6-0.1c0.3,0.9,1.1,2.4,2.4,2.4c0.9,0,1.4-0.5,1.4-1.4
				c0-0.8-0.5-1.3-1.7-1.9c-1.5-0.8-2.4-1.5-2.4-2.9s1.1-2.6,3.2-2.6c1,0,1.7,0.2,2,0.2c0.1,0.5,0.1,1.2,0.3,2.1L18.9,21.6
				L18.9,21.6z"/>
			<path class="st0" d="M28.5,21.7c-0.1-0.6-0.5-1.2-0.6-1.4c-0.2-0.3-0.4-0.4-1.2-0.4h-0.9v6.6c0,1.2,0.1,1.3,1.4,1.4v0.5h-4.6
				v-0.5c1.2-0.1,1.3-0.2,1.3-1.4v-6.6H23c-0.8,0-1,0.1-1.3,0.5c-0.2,0.3-0.4,0.8-0.6,1.3h-0.5c0.1-1,0.2-2.1,0.2-2.8h0.4
				c0.2,0.3,0.4,0.4,0.8,0.4h5.6c0.4,0,0.6-0.1,0.8-0.4h0.4c0,0.6,0.1,1.8,0.1,2.7L28.5,21.7L28.5,21.7z"/>
			<path class="st0" d="M39.9,19.8c-0.9,0.1-1.1,0.4-1.2,0.9c0,0.4-0.1,0.9-0.1,1.9v1.8c0,1.2-0.2,2.4-1,3.3c-0.6,0.7-1.6,1-2.6,1
				c-0.9,0-1.8-0.2-2.5-0.7c-0.8-0.6-1.2-1.5-1.2-3v-3.5c0-1.3-0.1-1.4-1.2-1.5v-0.5h4.3v0.5c-1,0.1-1.2,0.2-1.2,1.5V25
				c0,1.6,0.8,2.6,2.3,2.6c1.7,0,2.4-1.2,2.4-3.3v-1.8c0-1,0-1.5-0.1-1.9c-0.1-0.6-0.5-0.8-1.4-0.8v-0.5h3.5L39.9,19.8L39.9,19.8z"
				/>
			<path class="st0" d="M44.9,19.3c1.8,0,3.1,0.4,4,1.2c0.7,0.7,1.3,1.6,1.3,3c0,1.6-0.7,2.8-1.8,3.7c-1,0.8-2.4,1.2-4,1.2h-3.8
				v-0.5c1.1-0.1,1.2-0.2,1.2-1.4v-5.3c0-1.2-0.2-1.3-1.2-1.4v-0.5L44.9,19.3L44.9,19.3z M43.7,26.4c0,1,0.2,1.3,1.3,1.3
				c1.9,0,3-1.3,3-4c0-1.3-0.4-2.5-1-3.1c-0.6-0.6-1.3-0.8-2.3-0.8c-0.5,0-0.8,0.1-0.8,0.2c-0.1,0.1-0.2,0.4-0.2,0.8L43.7,26.4
				L43.7,26.4z"/>
			<path class="st0" d="M59.3,19.8c-0.9,0.1-1.2,0.3-1.7,1.1c-0.5,0.9-0.9,1.6-1.6,3c-0.1,0.2-0.2,0.4-0.2,0.7v1.7
				c0,1.2,0.1,1.3,1.3,1.4v0.5h-4.4v-0.5c1.1-0.1,1.2-0.2,1.2-1.4v-1.6c0-0.3-0.1-0.5-0.2-0.6c-0.4-0.8-0.9-1.8-1.8-3.2
				c-0.5-0.9-0.7-1.1-1.5-1.2v-0.5h4.1v0.5c-0.9,0.1-0.9,0.3-0.7,0.8c0.5,0.9,1.1,2,1.6,3c0.4-0.8,1.1-2.1,1.5-3
				c0.3-0.6,0.2-0.7-0.8-0.9v-0.5h3.3C59.3,19.3,59.3,19.8,59.3,19.8z"/>
			<path class="st0" d="M67.3,19.1c2.6,0,4.7,1.9,4.7,4.6c0,3-2.1,4.9-4.8,4.9c-2.8,0-4.8-2-4.8-4.8C62.4,21.4,64.1,19.1,67.3,19.1z
				 M67.1,19.7c-1.4,0-2.5,1.4-2.5,3.9s0.9,4.4,2.8,4.4c1.3,0,2.4-1.3,2.4-3.9C69.8,21.3,68.7,19.7,67.1,19.7z"/>
			<path class="st0" d="M79.7,21.6c-0.2-0.5-0.4-1-0.6-1.3c-0.3-0.3-0.5-0.4-1.2-0.4h-1.1c-0.5,0-0.5,0-0.5,0.5v3h1.5
				c0.8,0,0.9-0.2,1.2-1.2h0.5v3.1H79c-0.2-1-0.4-1.2-1.1-1.2h-1.5v2.2c0,1.3,0.1,1.4,1.3,1.5v0.5h-4.5v-0.5
				c1.1-0.1,1.2-0.2,1.2-1.5v-5.1c0-1.2-0.1-1.4-1.2-1.4v-0.5H78c1.2,0,1.9,0,2.1,0c0,0.2,0.1,1.4,0.2,2.3L79.7,21.6L79.7,21.6z"/>
			<path class="st0" d="M93.1,28.5c-0.1,0-0.2,0-0.4,0c-1.8-0.1-2.3-0.5-2.7-1c-0.6-0.8-1-1.6-1.4-2.5c-0.2-0.4-0.4-0.5-0.8-0.5
				h-0.3v2c0,1.1,0.1,1.2,1.2,1.4v0.5h-4.3v-0.5c1.1-0.1,1.2-0.2,1.2-1.4v-5.4c0-1.1-0.1-1.3-1.2-1.3v-0.5h4.1c1.2,0,2,0.1,2.5,0.5
				c0.6,0.4,0.9,1,0.9,1.9c0,1.2-0.8,1.9-1.8,2.3c0.2,0.4,0.8,1.3,1.2,2c0.5,0.8,0.8,1.1,1.1,1.5c0.3,0.4,0.5,0.5,0.9,0.6L93.1,28.5
				L93.1,28.5z M87.8,23.9c0.6,0,1.1-0.1,1.4-0.4c0.5-0.4,0.7-0.9,0.7-1.6c0-1.5-0.8-2-1.6-2c-0.4,0-0.6,0.1-0.6,0.1
				c-0.1,0.1-0.1,0.2-0.1,0.5v3.4C87.4,23.9,87.8,23.9,87.8,23.9z"/>
			<path class="st0" d="M98.9,28.4v-0.5c0.9-0.1,0.9-0.3,0.7-0.9c-0.1-0.4-0.4-1-0.6-1.6h-2.7c-0.2,0.4-0.3,1-0.5,1.4
				c-0.3,0.9,0,1,1.2,1.1v0.5h-3.5v-0.5c0.9-0.1,1.1-0.2,1.6-1.4l2.9-7.2l0.7-0.1c0.9,2.4,1.8,4.9,2.8,7.3c0.5,1.3,0.6,1.4,1.6,1.5
				v0.5L98.9,28.4L98.9,28.4z M97.7,21.7c-0.4,1-0.8,2-1.2,3h2.2L97.7,21.7z"/>
			<path class="st0" d="M112.1,26c-0.2,0.7-0.6,1.8-0.8,2.2c-0.4,0.1-1.5,0.4-2.6,0.4c-3.8,0-5.3-2.4-5.3-4.6c0-2.9,2.2-4.9,5.6-4.9
				c1.2,0,2.3,0.3,2.7,0.3c0.1,0.7,0.2,1.7,0.3,2.3l-0.6,0.1c-0.3-1.1-0.7-1.6-1.5-1.9c-0.3-0.1-0.8-0.2-1.2-0.2
				c-2,0-3.1,1.7-3.1,3.9c0,2.6,1.3,4.3,3.2,4.3c1.2,0,2-0.6,2.7-2.2L112.1,26L112.1,26z"/>
			<path class="st0" d="M121,26c-0.1,0.4-0.5,2-0.6,2.4h-7.3v-0.5c1.3-0.1,1.4-0.2,1.4-1.4v-5.4c0-1.2-0.2-1.3-1.1-1.4v-0.5h4.6
				c1.5,0,2,0,2.2,0c0,0.2,0.1,1.4,0.1,2.3l-0.6,0.1c-0.1-0.5-0.4-1-0.6-1.3c-0.2-0.3-0.4-0.4-1.2-0.4H117c-0.5,0-0.6,0-0.6,0.5v2.9
				h1.4c0.8,0,0.9-0.2,1.1-1.2h0.6v3.1h-0.6c-0.2-1-0.3-1.2-1.2-1.2h-1.4v2.4c0,1,0,1.3,0.9,1.3h1c0.8,0,1-0.1,1.3-0.5
				c0.3-0.4,0.6-0.9,0.8-1.4L121,26L121,26z"/>
			<path class="st0" d="M122.1,29.8c0.8-0.4,1.3-0.8,1.3-1.4c0-0.5-0.4-0.7-1.1-0.9c-0.1,0-0.2-0.2-0.2-0.6c0-0.5,0.4-0.9,1-0.9
				c0.7,0,1.5,0.7,1.5,1.8c0,1.3-1.2,2.2-2.3,2.5L122.1,29.8L122.1,29.8z"/>
			<path class="st0" d="M128.8,28.4v-0.5c1.1-0.1,1.2-0.2,1.2-1.4v-5.3c0-1.2-0.1-1.3-1.2-1.4v-0.5h4.3v0.5
				c-1.1,0.1-1.2,0.2-1.2,1.4v5.3c0,1.2,0.1,1.2,1.2,1.4v0.5H128.8z"/>
			<path class="st0" d="M144.1,19.8c-0.9,0.1-1.1,0.3-1.2,0.9c0,0.5-0.1,1-0.1,2.2v5.6h-0.8l-5.8-7v3.2c0,1.2,0,1.8,0.1,2.2
				c0.1,0.6,0.4,0.9,1.4,1v0.5h-3.5v-0.5c0.8-0.1,1.1-0.3,1.2-0.9c0.1-0.5,0.1-1,0.1-2.2v-3.3c0-0.5,0-0.8-0.3-1.1
				c-0.2-0.4-0.6-0.4-1.2-0.5v-0.5h2.7l5.3,6.2V23c0-1.2,0-1.7-0.1-2.2c0-0.6-0.3-0.9-1.4-1v-0.5h3.5L144.1,19.8L144.1,19.8z"/>
			<path class="st0" d="M152.6,26c-0.1,0.4-0.5,2-0.6,2.4h-7.3v-0.5c1.3-0.1,1.4-0.2,1.4-1.4v-5.4c0-1.2-0.2-1.3-1.1-1.4v-0.5h4.6
				c1.5,0,2,0,2.2,0c0,0.2,0.1,1.4,0.1,2.3l-0.6,0.1c-0.1-0.5-0.4-1-0.6-1.3c-0.2-0.3-0.4-0.4-1.1-0.4h-0.9c-0.5,0-0.6,0-0.6,0.5
				v2.9h1.4c0.8,0,0.9-0.2,1.1-1.2h0.6v3.1h-0.6c-0.2-1-0.3-1.2-1.1-1.2h-1.4v2.4c0,1,0,1.3,0.9,1.3h1c0.8,0,1-0.1,1.3-0.5
				c0.4-0.4,0.6-0.9,0.9-1.4L152.6,26L152.6,26z"/>
			<path class="st0" d="M158.6,19.1c2.6,0,4.7,1.9,4.7,4.6c0,3-2.1,4.9-4.8,4.9c-2.8,0-4.8-2-4.8-4.8
				C153.7,21.4,155.4,19.1,158.6,19.1z M158.3,19.7c-1.4,0-2.5,1.4-2.5,3.9s0.9,4.4,2.8,4.4c1.3,0,2.4-1.3,2.4-3.9
				C161.1,21.3,160,19.7,158.3,19.7z M159.4,27.5c1.8,1.4,3.2,2.4,4.3,2.8l-0.1,0.4c-0.6,0.1-1.7,0-2.2-0.1
				c-1.2-0.4-2.7-1.5-3.9-2.4L159.4,27.5L159.4,27.5z"/>
			<path class="st0" d="M174.1,19.8c-0.9,0.1-1.1,0.4-1.2,0.9c0,0.4-0.1,0.9-0.1,1.9v1.8c0,1.2-0.2,2.4-1,3.3c-0.6,0.7-1.6,1-2.6,1
				c-0.9,0-1.9-0.2-2.5-0.7c-0.8-0.6-1.2-1.5-1.2-3v-3.5c0-1.3-0.1-1.4-1.2-1.5v-0.5h4.3v0.5c-1.1,0.1-1.2,0.2-1.2,1.5V25
				c0,1.6,0.8,2.6,2.3,2.6c1.7,0,2.4-1.2,2.4-3.3v-1.8c0-1,0-1.5-0.1-1.9c-0.1-0.6-0.4-0.8-1.4-0.8v-0.5h3.5L174.1,19.8L174.1,19.8z
				"/>
			<path class="st0" d="M179,28.4v-0.5c0.9-0.1,0.9-0.3,0.7-0.9c-0.1-0.4-0.4-1-0.6-1.6h-2.7c-0.1,0.4-0.4,1-0.5,1.4
				c-0.3,0.9,0,1,1.1,1.1v0.5h-3.5v-0.5c0.9-0.1,1.1-0.2,1.6-1.4l2.9-7.2l0.7-0.1c0.9,2.4,1.9,4.9,2.8,7.3c0.5,1.3,0.6,1.4,1.6,1.5
				v0.5L179,28.4L179,28.4z M177.8,21.7c-0.4,1-0.8,2-1.1,3h2.2L177.8,21.7z"/>
			<path class="st0" d="M191,25.9c-0.1,0.6-0.5,2.1-0.6,2.5h-6.9v-0.5c1.2-0.1,1.3-0.2,1.3-1.4v-5.3c0-1.2-0.1-1.3-1.2-1.4v-0.5h4.4
				v0.5c-1.1,0.1-1.2,0.2-1.2,1.4v5.4c0,0.8,0,1.1,0.8,1.1c0,0,0.7,0,0.7,0c0.8,0,1-0.2,1.3-0.5c0.3-0.3,0.6-0.9,0.9-1.5L191,25.9
				L191,25.9z"/>
			<path class="st0" d="M191.6,28.4v-0.5c1.1-0.1,1.2-0.2,1.2-1.4v-5.3c0-1.2-0.1-1.3-1.2-1.4v-0.5h4.3v0.5
				c-1.1,0.1-1.2,0.2-1.2,1.4v5.3c0,1.2,0.1,1.2,1.2,1.4v0.5H191.6z"/>
			<path class="st0" d="M204.9,21.7c-0.1-0.6-0.5-1.2-0.6-1.4c-0.2-0.3-0.4-0.4-1.2-0.4h-0.9v6.6c0,1.2,0.1,1.3,1.4,1.4v0.5H199
				v-0.5c1.2-0.1,1.3-0.2,1.3-1.4v-6.6h-0.9c-0.8,0-1,0.1-1.3,0.5c-0.2,0.3-0.4,0.8-0.6,1.3h-0.5c0.1-1,0.2-2.1,0.2-2.8h0.4
				c0.2,0.3,0.4,0.4,0.8,0.4h5.6c0.4,0,0.6-0.1,0.8-0.4h0.4c0,0.6,0.1,1.8,0.1,2.7L204.9,21.7L204.9,21.7z"/>
			<path class="st0" d="M215.3,19.8c-0.9,0.1-1.2,0.3-1.7,1.1c-0.5,0.9-0.9,1.6-1.6,3c-0.1,0.2-0.1,0.4-0.1,0.7v1.7
				c0,1.2,0.1,1.3,1.3,1.4v0.5h-4.4v-0.5c1.1-0.1,1.2-0.2,1.2-1.4v-1.6c0-0.3-0.1-0.5-0.1-0.6c-0.4-0.8-0.9-1.8-1.8-3.2
				c-0.5-0.9-0.7-1.1-1.5-1.2v-0.5h4.1v0.5c-0.9,0.1-0.9,0.3-0.7,0.8c0.5,0.9,1.1,2,1.6,3c0.4-0.8,1.1-2.1,1.5-3
				c0.3-0.6,0.1-0.7-0.9-0.9v-0.5h3.3L215.3,19.8L215.3,19.8z"/>
			<path class="st0" d="M214.6,29.8c0.8-0.4,1.3-0.8,1.3-1.4c0-0.5-0.4-0.7-1.1-0.9c-0.1,0-0.2-0.2-0.2-0.6c0-0.5,0.4-0.9,1-0.9
				c0.7,0,1.5,0.7,1.5,1.8c0,1.3-1.2,2.2-2.3,2.5L214.6,29.8L214.6,29.8z"/>
			<path class="st0" d="M225.8,28.4v-0.5c0.9-0.1,0.9-0.3,0.7-0.9c-0.1-0.4-0.4-1-0.6-1.6h-2.7c-0.1,0.4-0.4,1-0.5,1.4
				c-0.3,0.9,0,1,1.1,1.1v0.5h-3.5v-0.5c0.9-0.1,1.1-0.2,1.6-1.4l2.9-7.2l0.7-0.1c0.9,2.4,1.9,4.9,2.8,7.3c0.5,1.3,0.6,1.4,1.6,1.5
				v0.5L225.8,28.4L225.8,28.4z M224.5,21.7c-0.4,1-0.8,2-1.1,3h2.2L224.5,21.7z"/>
			<path class="st0" d="M240.1,19.8c-0.9,0.1-1.1,0.3-1.2,0.9c0,0.5-0.1,1-0.1,2.2v5.6h-0.8l-5.8-7v3.2c0,1.2,0,1.8,0.1,2.2
				c0.1,0.6,0.4,0.9,1.4,1v0.5h-3.5v-0.5c0.8-0.1,1.1-0.3,1.2-0.9c0.1-0.5,0.1-1,0.1-2.2v-3.3c0-0.5,0-0.8-0.3-1.1
				c-0.2-0.4-0.6-0.4-1.2-0.5v-0.5h2.7l5.3,6.2V23c0-1.2,0-1.7-0.1-2.2c0-0.6-0.3-0.9-1.4-1v-0.5h3.5L240.1,19.8L240.1,19.8z"/>
			<path class="st0" d="M245.2,19.3c1.8,0,3.1,0.4,4,1.2c0.7,0.7,1.3,1.6,1.3,3c0,1.6-0.7,2.8-1.8,3.7c-1,0.8-2.4,1.2-4,1.2H241
				v-0.5c1.1-0.1,1.2-0.2,1.2-1.4v-5.3c0-1.2-0.1-1.3-1.2-1.4v-0.5L245.2,19.3L245.2,19.3z M244.1,26.4c0,1,0.2,1.3,1.3,1.3
				c1.9,0,3-1.3,3-4c0-1.3-0.4-2.5-1-3.1c-0.6-0.6-1.3-0.8-2.2-0.8c-0.5,0-0.8,0.1-0.8,0.2c-0.1,0.1-0.1,0.4-0.1,0.8L244.1,26.4
				L244.1,26.4z"/>
			<path class="st0" d="M264.8,19.8c-1.1,0.1-1.2,0.2-1.2,1.4v5.4c0,1.2,0.1,1.2,1.2,1.3v0.5h-4.3v-0.5c1.1-0.1,1.2-0.2,1.2-1.3
				v-2.6h-3.8v2.6c0,1.2,0.1,1.2,1.2,1.3v0.5h-4.3v-0.5c1-0.1,1.2-0.2,1.2-1.3v-5.4c0-1.2-0.1-1.3-1.2-1.4v-0.5h4.3v0.5
				c-1.1,0.1-1.2,0.2-1.2,1.4v2h3.8v-2c0-1.2-0.1-1.2-1.2-1.4v-0.5h4.3C264.8,19.3,264.8,19.8,264.8,19.8z"/>
			<path class="st0" d="M273.7,26c-0.1,0.4-0.5,2-0.6,2.4h-7.3v-0.5c1.3-0.1,1.4-0.2,1.4-1.4v-5.4c0-1.2-0.2-1.3-1.1-1.4v-0.5h4.5
				c1.5,0,2,0,2.2,0c0,0.2,0.1,1.4,0.1,2.3l-0.5,0.1c-0.1-0.5-0.4-1-0.6-1.3c-0.2-0.3-0.4-0.4-1.1-0.4h-0.9c-0.5,0-0.6,0-0.6,0.5
				v2.9h1.4c0.8,0,0.9-0.2,1.1-1.2h0.5v3.1h-0.5c-0.2-1-0.3-1.2-1.1-1.2h-1.4v2.4c0,1,0,1.3,0.9,1.3h1c0.8,0,1-0.1,1.3-0.5
				c0.4-0.4,0.6-0.9,0.9-1.4L273.7,26L273.7,26z"/>
			<path class="st0" d="M279.8,28.4v-0.5c0.9-0.1,0.9-0.3,0.7-0.9c-0.1-0.4-0.4-1-0.6-1.6h-2.7c-0.1,0.4-0.4,1-0.5,1.4
				c-0.3,0.9,0,1,1.1,1.1v0.5h-3.5v-0.5c0.9-0.1,1.1-0.2,1.6-1.4l2.9-7.2l0.7-0.1c0.9,2.4,1.9,4.9,2.8,7.3c0.5,1.3,0.6,1.4,1.5,1.5
				v0.5L279.8,28.4L279.8,28.4z M278.6,21.7c-0.4,1-0.8,2-1.1,3h2.2L278.6,21.7L278.6,21.7z"/>
			<path class="st0" d="M291.8,25.9c-0.1,0.6-0.5,2.1-0.6,2.5h-7v-0.5c1.2-0.1,1.3-0.2,1.3-1.4v-5.3c0-1.2-0.1-1.3-1.2-1.4v-0.5h4.4
				v0.5c-1.1,0.1-1.2,0.2-1.2,1.4v5.4c0,0.8,0,1.1,0.8,1.1c0,0,0.7,0,0.7,0c0.8,0,1-0.2,1.3-0.5c0.3-0.3,0.6-0.9,0.9-1.5L291.8,25.9
				L291.8,25.9z"/>
			<path class="st0" d="M298.9,21.7c-0.1-0.6-0.5-1.2-0.6-1.4c-0.2-0.3-0.4-0.4-1.2-0.4h-0.9v6.6c0,1.2,0.1,1.3,1.4,1.4v0.5h-4.6
				v-0.5c1.2-0.1,1.3-0.2,1.3-1.4v-6.6h-0.9c-0.8,0-1,0.1-1.3,0.5c-0.2,0.3-0.4,0.8-0.6,1.3H291c0.1-1,0.2-2.1,0.2-2.8h0.4
				c0.2,0.3,0.4,0.4,0.8,0.4h5.6c0.4,0,0.6-0.1,0.8-0.4h0.4c0,0.6,0.1,1.8,0.1,2.7L298.9,21.7L298.9,21.7z"/>
			<path class="st0" d="M310.5,19.8c-1.1,0.1-1.2,0.2-1.2,1.4v5.4c0,1.2,0.1,1.2,1.2,1.3v0.5h-4.3v-0.5c1.1-0.1,1.2-0.2,1.2-1.3
				v-2.6h-3.8v2.6c0,1.2,0.1,1.2,1.2,1.3v0.5h-4.3v-0.5c1-0.1,1.2-0.2,1.2-1.3v-5.4c0-1.2-0.1-1.3-1.2-1.4v-0.5h4.3v0.5
				c-1.1,0.1-1.2,0.2-1.2,1.4v2h3.8v-2c0-1.2-0.1-1.2-1.2-1.4v-0.5h4.3C310.5,19.3,310.5,19.8,310.5,19.8z"/>
		</g>
		<g>
			<path class="st0" d="M14.5,170.3c-0.1,0.6-0.4,1.4-0.6,1.8c-0.3,0.1-1.2,0.3-2,0.3c-3,0-4.2-1.9-4.2-3.7c0-2.3,1.7-3.8,4.4-3.8
				c1,0,1.8,0.2,2.1,0.3c0.1,0.5,0.1,1.3,0.2,1.8l-0.4,0.1c-0.2-0.9-0.6-1.3-1.1-1.5c-0.3-0.1-0.7-0.1-1-0.1c-1.6,0-2.4,1.3-2.4,3.1
				c0,2,1,3.4,2.5,3.4c0.9,0,1.5-0.5,2.1-1.7L14.5,170.3L14.5,170.3z"/>
			<path class="st0" d="M19.2,164.9c2,0,3.7,1.5,3.7,3.7c0,2.4-1.7,3.8-3.8,3.8c-2.2,0-3.8-1.6-3.8-3.7
				C15.4,166.8,16.7,164.9,19.2,164.9L19.2,164.9z M19.1,165.4c-1.1,0-2,1.1-2,3.1s0.7,3.5,2.2,3.5c1,0,1.9-1,1.9-3
				C21.2,166.7,20.4,165.4,19.1,165.4L19.1,165.4z"/>
			<path class="st0" d="M29.8,170.3c-0.1,0.5-0.4,1.6-0.5,1.9h-5.5v-0.4c1-0.1,1.1-0.1,1.1-1.1v-4.2c0-0.9-0.1-1-0.9-1.1v-0.4h3.4
				v0.4c-0.9,0.1-1,0.1-1,1.1v4.3c0,0.6,0,0.9,0.6,0.9c0,0,0.5,0,0.6,0c0.6,0,0.8-0.1,1.1-0.4c0.2-0.2,0.5-0.7,0.7-1.1L29.8,170.3
				L29.8,170.3z"/>
			<path class="st0" d="M37.5,165.5c-0.7,0.1-0.9,0.3-0.9,0.7c0,0.3-0.1,0.7-0.1,1.5v1.4c0,0.9-0.2,1.9-0.8,2.6
				c-0.5,0.5-1.3,0.8-2.1,0.8c-0.7,0-1.5-0.1-2-0.6c-0.6-0.5-1-1.2-1-2.4v-2.8c0-1-0.1-1.1-0.9-1.2v-0.4h3.4v0.4
				c-0.8,0.1-0.9,0.1-0.9,1.2v2.9c0,1.2,0.6,2.1,1.8,2.1c1.3,0,1.9-1,1.9-2.6v-1.4c0-0.8,0-1.2-0.1-1.5c0-0.5-0.3-0.6-1.1-0.7v-0.4
				h2.7L37.5,165.5L37.5,165.5z"/>
			<path class="st0" d="M43.7,172.2v-0.4c0.8-0.1,0.9-0.2,0.9-1.2v-4.3c-0.8,1.9-1.7,4-2.5,5.9h-0.4c-0.7-1.8-1.5-3.8-2.3-5.8
				c-0.1,3.5-0.1,4.1-0.1,4.5c0,0.6,0.2,0.8,1.1,0.8v0.4h-2.7v-0.4c0.6-0.1,0.9-0.2,1-0.8c0-0.3,0.1-1,0.3-4.6c0-0.5,0-0.8-1-0.9
				v-0.4h2.4l2.1,4.9l2.1-4.9H47v0.4c-0.9,0.1-1,0.2-1,1.1l0.1,4.1c0,1,0.1,1,1,1.2v0.4L43.7,172.2L43.7,172.2z"/>
			<path class="st0" d="M52.1,168.3c1.2,0.2,2,0.8,2,1.8c0,0.7-0.4,1.3-1.1,1.7c-0.6,0.3-1.3,0.5-2.1,0.5h-3.1v-0.4
				c0.8-0.1,0.9-0.1,0.9-1.1v-4.2c0-0.9-0.1-1-0.9-1.1v-0.4h3.3c0.8,0,1.4,0.1,1.8,0.4c0.4,0.3,0.7,0.7,0.7,1.2
				C53.7,167.6,52.9,168.1,52.1,168.3L52.1,168.3z M50.7,168.1c1,0,1.4-0.4,1.4-1.3c0-1-0.6-1.3-1.2-1.3c-0.3,0-0.4,0-0.5,0.1
				c-0.1,0.1-0.1,0.2-0.1,0.4v2.1L50.7,168.1L50.7,168.1z M50.3,170.7c0,0.8,0.4,1,1,1c0.6,0,1.2-0.5,1.2-1.6s-0.5-1.6-1.8-1.6h-0.4
				V170.7z"/>
			<path class="st0" d="M54.9,172.2v-0.4c0.8-0.1,0.9-0.1,0.9-1.1v-4.2c0-0.9-0.1-1-0.9-1.1v-0.4h3.4v0.4c-0.8,0.1-0.9,0.1-0.9,1.1
				v4.2c0,0.9,0.1,1,0.9,1.1v0.4H54.9z"/>
			<path class="st0" d="M62.9,172.2v-0.4c0.7-0.1,0.7-0.2,0.5-0.7c-0.1-0.3-0.3-0.8-0.5-1.3h-2.2c-0.1,0.3-0.3,0.8-0.4,1.1
				c-0.2,0.7,0,0.8,0.9,0.9v0.4h-2.7v-0.4c0.7-0.1,0.9-0.2,1.2-1.1l2.3-5.7l0.5-0.1c0.7,1.9,1.4,3.9,2.2,5.7c0.4,1,0.5,1.1,1.2,1.2
				v0.4H62.9z M62,167c-0.3,0.8-0.6,1.5-0.9,2.3h1.8L62,167z"/>
			<path class="st0" d="M76.2,165.5c-0.7,0.1-0.9,0.3-0.9,0.7c0,0.3-0.1,0.7-0.1,1.5v1.4c0,0.9-0.2,1.9-0.8,2.6
				c-0.5,0.5-1.3,0.8-2.1,0.8c-0.7,0-1.4-0.1-2-0.6c-0.6-0.5-0.9-1.2-0.9-2.4v-2.8c0-1-0.1-1.1-0.9-1.2v-0.4h3.4v0.4
				c-0.8,0.1-0.9,0.1-0.9,1.2v2.9c0,1.2,0.6,2.1,1.8,2.1c1.3,0,1.9-1,1.9-2.6v-1.4c0-0.8,0-1.2-0.1-1.5c0-0.5-0.3-0.6-1.1-0.7v-0.4
				h2.7L76.2,165.5L76.2,165.5z"/>
			<path class="st0" d="M84.4,165.5c-0.7,0.1-0.9,0.2-0.9,0.7c0,0.4-0.1,0.8-0.1,1.8v4.4h-0.6l-4.6-5.5v2.5c0,1,0,1.4,0.1,1.7
				c0,0.5,0.3,0.7,1.1,0.8v0.4h-2.7v-0.4c0.6-0.1,0.9-0.2,1-0.7c0-0.4,0.1-0.8,0.1-1.8v-2.6c0-0.4,0-0.6-0.2-0.9
				c-0.2-0.3-0.5-0.3-0.9-0.4v-0.4h2.2l4.2,4.9v-2c0-1,0-1.3,0-1.7c0-0.5-0.2-0.7-1.1-0.8v-0.4h2.7L84.4,165.5L84.4,165.5z"/>
			<path class="st0" d="M85.1,172.2v-0.4c0.8-0.1,0.9-0.1,0.9-1.1v-4.2c0-0.9-0.1-1-0.9-1.1v-0.4h3.4v0.4c-0.8,0.1-0.9,0.1-0.9,1.1
				v4.2c0,0.9,0.1,1,0.9,1.1v0.4H85.1z"/>
			<path class="st0" d="M96.6,165.5c-0.7,0.1-0.9,0.2-1.4,1.2c-0.3,0.9-1.5,3.6-2.3,5.6h-0.6c-0.3-0.9-1.7-4.6-2.2-5.8
				c-0.3-0.8-0.5-1-1.2-1.1v-0.4h3.4v0.4c-0.8,0.1-0.8,0.2-0.6,0.6c0.3,0.9,1.2,3.2,1.5,4.2c0.7-1.6,1.3-3.1,1.5-3.8
				c0.3-0.8,0.2-0.9-0.7-1v-0.4h2.6L96.6,165.5L96.6,165.5z"/>
			<path class="st0" d="M103.1,170.4c-0.1,0.3-0.4,1.6-0.5,1.9h-5.7v-0.4c1-0.1,1.1-0.1,1.1-1.1v-4.2c0-0.9-0.1-1-0.9-1.1v-0.4h3.6
				c1.2,0,1.5,0,1.7,0c0,0.2,0.1,1.1,0.1,1.8l-0.4,0.1c-0.1-0.4-0.3-0.8-0.5-1c-0.2-0.2-0.3-0.3-0.9-0.3H100c-0.4,0-0.5,0-0.5,0.4
				v2.3h1.1c0.6,0,0.7-0.2,0.9-0.9h0.4v2.5h-0.4c-0.2-0.8-0.3-0.9-0.9-0.9h-1.1v1.9c0,0.8,0,1,0.7,1h0.8c0.6,0,0.8-0.1,1-0.4
				c0.3-0.3,0.5-0.7,0.7-1.1L103.1,170.4L103.1,170.4z"/>
			<path class="st0" d="M110.7,172.3c-0.1,0-0.2,0-0.3,0c-1.4-0.1-1.8-0.4-2.1-0.8c-0.4-0.6-0.8-1.3-1.1-1.9
				c-0.2-0.3-0.3-0.4-0.7-0.4h-0.2v1.6c0,0.9,0.1,1,0.9,1.1v0.4h-3.4v-0.4c0.8-0.1,0.9-0.2,0.9-1.1v-4.2c0-0.9-0.1-1-0.9-1.1v-0.4
				h3.2c1,0,1.5,0.1,2,0.4c0.4,0.3,0.7,0.8,0.7,1.5c0,1-0.7,1.5-1.4,1.8c0.2,0.3,0.6,1.1,0.9,1.6c0.4,0.6,0.6,0.9,0.8,1.1
				c0.2,0.3,0.4,0.4,0.7,0.5L110.7,172.3z M106.5,168.7c0.5,0,0.8-0.1,1.1-0.3c0.4-0.3,0.5-0.7,0.5-1.3c0-1.2-0.7-1.6-1.3-1.6
				c-0.3,0-0.4,0-0.5,0.1c-0.1,0.1-0.1,0.2-0.1,0.4v2.6L106.5,168.7L106.5,168.7z"/>
			<path class="st0" d="M115.4,166.9c-0.2-0.7-0.5-1.5-1.5-1.5c-0.6,0-1.1,0.4-1.1,1.1s0.4,1,1.4,1.4c1.2,0.6,1.9,1.2,1.9,2.2
				c0,1.3-1.1,2.2-2.7,2.2c-0.7,0-1.3-0.2-1.8-0.3c-0.1-0.2-0.2-1.4-0.3-1.9l0.4-0.1c0.2,0.7,0.8,1.9,1.9,1.9c0.7,0,1.1-0.4,1.1-1.1
				c0-0.6-0.4-1-1.3-1.5c-1.2-0.6-1.9-1.2-1.9-2.3s0.9-2.1,2.6-2.1c0.8,0,1.3,0.2,1.6,0.2c0,0.4,0.1,1,0.2,1.7L115.4,166.9
				L115.4,166.9z"/>
			<path class="st0" d="M117,172.2v-0.4c0.8-0.1,0.9-0.1,0.9-1.1v-4.2c0-0.9-0.1-1-0.9-1.1v-0.4h3.4v0.4c-0.8,0.1-0.9,0.1-0.9,1.1
				v4.2c0,0.9,0.1,1,0.9,1.1v0.4H117z"/>
			<path class="st0" d="M127.4,167c-0.1-0.5-0.4-0.9-0.5-1.1c-0.2-0.2-0.3-0.3-0.9-0.3h-0.7v5.2c0,0.9,0.1,1,1.1,1.1v0.4h-3.7v-0.4
				c0.9-0.1,1-0.1,1-1.1v-5.2h-0.7c-0.6,0-0.8,0.1-1,0.4c-0.2,0.2-0.3,0.6-0.4,1.1h-0.4c0.1-0.8,0.2-1.7,0.2-2.2h0.3
				c0.2,0.2,0.3,0.3,0.6,0.3h4.4c0.3,0,0.4-0.1,0.6-0.3h0.3c0,0.5,0.1,1.4,0.1,2.1L127.4,167L127.4,167z"/>
			<path class="st0" d="M135.6,165.5c-0.7,0.1-1,0.2-1.4,0.9c-0.4,0.7-0.7,1.3-1.3,2.4c-0.1,0.2-0.1,0.3-0.1,0.6v1.4
				c0,1,0.1,1,1,1.1v0.4h-3.5v-0.4c0.9-0.1,0.9-0.1,0.9-1.1v-1.3c0-0.2,0-0.4-0.1-0.5c-0.3-0.6-0.7-1.4-1.4-2.5
				c-0.4-0.7-0.6-0.9-1.2-0.9v-0.4h3.2v0.4c-0.7,0.1-0.7,0.2-0.5,0.6c0.4,0.7,0.8,1.6,1.3,2.4c0.3-0.6,0.9-1.7,1.2-2.4
				c0.2-0.4,0.1-0.6-0.7-0.7v-0.4h2.6L135.6,165.5L135.6,165.5z"/>
			<path class="st0" d="M144.8,170.3c-0.1,0.6-0.4,1.4-0.6,1.8c-0.3,0.1-1.2,0.3-2,0.3c-3,0-4.2-1.9-4.2-3.7c0-2.3,1.7-3.8,4.4-3.8
				c1,0,1.8,0.2,2.1,0.3c0.1,0.5,0.1,1.3,0.2,1.8l-0.4,0.1c-0.2-0.9-0.6-1.3-1.1-1.5c-0.3-0.1-0.7-0.1-1-0.1c-1.6,0-2.4,1.3-2.4,3.1
				c0,2,1,3.4,2.5,3.4c0.9,0,1.5-0.5,2.1-1.7L144.8,170.3L144.8,170.3z"/>
			<path class="st0" d="M151.8,170.4c-0.1,0.3-0.4,1.6-0.5,1.9h-5.7v-0.4c1-0.1,1.1-0.1,1.1-1.1v-4.2c0-0.9-0.1-1-0.9-1.1v-0.4h3.6
				c1.2,0,1.5,0,1.7,0c0,0.2,0.1,1.1,0.1,1.8l-0.4,0.1c-0.1-0.4-0.3-0.8-0.5-1c-0.2-0.2-0.3-0.3-0.9-0.3h-0.7c-0.4,0-0.5,0-0.5,0.4
				v2.3h1.1c0.6,0,0.7-0.2,0.9-0.9h0.4v2.5h-0.4c-0.2-0.8-0.3-0.9-0.9-0.9h-1.1v1.9c0,0.8,0,1,0.7,1h0.8c0.6,0,0.8-0.1,1-0.4
				c0.3-0.3,0.5-0.7,0.7-1.1L151.8,170.4L151.8,170.4z"/>
			<path class="st0" d="M160.1,165.5c-0.7,0.1-0.9,0.2-0.9,0.7c0,0.4-0.1,0.8-0.1,1.8v4.4h-0.6l-4.6-5.5v2.5c0,1,0,1.4,0.1,1.7
				c0,0.5,0.3,0.7,1.1,0.8v0.4h-2.7v-0.4c0.6-0.1,0.9-0.2,1-0.7c0-0.4,0.1-0.8,0.1-1.8v-2.6c0-0.4,0-0.6-0.2-0.9
				c-0.2-0.3-0.5-0.3-0.9-0.4v-0.4h2.1l4.2,4.9v-2c0-1,0-1.3,0-1.7c0-0.5-0.2-0.7-1.1-0.8v-0.4h2.7L160.1,165.5L160.1,165.5z"/>
			<path class="st0" d="M167.1,167c-0.1-0.5-0.4-0.9-0.5-1.1c-0.2-0.2-0.3-0.3-0.9-0.3H165v5.2c0,0.9,0.1,1,1.1,1.1v0.4h-3.7v-0.4
				c0.9-0.1,1-0.1,1-1.1v-5.2h-0.7c-0.6,0-0.8,0.1-1,0.4c-0.1,0.2-0.3,0.6-0.4,1.1h-0.4c0.1-0.8,0.1-1.7,0.2-2.2h0.3
				c0.2,0.2,0.3,0.3,0.6,0.3h4.4c0.3,0,0.4-0.1,0.6-0.3h0.3c0,0.5,0.1,1.4,0.1,2.1L167.1,167L167.1,167z"/>
			<path class="st0" d="M174.3,170.4c-0.1,0.3-0.4,1.6-0.5,1.9h-5.7v-0.4c1-0.1,1.1-0.1,1.1-1.1v-4.2c0-0.9-0.1-1-0.9-1.1v-0.4h3.6
				c1.2,0,1.5,0,1.7,0c0,0.2,0.1,1.1,0.1,1.8l-0.4,0.1c-0.1-0.4-0.3-0.8-0.5-1c-0.2-0.2-0.3-0.3-0.9-0.3h-0.7c-0.4,0-0.5,0-0.5,0.4
				v2.3h1.1c0.6,0,0.7-0.2,0.9-0.9h0.4v2.5h-0.4c-0.2-0.8-0.3-0.9-0.9-0.9h-1.1v1.9c0,0.8,0,1,0.7,1h0.8c0.6,0,0.8-0.1,1-0.4
				c0.3-0.3,0.5-0.7,0.7-1.1L174.3,170.4L174.3,170.4z"/>
			<path class="st0" d="M181.9,172.3c-0.1,0-0.2,0-0.3,0c-1.4-0.1-1.8-0.4-2.1-0.8c-0.4-0.6-0.8-1.3-1.1-1.9
				c-0.2-0.3-0.3-0.4-0.7-0.4h-0.2v1.6c0,0.9,0.1,1,0.9,1.1v0.4H175v-0.4c0.8-0.1,0.9-0.2,0.9-1.1v-4.2c0-0.9-0.1-1-0.9-1.1v-0.4
				h3.2c1,0,1.5,0.1,2,0.4c0.4,0.3,0.7,0.8,0.7,1.5c0,1-0.6,1.5-1.4,1.8c0.2,0.3,0.6,1.1,0.9,1.6c0.4,0.6,0.6,0.9,0.8,1.1
				c0.2,0.3,0.4,0.4,0.7,0.5L181.9,172.3L181.9,172.3z M177.7,168.7c0.5,0,0.8-0.1,1.1-0.3c0.4-0.3,0.5-0.7,0.5-1.3
				c0-1.2-0.7-1.6-1.3-1.6c-0.3,0-0.4,0-0.5,0.1c-0.1,0.1-0.1,0.2-0.1,0.4v2.6L177.7,168.7L177.7,168.7z"/>
			<path class="st0" d="M189.7,166.9c-0.1-0.4-0.3-0.8-0.5-1c-0.2-0.2-0.4-0.3-0.9-0.3h-0.8c-0.4,0-0.4,0-0.4,0.4v2.4h1.2
				c0.6,0,0.7-0.2,0.9-0.9h0.4v2.4h-0.4c-0.1-0.8-0.3-0.9-0.9-0.9h-1.2v1.7c0,1,0.1,1.1,1.1,1.2v0.4h-3.5v-0.4
				c0.8-0.1,0.9-0.1,0.9-1.2v-4.1c0-1-0.1-1.1-0.9-1.1v-0.4h3.7c0.9,0,1.5,0,1.7,0c0,0.2,0.1,1.1,0.1,1.8L189.7,166.9L189.7,166.9z"
				/>
			<path class="st0" d="M194.8,164.9c2,0,3.7,1.5,3.7,3.7c0,2.4-1.7,3.8-3.8,3.8c-2.2,0-3.8-1.6-3.8-3.7
				C190.9,166.8,192.3,164.9,194.8,164.9L194.8,164.9z M194.6,165.4c-1.1,0-1.9,1.1-1.9,3.1s0.7,3.5,2.2,3.5c1.1,0,1.9-1,1.9-3
				C196.8,166.7,195.9,165.4,194.6,165.4L194.6,165.4z"/>
			<path class="st0" d="M206.4,172.3c-0.1,0-0.2,0-0.3,0c-1.4-0.1-1.8-0.4-2.1-0.8c-0.4-0.6-0.8-1.3-1.1-1.9
				c-0.2-0.3-0.3-0.4-0.7-0.4h-0.2v1.6c0,0.9,0.1,1,0.9,1.1v0.4h-3.4v-0.4c0.8-0.1,0.9-0.2,0.9-1.1v-4.2c0-0.9-0.1-1-0.9-1.1v-0.4
				h3.2c1,0,1.5,0.1,2,0.4c0.4,0.3,0.7,0.8,0.7,1.5c0,1-0.6,1.5-1.4,1.8c0.2,0.3,0.6,1.1,0.9,1.6c0.4,0.6,0.6,0.9,0.8,1.1
				c0.2,0.3,0.4,0.4,0.7,0.5L206.4,172.3L206.4,172.3z M202.2,168.7c0.5,0,0.8-0.1,1.1-0.3c0.4-0.3,0.5-0.7,0.5-1.3
				c0-1.2-0.7-1.6-1.3-1.6c-0.3,0-0.4,0-0.5,0.1c-0.1,0.1-0.1,0.2-0.1,0.4v2.6L202.2,168.7L202.2,168.7z"/>
			<path class="st0" d="M213.2,166.9c-0.2-0.7-0.5-1.5-1.5-1.5c-0.6,0-1.1,0.4-1.1,1.1s0.4,1,1.4,1.4c1.2,0.6,1.9,1.2,1.9,2.2
				c0,1.3-1.1,2.2-2.6,2.2c-0.7,0-1.3-0.2-1.9-0.3c-0.1-0.2-0.2-1.4-0.3-1.9l0.4-0.1c0.2,0.7,0.8,1.9,1.9,1.9c0.7,0,1.1-0.4,1.1-1.1
				c0-0.6-0.4-1-1.3-1.5c-1.1-0.6-1.9-1.2-1.9-2.3s0.9-2.1,2.6-2.1c0.8,0,1.3,0.2,1.6,0.2c0,0.4,0.1,1,0.2,1.7L213.2,166.9
				L213.2,166.9z"/>
			<path class="st0" d="M221.6,170.3c-0.1,0.6-0.4,1.4-0.6,1.8c-0.3,0.1-1.2,0.3-2,0.3c-3,0-4.2-1.9-4.2-3.7c0-2.3,1.7-3.8,4.4-3.8
				c1,0,1.8,0.2,2.1,0.3c0.1,0.5,0.1,1.3,0.2,1.8l-0.4,0.1c-0.2-0.9-0.6-1.3-1.1-1.5c-0.3-0.1-0.7-0.1-1-0.1c-1.6,0-2.4,1.3-2.4,3.1
				c0,2,1,3.4,2.5,3.4c0.9,0,1.5-0.5,2.1-1.7L221.6,170.3L221.6,170.3z"/>
			<path class="st0" d="M222.6,172.2v-0.4c0.8-0.1,0.9-0.1,0.9-1.1v-4.2c0-0.9-0.1-1-0.9-1.1v-0.4h3.4v0.4c-0.8,0.1-0.9,0.1-0.9,1.1
				v4.2c0,0.9,0.1,1,0.9,1.1v0.4H222.6z"/>
			<path class="st0" d="M232.9,170.4c-0.1,0.3-0.4,1.6-0.5,1.9h-5.7v-0.4c1-0.1,1.1-0.1,1.1-1.1v-4.2c0-0.9-0.1-1-0.9-1.1v-0.4h3.6
				c1.2,0,1.5,0,1.7,0c0,0.2,0.1,1.1,0.1,1.8l-0.4,0.1c-0.1-0.4-0.3-0.8-0.5-1c-0.2-0.2-0.3-0.3-0.9-0.3h-0.7c-0.4,0-0.5,0-0.5,0.4
				v2.3h1.1c0.6,0,0.7-0.2,0.9-0.9h0.4v2.5h-0.4c-0.2-0.8-0.3-0.9-0.9-0.9h-1.1v1.9c0,0.8,0,1,0.7,1h0.8c0.6,0,0.8-0.1,1-0.4
				c0.3-0.3,0.5-0.7,0.7-1.1L232.9,170.4L232.9,170.4z"/>
			<path class="st0" d="M241.3,165.5c-0.7,0.1-0.9,0.2-0.9,0.7c0,0.4-0.1,0.8-0.1,1.8v4.4h-0.6l-4.6-5.5v2.5c0,1,0,1.4,0.1,1.7
				c0,0.5,0.3,0.7,1.1,0.8v0.4h-2.7v-0.4c0.6-0.1,0.9-0.2,1-0.7c0-0.4,0.1-0.8,0.1-1.8v-2.6c0-0.4,0-0.6-0.2-0.9
				c-0.2-0.3-0.5-0.3-0.9-0.4v-0.4h2.1l4.2,4.9v-2c0-1,0-1.3,0-1.7c0-0.5-0.2-0.7-1.1-0.8v-0.4h2.7L241.3,165.5L241.3,165.5z"/>
			<path class="st0" d="M248.8,170.3c-0.1,0.6-0.4,1.4-0.6,1.8c-0.3,0.1-1.2,0.3-2,0.3c-3,0-4.2-1.9-4.2-3.7c0-2.3,1.7-3.8,4.4-3.8
				c1,0,1.8,0.2,2.1,0.3c0.1,0.5,0.1,1.3,0.2,1.8l-0.4,0.1c-0.2-0.9-0.6-1.3-1.1-1.5c-0.3-0.1-0.7-0.1-1-0.1c-1.6,0-2.4,1.3-2.4,3.1
				c0,2,1,3.4,2.5,3.4c0.9,0,1.5-0.5,2.1-1.7L248.8,170.3L248.8,170.3z"/>
			<path class="st0" d="M255.8,170.4c-0.1,0.3-0.4,1.6-0.5,1.9h-5.7v-0.4c1-0.1,1.1-0.1,1.1-1.1v-4.2c0-0.9-0.1-1-0.9-1.1v-0.4h3.6
				c1.2,0,1.5,0,1.7,0c0,0.2,0.1,1.1,0.1,1.8l-0.4,0.1c-0.1-0.4-0.3-0.8-0.5-1c-0.2-0.2-0.3-0.3-0.9-0.3h-0.7c-0.4,0-0.5,0-0.5,0.4
				v2.3h1.1c0.6,0,0.7-0.2,0.9-0.9h0.4v2.5h-0.4c-0.2-0.8-0.3-0.9-0.9-0.9h-1.1v1.9c0,0.8,0,1,0.7,1h0.8c0.6,0,0.8-0.1,1-0.4
				c0.3-0.3,0.5-0.7,0.7-1.1L255.8,170.4L255.8,170.4z"/>
			<path class="st0" d="M266.5,167.9c-0.7,0.1-0.8,0.2-1.2,0.7c-0.3,0.4-0.6,0.8-1,1.3c0.7,0.7,1.5,1.6,2,2.3l0,0.1
				c-1.1,0-1.8-0.2-1.9-0.4c-0.1-0.1-0.5-0.5-0.9-0.9c-0.7,0.9-1.4,1.3-2.2,1.3c-1.5,0-2.3-1.1-2.3-2.1s0.5-1.3,1.6-2
				c-0.4-0.4-0.8-0.9-0.8-1.6c0-1,0.9-1.9,2-1.9s1.9,0.7,1.9,1.6c0,0.4-0.2,0.7-0.5,0.9c-0.3,0.2-0.5,0.4-0.9,0.6
				c0.3,0.2,1,0.9,1.7,1.6c0.2-0.3,0.4-0.6,0.6-0.9c0.2-0.5,0.2-0.7-0.6-0.7v-0.4h2.5L266.5,167.9L266.5,167.9z M261.7,171.4
				c0.5,0,1-0.3,1.3-0.6c-0.8-0.8-1.3-1.3-2.2-2.1c-0.4,0.3-0.5,0.6-0.5,1.2C260.3,170.9,261,171.4,261.7,171.4L261.7,171.4z
				 M261.6,165.4c-0.5,0-0.8,0.4-0.8,0.9c0,0.6,0.2,0.9,1,1.4c0.4-0.3,0.6-0.6,0.6-1.3C262.5,165.9,262.2,165.4,261.6,165.4z"/>
			<path class="st0" d="M273.7,166.9c-0.2-0.7-0.5-1.5-1.5-1.5c-0.6,0-1.1,0.4-1.1,1.1s0.4,1,1.4,1.4c1.2,0.6,1.9,1.2,1.9,2.2
				c0,1.3-1.1,2.2-2.6,2.2c-0.7,0-1.3-0.2-1.9-0.3c-0.1-0.2-0.2-1.4-0.3-1.9l0.4-0.1c0.2,0.7,0.8,1.9,1.9,1.9c0.7,0,1.1-0.4,1.1-1.1
				c0-0.6-0.4-1-1.3-1.5c-1.1-0.6-1.9-1.2-1.9-2.3s0.9-2.1,2.6-2.1c0.8,0,1.3,0.2,1.6,0.2c0,0.4,0.1,1,0.2,1.7L273.7,166.9
				L273.7,166.9z"/>
			<path class="st0" d="M279.1,164.9c2,0,3.7,1.5,3.7,3.7c0,2.4-1.7,3.8-3.8,3.8c-2.2,0-3.8-1.6-3.8-3.7
				C275.3,166.8,276.6,164.9,279.1,164.9L279.1,164.9z M279,165.4c-1.1,0-2,1.1-2,3.1s0.7,3.5,2.2,3.5c1,0,1.9-1,1.9-3
				C281.1,166.7,280.3,165.4,279,165.4L279,165.4z"/>
			<path class="st0" d="M290.8,170.3c-0.1,0.6-0.4,1.4-0.6,1.8c-0.3,0.1-1.2,0.3-2,0.3c-3,0-4.2-1.9-4.2-3.7c0-2.3,1.7-3.8,4.4-3.8
				c1,0,1.8,0.2,2.1,0.3c0,0.5,0.1,1.3,0.2,1.8l-0.4,0.1c-0.2-0.9-0.6-1.3-1.1-1.5c-0.3-0.1-0.7-0.1-1-0.1c-1.6,0-2.4,1.3-2.4,3.1
				c0,2,1,3.4,2.5,3.4c0.9,0,1.5-0.5,2.1-1.7L290.8,170.3L290.8,170.3z"/>
			<path class="st0" d="M291.8,172.2v-0.4c0.8-0.1,0.9-0.1,0.9-1.1v-4.2c0-0.9-0.1-1-0.9-1.1v-0.4h3.4v0.4c-0.8,0.1-0.9,0.1-0.9,1.1
				v4.2c0,0.9,0.1,1,0.9,1.1v0.4H291.8z"/>
			<path class="st0" d="M302.1,170.4c-0.1,0.3-0.4,1.6-0.5,1.9H296v-0.4c1-0.1,1.1-0.1,1.1-1.1v-4.2c0-0.9-0.1-1-0.9-1.1v-0.4h3.6
				c1.2,0,1.5,0,1.7,0c0,0.2,0.1,1.1,0.1,1.8l-0.4,0.1c-0.1-0.4-0.3-0.8-0.5-1c-0.2-0.2-0.3-0.3-0.9-0.3H299c-0.4,0-0.5,0-0.5,0.4
				v2.3h1.1c0.6,0,0.7-0.2,0.9-0.9h0.4v2.5h-0.4c-0.2-0.8-0.3-0.9-0.9-0.9h-1.1v1.9c0,0.8,0,1,0.7,1h0.8c0.6,0,0.8-0.1,1-0.4
				c0.3-0.3,0.5-0.7,0.7-1.1L302.1,170.4L302.1,170.4z"/>
			<path class="st0" d="M308.7,167c-0.1-0.5-0.4-0.9-0.5-1.1c-0.2-0.2-0.3-0.3-0.9-0.3h-0.7v5.2c0,0.9,0.1,1,1.1,1.1v0.4H304v-0.4
				c0.9-0.1,1-0.1,1-1.1v-5.2h-0.7c-0.6,0-0.8,0.1-1,0.4c-0.1,0.2-0.3,0.6-0.5,1.1h-0.4c0.1-0.8,0.1-1.7,0.2-2.2h0.3
				c0.2,0.2,0.3,0.3,0.6,0.3h4.4c0.3,0,0.5-0.1,0.6-0.3h0.3c0,0.5,0.1,1.4,0.1,2.1L308.7,167L308.7,167z"/>
			<path class="st0" d="M316.9,165.5c-0.7,0.1-1,0.2-1.4,0.9c-0.4,0.7-0.7,1.3-1.3,2.4c-0.1,0.2-0.1,0.3-0.1,0.6v1.4
				c0,1,0.1,1,1,1.1v0.4h-3.5v-0.4c0.9-0.1,1-0.1,1-1.1v-1.3c0-0.2,0-0.4-0.1-0.5c-0.3-0.6-0.7-1.4-1.4-2.5
				c-0.4-0.7-0.6-0.9-1.2-0.9v-0.4h3.2v0.4c-0.7,0.1-0.7,0.2-0.5,0.6c0.4,0.7,0.8,1.6,1.3,2.4c0.3-0.6,0.9-1.7,1.2-2.4
				c0.2-0.4,0.1-0.6-0.7-0.7v-0.4h2.6L316.9,165.5L316.9,165.5z"/>
		</g>
	</g>
</g>
</svg>
