<?xml version="1.0" encoding="UTF-8"?>
<svg xmlns="http://www.w3.org/2000/svg" xmlns:xlink="http://www.w3.org/1999/xlink" viewBox="0 0 324.06 176.23">
  <defs>
    <style>
      .cls-1 {
        fill: none;
      }

      .cls-2 {
        letter-spacing: .01em;
      }

      .cls-3 {
        letter-spacing: .03em;
      }

      .cls-4 {
        letter-spacing: .04em;
      }

      .cls-5 {
        letter-spacing: .02em;
      }

      .cls-6 {
        letter-spacing: .02em;
      }

      .cls-7 {
        clip-path: url(#clippath);
      }

      .cls-8 {
        letter-spacing: 0em;
      }

      .cls-9 {
        letter-spacing: 0em;
      }

      .cls-10 {
        letter-spacing: .02em;
      }

      .cls-11, .cls-12 {
        fill: #010101;
      }

      .cls-13 {
        fill: #e6e7e8;
      }

      .cls-14 {
        fill: #fff;
      }

      .cls-15, .cls-16, .cls-17 {
        fill: #a11d21;
      }

      .cls-18 {
        fill: #939598;
      }

      .cls-19 {
        letter-spacing: 0em;
      }

      .cls-20 {
        letter-spacing: .01em;
      }

      .cls-21 {
        letter-spacing: .01em;
      }

      .cls-22 {
        letter-spacing: .02em;
      }

      .cls-23 {
        letter-spacing: .04em;
      }

      .cls-24 {
        letter-spacing: .02em;
      }

      .cls-25 {
        letter-spacing: 0em;
      }

      .cls-26 {
        letter-spacing: .02em;
      }

      .cls-27 {
        letter-spacing: -.04em;
      }

      .cls-28 {
        letter-spacing: 0em;
      }

      .cls-16 {
        font-size: 14.01px;
      }

      .cls-16, .cls-17 {
        font-family: MinionConceptRoman-Bold, 'Minion Variable Concept';
        font-variation-settings: 'wght' 700, 'opsz' 11;
        font-weight: 700;
      }

      .cls-29 {
        letter-spacing: .03em;
      }

      .cls-30 {
        letter-spacing: .03em;
      }

      .cls-31 {
        letter-spacing: 0em;
      }

      .cls-32 {
        letter-spacing: .03em;
      }

      .cls-33 {
        letter-spacing: 0em;
      }

      .cls-34 {
        letter-spacing: 0em;
      }

      .cls-35 {
        letter-spacing: -.01em;
      }

      .cls-36 {
        letter-spacing: .06em;
      }

      .cls-37 {
        letter-spacing: .06em;
      }

      .cls-38 {
        letter-spacing: .06em;
      }

      .cls-39 {
        letter-spacing: .06em;
      }

      .cls-17 {
        font-size: 11.02px;
      }

      .cls-40 {
        letter-spacing: .02em;
      }

      .cls-41 {
        letter-spacing: 0em;
      }

      .cls-42 {
        letter-spacing: 0em;
      }

      .cls-43 {
        letter-spacing: 0em;
      }

      .cls-44 {
        letter-spacing: 0em;
      }

      .cls-45 {
        letter-spacing: 0em;
      }

      .cls-46 {
        letter-spacing: 0em;
      }

      .cls-47 {
        letter-spacing: .02em;
      }

      .cls-48 {
        mix-blend-mode: darken;
        opacity: .41;
      }

      .cls-49, .cls-12 {
        opacity: .78;
      }

      .cls-50 {
        letter-spacing: -.1em;
      }

      .cls-51 {
        letter-spacing: 0em;
      }

      .cls-52 {
        isolation: isolate;
      }

      .cls-53 {
        letter-spacing: .03em;
      }

      .cls-54 {
        letter-spacing: 0em;
      }

      .cls-55 {
        letter-spacing: 0em;
      }

      .cls-56 {
        letter-spacing: -.03em;
      }

      .cls-57 {
        letter-spacing: -.03em;
      }

      .cls-58 {
        letter-spacing: 0em;
      }

      .cls-59 {
        letter-spacing: 0em;
      }

      .cls-60 {
        letter-spacing: 0em;
      }

      .cls-61 {
        letter-spacing: .01em;
      }

      .cls-62 {
        letter-spacing: .02em;
      }

      .cls-63 {
        letter-spacing: .08em;
      }

      .cls-64 {
        letter-spacing: 0em;
      }

      .cls-65 {
        letter-spacing: 0em;
      }
    </style>
    <clipPath id="clippath">
      <rect class="cls-1" x="117.69" y="35.04" width="88.41" height="123.67"/>
    </clipPath>
  </defs>
  <g class="cls-52">
    <g id="Layer_1" data-name="Layer 1">
      <text class="cls-16" transform="translate(0 11.56)"><tspan class="cls-64" x="0" y="0">TH</tspan><tspan x="20.44" y="0">E </tspan><tspan class="cls-62" x="32.05" y="0">R</tspan><tspan class="cls-40" x="41.45" y="0">E</tspan><tspan x="50.17" y="0">S</tspan><tspan class="cls-39" x="57.41" y="0">E</tspan><tspan class="cls-6" x="66.77" y="0">A</tspan><tspan class="cls-61" x="75.78" y="0">R</tspan><tspan class="cls-9" x="85.09" y="0">C</tspan><tspan x="94.99" y="0">H </tspan><tspan class="cls-9" x="109.27" y="0">C</tspan><tspan class="cls-56" x="119.17" y="0">L</tspan><tspan class="cls-28" x="126.93" y="0">U</tspan><tspan class="cls-55" x="137.16" y="0">S</tspan><tspan class="cls-64" x="144.4" y="0">T</tspan><tspan x="153.58" y="0">ER </tspan><tspan class="cls-65" x="174.33" y="0">FO</tspan><tspan x="193.24" y="0">R </tspan><tspan class="cls-65" x="205.47" y="0">TH</tspan><tspan class="cls-54" x="225.9" y="0">E </tspan><tspan class="cls-65" x="237.51" y="0">H</tspan><tspan class="cls-34" x="248.76" y="0">IS</tspan><tspan class="cls-43" x="261.45" y="0">TO</tspan><tspan class="cls-26" x="281.5" y="0">R</tspan><tspan class="cls-43" x="290.89" y="0">I</tspan><tspan class="cls-4" x="296.41" y="0">C</tspan><tspan class="cls-3" x="306.83" y="0">A</tspan><tspan x="315.84" y="0">L</tspan><tspan x="13.05" y="16.81">S</tspan><tspan class="cls-29" x="20.29" y="16.81">T</tspan><tspan class="cls-64" x="29.79" y="16.81">U</tspan><tspan x="40" y="16.81">DY </tspan><tspan class="cls-64" x="61.81" y="16.81">O</tspan><tspan x="72.66" y="16.81">F </tspan><tspan class="cls-63" x="83.74" y="16.81">R</tspan><tspan class="cls-10" x="93.94" y="16.81">A</tspan><tspan class="cls-9" x="102.82" y="16.81">C</tspan><tspan class="cls-47" x="112.72" y="16.81">E</tspan><tspan x="121.56" y="16.81">, </tspan><tspan class="cls-64" x="128.25" y="16.81">I</tspan><tspan class="cls-45" x="133.77" y="16.81">N</tspan><tspan class="cls-21" x="144.4" y="16.81">E</tspan><tspan class="cls-40" x="153.06" y="16.81">Q</tspan><tspan class="cls-35" x="164.05" y="16.81">U</tspan><tspan class="cls-5" x="174" y="16.81">A</tspan><tspan class="cls-51" x="183.01" y="16.81">L</tspan><tspan class="cls-20" x="191.09" y="16.81">I</tspan><tspan class="cls-36" x="196.68" y="16.81">T</tspan><tspan class="cls-27" x="206.65" y="16.81">Y</tspan><tspan x="214.06" y="16.81">, </tspan><tspan class="cls-5" x="220.75" y="16.81">A</tspan><tspan class="cls-25" x="229.76" y="16.81">N</tspan><tspan class="cls-54" x="240.39" y="16.81">D </tspan><tspan class="cls-65" x="254.2" y="16.81">H</tspan><tspan class="cls-38" x="265.45" y="16.81">E</tspan><tspan class="cls-5" x="274.81" y="16.81">A</tspan><tspan class="cls-50" x="283.81" y="16.81">L</tspan><tspan class="cls-65" x="290.65" y="16.81">T</tspan><tspan x="299.84" y="16.81">H</tspan></text>
      <text class="cls-17" transform="translate(7.17 172.23)"><tspan class="cls-44" x="0" y="0">C</tspan><tspan class="cls-60" x="7.77" y="0">O</tspan><tspan class="cls-57" x="16.3" y="0">L</tspan><tspan class="cls-41" x="22.4" y="0">U</tspan><tspan x="30.34" y="0">M</tspan><tspan class="cls-58" x="40.27" y="0">B</tspan><tspan class="cls-22" x="47.33" y="0">I</tspan><tspan x="51.84" y="0">A </tspan><tspan class="cls-59" x="61.08" y="0">U</tspan><tspan class="cls-46" x="69.11" y="0">N</tspan><tspan class="cls-30" x="77.47" y="0">I</tspan><tspan class="cls-23" x="82.05" y="0">V</tspan><tspan x="89.47" y="0">E</tspan><tspan class="cls-32" x="96.16" y="0">R</tspan><tspan x="103.71" y="0">S</tspan><tspan class="cls-33" x="109.4" y="0">I</tspan><tspan class="cls-37" x="113.8" y="0">T</tspan><tspan x="121.64" y="0">Y </tspan><tspan class="cls-8" x="130.37" y="0">C</tspan><tspan x="138.15" y="0">E</tspan><tspan class="cls-53" x="144.85" y="0">N</tspan><tspan class="cls-59" x="153.43" y="0">T</tspan><tspan x="160.66" y="0">ER </tspan><tspan class="cls-42" x="176.97" y="0">FO</tspan><tspan x="191.84" y="0">R S</tspan><tspan class="cls-31" x="207.15" y="0">C</tspan><tspan class="cls-60" x="214.94" y="0">I</tspan><tspan x="219.28" y="0">E</tspan><tspan class="cls-2" x="225.98" y="0">N</tspan><tspan class="cls-31" x="234.37" y="0">C</tspan><tspan x="242.16" y="0">E &amp; S</tspan><tspan class="cls-24" x="267.66" y="0">O</tspan><tspan class="cls-8" x="276.36" y="0">C</tspan><tspan class="cls-60" x="284.15" y="0">I</tspan><tspan class="cls-19" x="288.49" y="0">E</tspan><tspan class="cls-37" x="295.09" y="0">T</tspan><tspan x="302.93" y="0">Y</tspan></text>
      <g>
        <g>
          <rect class="cls-15" x="117.83" y="34.62" width="88.41" height="123.67"/>
          <g class="cls-7">
            <g>
              <path class="cls-1" d="m148.15,74.09c.51.12,1.22-.62,2.24-1.21-.82-.87-1.38-1.89-1.8-1.83-.66.09-1.52.81-1.72,1.44-.13.39.72,1.47,1.29,1.6Z"/>
              <path class="cls-1" d="m174.5,72.47c.02.59.91,1.14,1.42,1.72.6-.57,1.52-1.05,1.68-1.72.11-.46-.82-1.18-1.53-2.09-.72.91-1.58,1.52-1.56,2.1Z"/>
              <g class="cls-48">
                <path class="cls-12" d="m160.16,144.45c1.54.26,2.72.46,4.04.69v-6.86c-1.38-.4-2.76-.8-4.4-1.29.14,2.9.26,5.18.37,7.46Z"/>
                <path class="cls-13" d="m160.16,146.45c1.54.26,2.72.46,4.04.69v-6.86c-1.38-.4-2.76-.8-4.4-1.29.14,2.9.26,5.18.37,7.46Z"/>
                <path class="cls-18" d="m160.16,145.45c1.54.26,2.72.46,4.04.69v-6.86c-1.38-.4-2.76-.8-4.4-1.29.14,2.9.26,5.18.37,7.46Z"/>
              </g>
              <g class="cls-48">
                <path class="cls-12" d="m171.05,39.02c-3.81-4.78-10.82-5.33-15.23-1.18-4.32,4.06-4.56,11.41.21,14.95,2.89,2.15,3.29,4.49,3.26,7.49-.02,1.91.13,3.82.16,5.73.19,10.39.35,20.77.59,31.16.02.84.38,2.1.99,2.42,1.41.75,3.07,1.05,4.95,1.63,0-1.31-.01-2.29,0-3.27.19-13.38.42-26.75.55-40.13.02-1.82.46-2.93,2.12-3.98,5.08-3.21,6.1-10.18,2.4-14.82Z"/>
                <path class="cls-13" d="m171.05,41.02c-3.81-4.78-10.82-5.33-15.23-1.18-4.32,4.06-4.56,11.41.21,14.95,2.89,2.15,3.29,4.49,3.26,7.49-.02,1.91.13,3.82.16,5.73.19,10.39.35,20.77.59,31.16.02.84.38,2.1.99,2.42,1.41.75,3.07,1.05,4.95,1.63,0-1.31-.01-2.29,0-3.27.19-13.38.42-26.75.55-40.13.02-1.82.46-2.93,2.12-3.98,5.08-3.21,6.1-10.18,2.4-14.82Z"/>
                <path class="cls-18" d="m171.05,40.02c-3.81-4.78-10.82-5.33-15.23-1.18-4.32,4.06-4.56,11.41.21,14.95,2.89,2.15,3.29,4.49,3.26,7.49-.02,1.91.13,3.82.16,5.73.19,10.39.35,20.77.59,31.16.02.84.38,2.1.99,2.42,1.41.75,3.07,1.05,4.95,1.63,0-1.31-.01-2.29,0-3.27.19-13.38.42-26.75.55-40.13.02-1.82.46-2.93,2.12-3.98,5.08-3.21,6.1-10.18,2.4-14.82Z"/>
              </g>
              <g class="cls-48">
                <path class="cls-12" d="m157.43,155.68c.2-.16.4-.33.6-.49-2.81-.66-5.61-1.33-8.58-2.02-.25,1.51-.32,2.88-.21,4.12h9.02c-.28-.53-.53-1.11-.83-1.61Z"/>
                <path class="cls-13" d="m157.43,157.68c.2-.16.4-.33.6-.49-2.81-.66-5.61-1.33-8.58-2.02-.25,1.51-.32,2.88-.21,4.12h9.02c-.28-.53-.53-1.11-.83-1.61Z"/>
                <path class="cls-18" d="m157.43,156.68c.2-.16.4-.33.6-.49-2.81-.66-5.61-1.33-8.58-2.02-.25,1.51-.32,2.88-.21,4.12h9.02c-.28-.53-.53-1.11-.83-1.61Z"/>
              </g>
              <g class="cls-48">
                <path class="cls-12" d="m175.44,154.74c-.34-3.68-2.95-5.42-6.03-6.54-1.93-.7-3.99-1.05-5.98-1.6-2.78-.77-5.66-1.34-8.3-2.44-3.09-1.29-3.16-3.37-.4-5.34,1.13-.81,2.39-1.43,3.98-2.37-3.3-1.16-6.24-2.25-9.23-3.22-.6-.19-1.62-.17-2,.2-4.8,4.72-6.39,13.16,1.46,17.02,2.63,1.29,5.63,1.86,8.49,2.65,2.63.72,5.35,1.14,7.92,1.99,1.51.5,1.88,1.24,1.28,2.19h8.73c.14-.8.17-1.65.09-2.55Z"/>
                <path class="cls-13" d="m175.44,156.74c-.34-3.68-2.95-5.42-6.03-6.54-1.93-.7-3.99-1.05-5.98-1.6-2.78-.77-5.66-1.34-8.3-2.44-3.09-1.29-3.16-3.37-.4-5.34,1.13-.81,2.39-1.43,3.98-2.37-3.3-1.16-6.24-2.25-9.23-3.22-.6-.19-1.62-.17-2,.2-4.8,4.72-6.39,13.16,1.46,17.02,2.63,1.29,5.63,1.86,8.49,2.65,2.63.72,5.35,1.14,7.92,1.99,1.51.5,1.88,1.24,1.28,2.19h8.73c.14-.8.17-1.65.09-2.55Z"/>
                <path class="cls-18" d="m175.44,155.74c-.34-3.68-2.95-5.42-6.03-6.54-1.93-.7-3.99-1.05-5.98-1.6-2.78-.77-5.66-1.34-8.3-2.44-3.09-1.29-3.16-3.37-.4-5.34,1.13-.81,2.39-1.43,3.98-2.37-3.3-1.16-6.24-2.25-9.23-3.22-.6-.19-1.62-.17-2,.2-4.8,4.72-6.39,13.16,1.46,17.02,2.63,1.29,5.63,1.86,8.49,2.65,2.63.72,5.35,1.14,7.92,1.99,1.51.5,1.88,1.24,1.28,2.19h8.73c.14-.8.17-1.65.09-2.55Z"/>
              </g>
              <g class="cls-48">
                <g class="cls-49">
                  <path class="cls-11" d="m192.84,97.01c9.77-11.99,3.39-23.96-5.69-29.5-2.64-1.61-5.78-2.57-8.54-1.02-3.42,1.92-6.66,4.34-9.51,7.02-2.13,2-1.36,4.16,1.51,4.66,3.57.62,7.24.94,10.86.92,5.13-.02,7.27,2.55,5.87,7.54-.98,3.51-3.39,5.96-6.32,7.73-4.38,2.65-9,4.9-13.48,7.3,3.79,1.38,7.81,2.89,11.88,4.28.68.23,1.66.08,2.32-.25,4.27-2.15,8.05-4.93,11.1-8.68Zm-16.92-23.82c-.51-.57-1.4-1.13-1.42-1.72-.02-.58.84-1.19,1.56-2.1.71.92,1.65,1.63,1.53,2.09-.16.67-1.08,1.16-1.68,1.72Z"/>
                </g>
                <path class="cls-13" d="m192.84,99.01c9.77-11.99,3.39-23.96-5.69-29.5-2.64-1.61-5.78-2.57-8.54-1.02-3.42,1.92-6.66,4.34-9.51,7.02-2.13,2-1.36,4.16,1.51,4.66,3.57.62,7.24.94,10.86.92,5.13-.02,7.27,2.55,5.87,7.54-.98,3.51-3.39,5.96-6.32,7.73-4.38,2.65-9,4.9-13.48,7.3,3.79,1.38,7.81,2.89,11.88,4.28.68.23,1.66.08,2.32-.25,4.27-2.15,8.05-4.93,11.1-8.68Zm-16.92-23.82c-.51-.57-1.4-1.13-1.42-1.72-.02-.58.84-1.19,1.56-2.1.71.92,1.65,1.63,1.53,2.09-.16.67-1.08,1.16-1.68,1.72Z"/>
                <path class="cls-18" d="m192.84,98.01c9.77-11.99,3.39-23.96-5.69-29.5-2.64-1.61-5.78-2.57-8.54-1.02-3.42,1.92-6.66,4.34-9.51,7.02-2.13,2-1.36,4.16,1.51,4.66,3.57.62,7.24.94,10.86.92,5.13-.02,7.27,2.55,5.87,7.54-.98,3.51-3.39,5.96-6.32,7.73-4.38,2.65-9,4.9-13.48,7.3,3.79,1.38,7.81,2.89,11.88,4.28.68.23,1.66.08,2.32-.25,4.27-2.15,8.05-4.93,11.1-8.68Zm-16.92-23.82c-.51-.57-1.4-1.13-1.42-1.72-.02-.58.84-1.19,1.56-2.1.71.92,1.65,1.63,1.53,2.09-.16.67-1.08,1.16-1.68,1.72Z"/>
              </g>
              <g class="cls-48">
                <g class="cls-49">
                  <path class="cls-11" d="m184.62,124c3.22-4.33,2.29-9.24-2.02-12.47-1.71-1.29-3.57-2.51-5.54-3.3-5-1.99-10.08-3.78-15.16-5.54-6.83-2.37-13.82-4.47-19.55-9.05-2.12-1.69-4.08-4.04-5.12-6.51-2.13-5.07.44-8.07,5.87-8.03,3.62.02,7.29-.34,10.86-.99,2.6-.47,3.22-2.48,1.42-4.43-1.95-2.11-4.24-3.96-6.56-5.67-4.22-3.09-8.52-2.67-12.73.16-11.06,7.43-12.51,20.55-3.4,30.23,5.42,5.76,12.31,8.94,19.67,11.25,7.19,2.26,14.47,4.25,21.65,6.53,1.08.34,2.42,1.49,2.62,2.47.15.74-1.14,2.16-2.11,2.67-2.71,1.41-5.58,2.5-8.66,3.83,3.65,1.56,7.06,3.01,10.47,4.47.15.07.31.2.46.19.54-.05,1.23.04,1.59-.26,2.16-1.78,4.63-3.36,6.26-5.56Zm-37.76-52.51c.21-.63,1.06-1.35,1.72-1.44.41-.06.98.96,1.8,1.83-1.01.59-1.72,1.33-2.24,1.21-.56-.13-1.41-1.21-1.29-1.6Z"/>
                </g>
                <path class="cls-13" d="m184.62,126c3.22-4.33,2.29-9.24-2.02-12.47-1.71-1.29-3.57-2.51-5.54-3.3-5-1.99-10.08-3.78-15.16-5.54-6.83-2.37-13.82-4.47-19.55-9.05-2.12-1.69-4.08-4.04-5.12-6.51-2.13-5.07.44-8.07,5.87-8.03,3.62.02,7.29-.34,10.86-.99,2.6-.47,3.22-2.48,1.42-4.43-1.95-2.11-4.24-3.96-6.56-5.67-4.22-3.09-8.52-2.67-12.73.16-11.06,7.43-12.51,20.55-3.4,30.23,5.42,5.76,12.31,8.94,19.67,11.25,7.19,2.26,14.47,4.25,21.65,6.53,1.08.34,2.42,1.49,2.62,2.47.15.74-1.14,2.16-2.11,2.67-2.71,1.41-5.58,2.5-8.66,3.83,3.65,1.56,7.06,3.01,10.47,4.47.15.07.31.2.46.19.54-.05,1.23.04,1.59-.26,2.16-1.78,4.63-3.36,6.26-5.56Zm-37.76-52.51c.21-.63,1.06-1.35,1.72-1.44.41-.06.98.96,1.8,1.83-1.01.59-1.72,1.33-2.24,1.21-.56-.13-1.41-1.21-1.29-1.6Z"/>
                <path class="cls-18" d="m184.62,125c3.22-4.33,2.29-9.24-2.02-12.47-1.71-1.29-3.57-2.51-5.54-3.3-5-1.99-10.08-3.78-15.16-5.54-6.83-2.37-13.82-4.47-19.55-9.05-2.12-1.69-4.08-4.04-5.12-6.51-2.13-5.07.44-8.07,5.87-8.03,3.62.02,7.29-.34,10.86-.99,2.6-.47,3.22-2.48,1.42-4.43-1.95-2.11-4.24-3.96-6.56-5.67-4.22-3.09-8.52-2.67-12.73.16-11.06,7.43-12.51,20.55-3.4,30.23,5.42,5.76,12.31,8.94,19.67,11.25,7.19,2.26,14.47,4.25,21.65,6.53,1.08.34,2.42,1.49,2.62,2.47.15.74-1.14,2.16-2.11,2.67-2.71,1.41-5.58,2.5-8.66,3.83,3.65,1.56,7.06,3.01,10.47,4.47.15.07.31.2.46.19.54-.05,1.23.04,1.59-.26,2.16-1.78,4.63-3.36,6.26-5.56Zm-37.76-52.51c.21-.63,1.06-1.35,1.72-1.44.41-.06.98.96,1.8,1.83-1.01.59-1.72,1.33-2.24,1.21-.56-.13-1.41-1.21-1.29-1.6Z"/>
              </g>
              <g class="cls-48">
                <path class="cls-12" d="m168.94,144.19c-.54.42-1.25.63-1.71.85,3.06,1.6,6.09,3.18,9.72,5.07.99-1.59,2.54-3.36,3.29-5.42,1.76-4.84-1.04-10.82-6.54-13.59-4.2-2.12-8.69-3.66-13.07-5.42-3.45-1.39-7.04-2.5-10.35-4.15-3.03-1.51-2.89-3.75.18-5.27,1.9-.94,3.99-1.51,6.17-2.31-3.73-1.22-7.32-2.39-10.9-3.56-.24-.08-.47-.18-.71-.21-.4-.05-.84-.16-1.21-.06-3.46.93-6.6,6.13-5.83,9.75,1.34,6.29,6.03,9.23,11.55,11.23,4.82,1.75,9.72,3.31,14.55,5.04,1.78.64,3.6,1.35,5.16,2.4,1.06.71,2.26,2.02,2.32,3.12.04.81-1.63,1.76-2.61,2.54Z"/>
                <path class="cls-13" d="m168.94,146.19c-.54.42-1.25.63-1.71.85,3.06,1.6,6.09,3.18,9.72,5.07.99-1.59,2.54-3.36,3.29-5.42,1.76-4.84-1.04-10.82-6.54-13.59-4.2-2.12-8.69-3.66-13.07-5.42-3.45-1.39-7.04-2.5-10.35-4.15-3.03-1.51-2.89-3.75.18-5.27,1.9-.94,3.99-1.51,6.17-2.31-3.73-1.22-7.32-2.39-10.9-3.56-.24-.08-.47-.18-.71-.21-.4-.05-.84-.16-1.21-.06-3.46.93-6.6,6.13-5.83,9.75,1.34,6.29,6.03,9.23,11.55,11.23,4.82,1.75,9.72,3.31,14.55,5.04,1.78.64,3.6,1.35,5.16,2.4,1.06.71,2.26,2.02,2.32,3.12.04.81-1.63,1.76-2.61,2.54Z"/>
                <path class="cls-18" d="m168.94,145.19c-.54.42-1.25.63-1.71.85,3.06,1.6,6.09,3.18,9.72,5.07.99-1.59,2.54-3.36,3.29-5.42,1.76-4.84-1.04-10.82-6.54-13.59-4.2-2.12-8.69-3.66-13.07-5.42-3.45-1.39-7.04-2.5-10.35-4.15-3.03-1.51-2.89-3.75.18-5.27,1.9-.94,3.99-1.51,6.17-2.31-3.73-1.22-7.32-2.39-10.9-3.56-.24-.08-.47-.18-.71-.21-.4-.05-.84-.16-1.21-.06-3.46.93-6.6,6.13-5.83,9.75,1.34,6.29,6.03,9.23,11.55,11.23,4.82,1.75,9.72,3.31,14.55,5.04,1.78.64,3.6,1.35,5.16,2.4,1.06.71,2.26,2.02,2.32,3.12.04.81-1.63,1.76-2.61,2.54Z"/>
              </g>
              <g class="cls-48">
                <path class="cls-12" d="m201.56,40.33c1.55.18,3.11.3,4.67.44v-7.15h-6.42c-.63.06-1.25.11-1.88.19-8.2,1.05-10.78,3.86-10.63,12.05.05,2.51-.88,4.53-2.61,6.23-3.4,3.34-7.58,4.93-12.4,5.36.63,2.35,2.24,3.75,4.27,4.58,5.85,2.39,10.79.21,15.44-3.61,1,1.79,1.88,3.29,2.69,4.82,2.35,4.48,4.38,9.16,7.1,13.4,1.36,2.11,2.85,4.16,4.44,6.13v-12.86c-3.66-4.62-7.32-9.23-10.96-13.84.26-.24.53-.47.79-.71,2.34,2.41,4.73,4.78,7.02,7.24,1.06,1.14,2.1,2.29,3.15,3.45v-7.88c-2.8-2.34-5.54-4.74-8.2-7.27,2.86,1.11,5.63,2.39,8.09,4.11.04.03.08.05.11.08v-5.68c-2.15-1.1-4.29-2.24-6.41-3.43.99-.15,1.92-.14,2.76.15,1.21.41,2.43.82,3.65,1.23v-4.59c-1.63-.41-3.25-.81-4.88-1.22l.21-1.24Z"/>
                <path class="cls-13" d="m201.56,42.33c1.55.18,3.11.3,4.67.44v-7.15h-6.42c-.63.06-1.25.11-1.88.19-8.2,1.05-10.78,3.86-10.63,12.05.05,2.51-.88,4.53-2.61,6.23-3.4,3.34-7.58,4.93-12.4,5.36.63,2.35,2.24,3.75,4.27,4.58,5.85,2.39,10.79.21,15.44-3.61,1,1.79,1.88,3.29,2.69,4.82,2.35,4.48,4.38,9.16,7.1,13.4,1.36,2.11,2.85,4.16,4.44,6.13v-12.86c-3.66-4.62-7.32-9.23-10.96-13.84.26-.24.53-.47.79-.71,2.34,2.41,4.73,4.78,7.02,7.24,1.06,1.14,2.1,2.29,3.15,3.45v-7.88c-2.8-2.34-5.54-4.74-8.2-7.27,2.86,1.11,5.63,2.39,8.09,4.11.04.03.08.05.11.08v-5.68c-2.15-1.1-4.29-2.24-6.41-3.43.99-.15,1.92-.14,2.76.15,1.21.41,2.43.82,3.65,1.23v-4.59c-1.63-.41-3.25-.81-4.88-1.22l.21-1.24Z"/>
                <path class="cls-18" d="m201.56,41.33c1.55.18,3.11.3,4.67.44v-7.15h-6.42c-.63.06-1.25.11-1.88.19-8.2,1.05-10.78,3.86-10.63,12.05.05,2.51-.88,4.53-2.61,6.23-3.4,3.34-7.58,4.93-12.4,5.36.63,2.35,2.24,3.75,4.27,4.58,5.85,2.39,10.79.21,15.44-3.61,1,1.79,1.88,3.29,2.69,4.82,2.35,4.48,4.38,9.16,7.1,13.4,1.36,2.11,2.85,4.16,4.44,6.13v-12.86c-3.66-4.62-7.32-9.23-10.96-13.84.26-.24.53-.47.79-.71,2.34,2.41,4.73,4.78,7.02,7.24,1.06,1.14,2.1,2.29,3.15,3.45v-7.88c-2.8-2.34-5.54-4.74-8.2-7.27,2.86,1.11,5.63,2.39,8.09,4.11.04.03.08.05.11.08v-5.68c-2.15-1.1-4.29-2.24-6.41-3.43.99-.15,1.92-.14,2.76.15,1.21.41,2.43.82,3.65,1.23v-4.59c-1.63-.41-3.25-.81-4.88-1.22l.21-1.24Z"/>
              </g>
              <g class="cls-48">
                <path class="cls-12" d="m117.83,83.69c.09-.13.18-.25.26-.37,3.83-6,7.21-12.29,10.74-18.48,1.18-2.08,2.29-4.2,3.43-6.31,9.66,6.15,18.24,5.59,19.54-1.11-4.52-.41-8.66-2.06-11.54-4.72-2.38-2.2-3.7-4.74-3.1-8.19.79-4.5-.93-7.78-5.36-9.13-2.67-.81-5.48-1.44-8.29-1.75h-5.68v7.17c1.66-.15,3.33-.26,4.98-.45.07.4.13.81.2,1.21-1.72.43-3.45.86-5.18,1.29v4.44c.08-.03.15-.06.23-.09,1.97-.8,4.15-1.1,6.24-1.63.08.26.16.52.24.78-2.22,1.19-4.45,2.34-6.71,3.45v5.63c.84-.6,1.69-1.2,2.54-1.8,1.77-1.23,3.9-1.96,5.86-2.92.21.35.42.69.64,1.04-3.01,2.28-6.02,4.55-9.03,6.83v7.88c1.85-2.1,3.7-4.2,5.59-6.26,1.51-1.65,3.23-3.1,4.86-4.64.19.18.38.37.56.55-3.39,4.93-7.19,9.55-11.02,14.17v13.41Z"/>
                <path class="cls-13" d="m117.83,85.69c.09-.13.18-.25.26-.37,3.83-6,7.21-12.29,10.74-18.48,1.18-2.08,2.29-4.2,3.43-6.31,9.66,6.15,18.24,5.59,19.54-1.11-4.52-.41-8.66-2.06-11.54-4.72-2.38-2.2-3.7-4.74-3.1-8.19.79-4.5-.93-7.78-5.36-9.13-2.67-.81-5.48-1.44-8.29-1.75h-5.68v7.17c1.66-.15,3.33-.26,4.98-.45.07.4.13.81.2,1.21-1.72.43-3.45.86-5.18,1.29v4.44c.08-.03.15-.06.23-.09,1.97-.8,4.15-1.1,6.24-1.63.08.26.16.52.24.78-2.22,1.19-4.45,2.34-6.71,3.45v5.63c.84-.6,1.69-1.2,2.54-1.8,1.77-1.23,3.9-1.96,5.86-2.92.21.35.42.69.64,1.04-3.01,2.28-6.02,4.55-9.03,6.83v7.88c1.85-2.1,3.7-4.2,5.59-6.26,1.51-1.65,3.23-3.1,4.86-4.64.19.18.38.37.56.55-3.39,4.93-7.19,9.55-11.02,14.17v13.41Z"/>
                <path class="cls-18" d="m117.83,84.69c.09-.13.18-.25.26-.37,3.83-6,7.21-12.29,10.74-18.48,1.18-2.08,2.29-4.2,3.43-6.31,9.66,6.15,18.24,5.59,19.54-1.11-4.52-.41-8.66-2.06-11.54-4.72-2.38-2.2-3.7-4.74-3.1-8.19.79-4.5-.93-7.78-5.36-9.13-2.67-.81-5.48-1.44-8.29-1.75h-5.68v7.17c1.66-.15,3.33-.26,4.98-.45.07.4.13.81.2,1.21-1.72.43-3.45.86-5.18,1.29v4.44c.08-.03.15-.06.23-.09,1.97-.8,4.15-1.1,6.24-1.63.08.26.16.52.24.78-2.22,1.19-4.45,2.34-6.71,3.45v5.63c.84-.6,1.69-1.2,2.54-1.8,1.77-1.23,3.9-1.96,5.86-2.92.21.35.42.69.64,1.04-3.01,2.28-6.02,4.55-9.03,6.83v7.88c1.85-2.1,3.7-4.2,5.59-6.26,1.51-1.65,3.23-3.1,4.86-4.64.19.18.38.37.56.55-3.39,4.93-7.19,9.55-11.02,14.17v13.41Z"/>
              </g>
            </g>
          </g>
          <path class="cls-14" d="m150.62,125.64v-2.56c7.5-.82,8.24-1.19,8.24-8.97v-36.33c0-7.87-.73-8.24-8.24-9.06v-2.56h24.52v2.56c-7.59.82-8.33,1.19-8.33,9.06v36.33c0,7.87.73,8.14,8.33,8.97v2.56h-24.52Z"/>
        </g>
        <g>
          <rect class="cls-15" x="15.83" y="34.62" width="88.41" height="123.67"/>
          <path class="cls-14" d="m89.72,126.37c-1.19,0-2.2-.09-3.39-.18-6.68-.46-10.25-2.2-14.28-7.87-3.39-4.67-6.68-10.43-9.61-15.1-1.83-2.93-3.02-3.48-7.69-3.48h-3.2v14.37c0,7.78,1.01,8.24,8.33,8.97v2.56h-24.43v-2.56c7.6-.82,8.24-1.19,8.24-8.97v-36.51c0-7.78-1.01-8.05-8.24-8.88v-2.56h23.33c6.68,0,11.16.82,14.64,3.11,3.75,2.38,6.22,6.5,6.22,12.08,0,7.87-5.03,12.81-11.8,15.74,1.65,2.84,5.58,8.97,8.33,13.09,3.39,4.85,5.12,7.14,7.23,9.43,2.47,2.65,4.58,3.66,6.68,4.21l-.37,2.56Zm-33.77-29.74c4.76,0,7.78-.73,10.07-2.65,3.57-2.65,5.03-6.31,5.03-11.26,0-9.79-6.5-13.36-13.54-13.36-2.65,0-4.21.37-4.85.92-.82.64-1.1,1.56-1.1,3.94v22.42h4.39Z"/>
        </g>
        <g>
          <rect class="cls-15" x="219.83" y="34.62" width="88.41" height="123.67"/>
          <path class="cls-14" d="m297.06,68.72c-7.59.73-8.33,1.19-8.33,8.88v36.69c0,7.69.82,7.96,8.33,8.78v2.56h-24.52v-2.56c7.59-.92,8.33-1.1,8.33-8.78v-18.3h-31.3v18.3c0,7.59.73,7.87,8.24,8.78v2.56h-24.43v-2.56c7.41-.82,8.24-1.1,8.24-8.78v-36.69c0-7.69-.82-8.14-8.24-8.88v-2.56h24.43v2.56c-7.32.64-8.24,1.28-8.24,8.88v14.55h31.3v-14.55c0-7.6-1.01-8.24-8.33-8.88v-2.56h24.52v2.56Z"/>
        </g>
      </g>
      <g>
        <path class="cls-15" d="m8.24,4.87c-.15-.64-.46-1.18-.6-1.37-.25-.29-.36-.41-1.19-.41h-.9v6.58c0,1.18.14,1.26,1.39,1.36v.52H2.28v-.52c1.19-.1,1.32-.18,1.32-1.36V3.1h-.85c-.78,0-1.01.13-1.27.46-.2.27-.39.77-.57,1.33H.36c.1-1.02.2-2.12.22-2.79h.42c.21.32.38.35.8.35h5.6c.38,0,.57-.08.81-.35h.41c.01.59.07,1.82.14,2.73l-.53.04Z"/>
        <path class="cls-15" d="m19.81,2.97c-1.09.11-1.19.2-1.19,1.36v5.37c0,1.16.11,1.25,1.19,1.34v.52h-4.33v-.52c1.11-.14,1.19-.18,1.19-1.34v-2.63h-3.78v2.63c0,1.16.13,1.23,1.18,1.34v.52h-4.31v-.52c1.04-.11,1.19-.18,1.19-1.34v-5.37c0-1.16-.13-1.27-1.19-1.36v-.52h4.31v.52c-1.06.1-1.18.2-1.18,1.36v2h3.78v-2c0-1.16-.14-1.25-1.19-1.36v-.52h4.33v.52Z"/>
        <path class="cls-15" d="m28.69,9.17c-.07.38-.46,1.99-.59,2.38h-7.27v-.5c1.27-.13,1.36-.2,1.36-1.37v-5.35c0-1.19-.17-1.27-1.12-1.36v-.52h4.55c1.47,0,1.96-.01,2.16-.03.01.25.08,1.4.14,2.27l-.55.07c-.13-.48-.36-1.05-.6-1.3-.25-.28-.43-.36-1.15-.36h-.91c-.53,0-.59.03-.59.5v2.93h1.37c.78,0,.92-.21,1.13-1.2h.55v3.12h-.55c-.22-1.04-.34-1.2-1.15-1.2h-1.36v2.41c0,.97.03,1.26.9,1.27h.99c.78,0,.99-.1,1.3-.48.35-.41.63-.92.85-1.4l.52.13Z"/>
        <path class="cls-15" d="m41.42,11.64c-.08,0-.25,0-.42-.01-1.78-.08-2.3-.46-2.72-1.05-.56-.77-.97-1.62-1.44-2.47-.21-.38-.41-.46-.85-.46h-.28s0,2.03,0,2.03c0,1.13.14,1.23,1.19,1.36v.52h-4.29v-.52c1.06-.11,1.19-.22,1.19-1.36v-5.36c0-1.11-.14-1.26-1.19-1.34v-.52h4.06c1.25,0,1.96.14,2.54.53.56.38.94.99.94,1.86,0,1.25-.83,1.9-1.75,2.27.21.42.76,1.33,1.18,1.98.49.77.8,1.15,1.06,1.46.32.36.48.48.88.62l-.1.48Zm-5.34-4.58c.6,0,1.06-.1,1.37-.36.46-.39.66-.92.66-1.64,0-1.48-.85-2.02-1.64-2.02-.38,0-.56.06-.64.14-.1.08-.13.25-.13.53v3.35h.38Z"/>
        <path class="cls-15" d="m49.7,9.17c-.07.38-.46,1.99-.59,2.38h-7.27v-.5c1.27-.13,1.36-.2,1.36-1.37v-5.35c0-1.19-.17-1.27-1.12-1.36v-.52h4.55c1.47,0,1.96-.01,2.16-.03.01.25.08,1.4.14,2.27l-.55.07c-.13-.48-.36-1.05-.6-1.3-.25-.28-.43-.36-1.15-.36h-.91c-.53,0-.59.03-.59.5v2.93h1.37c.78,0,.92-.21,1.13-1.2h.55v3.12h-.55c-.22-1.04-.34-1.2-1.15-1.2h-1.36v2.41c0,.97.03,1.26.9,1.27h.99c.78,0,.99-.1,1.3-.48.35-.41.63-.92.85-1.4l.52.13Z"/>
        <path class="cls-15" d="m55.97,4.76c-.28-.9-.67-1.92-1.96-1.92-.81,0-1.34.57-1.34,1.36s.52,1.23,1.75,1.85c1.5.74,2.45,1.47,2.45,2.86,0,1.65-1.37,2.86-3.38,2.86-.9,0-1.69-.24-2.35-.43-.08-.32-.32-1.78-.42-2.44l.55-.13c.28.88,1.06,2.41,2.44,2.41.85,0,1.37-.53,1.37-1.43,0-.81-.5-1.29-1.68-1.92-1.46-.78-2.41-1.48-2.41-2.94s1.15-2.63,3.25-2.63c.97,0,1.7.21,2,.25.06.52.15,1.25.27,2.13l-.53.13Z"/>
        <path class="cls-15" d="m65.66,9.17c-.07.38-.46,1.99-.59,2.38h-7.27v-.5c1.27-.13,1.36-.2,1.36-1.37v-5.35c0-1.19-.17-1.27-1.12-1.36v-.52h4.55c1.47,0,1.96-.01,2.16-.03.01.25.08,1.4.14,2.27l-.55.07c-.13-.48-.36-1.05-.6-1.3-.25-.28-.43-.36-1.15-.36h-.91c-.53,0-.59.03-.59.5v2.93h1.37c.78,0,.92-.21,1.13-1.2h.55v3.12h-.55c-.22-1.04-.34-1.2-1.15-1.2h-1.36v2.41c0,.97.03,1.26.9,1.27h.99c.78,0,.99-.1,1.3-.48.35-.41.63-.92.85-1.4l.52.13Z"/>
        <path class="cls-15" d="m71.77,11.56v-.52c.88-.13.88-.28.69-.88-.14-.42-.36-1.05-.57-1.61h-2.73c-.15.43-.35.97-.49,1.4-.29.88.04.99,1.15,1.09v.52h-3.46v-.52c.88-.11,1.11-.24,1.58-1.42l2.91-7.24.67-.13c.9,2.44,1.85,4.93,2.76,7.27.52,1.3.64,1.4,1.56,1.51v.52h-4.06Zm-1.23-6.7c-.41,1.01-.8,1.95-1.15,2.97h2.23l-1.08-2.97Z"/>
        <path class="cls-15" d="m85.15,11.64c-.08,0-.25,0-.42-.01-1.78-.08-2.3-.46-2.72-1.05-.56-.77-.97-1.62-1.44-2.47-.21-.38-.41-.46-.85-.46h-.28s0,2.03,0,2.03c0,1.13.14,1.23,1.19,1.36v.52h-4.29v-.52c1.06-.11,1.19-.22,1.19-1.36v-5.36c0-1.11-.14-1.26-1.19-1.34v-.52h4.06c1.25,0,1.96.14,2.54.53.56.38.94.99.94,1.86,0,1.25-.83,1.9-1.75,2.27.21.42.76,1.33,1.18,1.98.49.77.8,1.15,1.06,1.46.32.36.48.48.88.62l-.1.48Zm-5.34-4.58c.6,0,1.06-.1,1.37-.36.46-.39.66-.92.66-1.64,0-1.48-.85-2.02-1.64-2.02-.38,0-.56.06-.64.14-.1.08-.13.25-.13.53v3.35h.38Z"/>
        <path class="cls-15" d="m94.36,9.15c-.2.7-.56,1.76-.78,2.25-.36.08-1.51.36-2.58.36-3.77,0-5.32-2.42-5.32-4.65,0-2.9,2.21-4.86,5.58-4.86,1.22,0,2.3.29,2.65.34.07.66.17,1.69.27,2.31l-.56.1c-.29-1.09-.71-1.61-1.46-1.9-.34-.14-.84-.2-1.22-.2-2.03,0-3.05,1.69-3.05,3.89,0,2.56,1.32,4.3,3.24,4.3,1.18,0,1.96-.62,2.72-2.16l.53.21Z"/>
        <path class="cls-15" d="m105.61,2.97c-1.09.11-1.19.2-1.19,1.36v5.37c0,1.16.11,1.25,1.19,1.34v.52h-4.33v-.52c1.11-.14,1.19-.18,1.19-1.34v-2.63h-3.78v2.63c0,1.16.13,1.23,1.18,1.34v.52h-4.31v-.52c1.04-.11,1.19-.18,1.19-1.34v-5.37c0-1.16-.13-1.27-1.19-1.36v-.52h4.31v.52c-1.06.1-1.18.2-1.18,1.36v2h3.78v-2c0-1.16-.14-1.25-1.19-1.36v-.52h4.33v.52Z"/>
        <path class="cls-15" d="m118.54,9.15c-.2.7-.56,1.76-.78,2.25-.36.08-1.51.36-2.58.36-3.77,0-5.32-2.42-5.32-4.65,0-2.9,2.21-4.86,5.58-4.86,1.22,0,2.3.29,2.65.34.07.66.17,1.69.27,2.31l-.56.1c-.29-1.09-.71-1.61-1.46-1.9-.34-.14-.84-.2-1.22-.2-2.03,0-3.05,1.69-3.05,3.89,0,2.56,1.32,4.3,3.24,4.3,1.18,0,1.96-.62,2.72-2.16l.53.21Z"/>
        <path class="cls-15" d="m127.15,9.09c-.11.6-.5,2.09-.63,2.47h-6.95v-.52c1.23-.08,1.34-.18,1.34-1.36v-5.34c0-1.18-.14-1.29-1.19-1.37v-.52h4.37v.52c-1.09.1-1.23.2-1.23,1.37v5.44c0,.77.03,1.12.8,1.13.03.01.67.01.73.01.8,0,1.01-.17,1.34-.55.27-.28.63-.88.88-1.46l.53.17Z"/>
        <path class="cls-15" d="m137,2.97c-.9.08-1.13.35-1.19.85-.04.42-.07.9-.07,1.88v1.83c0,1.2-.2,2.42-.99,3.26-.64.67-1.64.97-2.63.97-.92,0-1.85-.2-2.51-.73-.81-.62-1.2-1.47-1.2-3.04v-3.54c0-1.29-.13-1.39-1.19-1.48v-.52h4.33v.52c-1.05.1-1.18.2-1.18,1.48v3.73c0,1.57.77,2.61,2.27,2.61,1.67,0,2.4-1.23,2.4-3.33v-1.75c0-.97-.04-1.47-.07-1.89-.06-.64-.45-.78-1.43-.84v-.52h3.47v.52Z"/>
        <path class="cls-15" d="m142.96,4.76c-.28-.9-.67-1.92-1.96-1.92-.81,0-1.34.57-1.34,1.36s.52,1.23,1.75,1.85c1.5.74,2.45,1.47,2.45,2.86,0,1.65-1.37,2.86-3.38,2.86-.9,0-1.69-.24-2.35-.43-.08-.32-.32-1.78-.42-2.44l.55-.13c.28.88,1.06,2.41,2.44,2.41.85,0,1.37-.53,1.37-1.43,0-.81-.5-1.29-1.68-1.92-1.46-.78-2.41-1.48-2.41-2.94s1.15-2.63,3.25-2.63c.97,0,1.7.21,2,.25.06.52.15,1.25.27,2.13l-.53.13Z"/>
        <path class="cls-15" d="m152.63,4.87c-.15-.64-.46-1.18-.6-1.37-.25-.29-.36-.41-1.19-.41h-.9v6.58c0,1.18.14,1.26,1.39,1.36v.52h-4.65v-.52c1.19-.1,1.32-.18,1.32-1.36V3.1h-.85c-.78,0-1.01.13-1.27.46-.2.27-.39.77-.57,1.33h-.53c.1-1.02.2-2.12.22-2.79h.42c.21.32.38.35.8.35h5.6c.38,0,.57-.08.81-.35h.41c.01.59.07,1.82.14,2.73l-.53.04Z"/>
        <path class="cls-15" d="m161.84,9.17c-.07.38-.46,1.99-.59,2.38h-7.27v-.5c1.27-.13,1.36-.2,1.36-1.37v-5.35c0-1.19-.17-1.27-1.12-1.36v-.52h4.55c1.47,0,1.96-.01,2.16-.03.01.25.08,1.4.14,2.27l-.55.07c-.13-.48-.36-1.05-.6-1.3-.25-.28-.43-.36-1.15-.36h-.91c-.53,0-.59.03-.59.5v2.93h1.37c.78,0,.92-.21,1.13-1.2h.55v3.12h-.55c-.22-1.04-.34-1.2-1.15-1.2h-1.36v2.41c0,.97.03,1.26.9,1.27h.99c.78,0,.99-.1,1.3-.48.35-.41.63-.92.85-1.4l.52.13Z"/>
        <path class="cls-15" d="m171.47,11.64c-.08,0-.25,0-.42-.01-1.78-.08-2.3-.46-2.72-1.05-.56-.77-.97-1.62-1.44-2.47-.21-.38-.41-.46-.85-.46h-.28s0,2.03,0,2.03c0,1.13.14,1.23,1.19,1.36v.52h-4.29v-.52c1.06-.11,1.19-.22,1.19-1.36v-5.36c0-1.11-.14-1.26-1.19-1.34v-.52h4.06c1.25,0,1.96.14,2.54.53.56.38.94.99.94,1.86,0,1.25-.83,1.9-1.75,2.27.21.42.76,1.33,1.18,1.98.49.77.8,1.15,1.06,1.46.32.36.48.48.88.62l-.1.48Zm-5.34-4.58c.6,0,1.07-.1,1.37-.36.46-.39.66-.92.66-1.64,0-1.48-.85-2.02-1.64-2.02-.38,0-.56.06-.64.14-.1.08-.13.25-.13.53v3.35h.38Z"/>
        <path class="cls-15" d="m181.37,4.78c-.15-.53-.38-1.05-.62-1.32-.29-.31-.48-.36-1.15-.36h-1.05c-.48,0-.53.03-.53.5v3.05h1.5c.83,0,.94-.21,1.15-1.19h.52v3.11h-.53c-.15-.95-.36-1.19-1.13-1.19h-1.5v2.19c0,1.29.08,1.39,1.34,1.47v.52h-4.48v-.52c1.06-.1,1.19-.18,1.19-1.47v-5.15c0-1.25-.13-1.36-1.19-1.44v-.52h4.75c1.21,0,1.91-.01,2.13-.03.01.24.08,1.44.15,2.27l-.55.08Z"/>
        <path class="cls-15" d="m187.87,2.25c2.59,0,4.71,1.89,4.71,4.65,0,2.98-2.13,4.86-4.78,4.86-2.8,0-4.83-2.04-4.83-4.75,0-2.4,1.71-4.76,4.9-4.76Zm-.21.62c-1.43,0-2.48,1.4-2.48,3.88s.94,4.4,2.83,4.4c1.33,0,2.37-1.29,2.37-3.85,0-2.77-1.09-4.43-2.72-4.43Z"/>
        <path class="cls-15" d="m202.61,11.64c-.08,0-.25,0-.42-.01-1.78-.08-2.3-.46-2.72-1.05-.56-.77-.97-1.62-1.44-2.47-.21-.38-.41-.46-.85-.46h-.28s0,2.03,0,2.03c0,1.13.14,1.23,1.19,1.36v.52h-4.29v-.52c1.06-.11,1.19-.22,1.19-1.36v-5.36c0-1.11-.14-1.26-1.19-1.34v-.52h4.06c1.25,0,1.96.14,2.54.53.56.38.94.99.94,1.86,0,1.25-.83,1.9-1.75,2.27.21.42.76,1.33,1.18,1.98.49.77.8,1.15,1.06,1.46.32.36.48.48.88.62l-.1.48Zm-5.34-4.58c.6,0,1.06-.1,1.37-.36.46-.39.66-.92.66-1.64,0-1.48-.85-2.02-1.64-2.02-.38,0-.56.06-.64.14-.1.08-.13.25-.13.53v3.35h.38Z"/>
        <path class="cls-15" d="m213.7,4.87c-.15-.64-.46-1.18-.6-1.37-.25-.29-.36-.41-1.19-.41h-.9v6.58c0,1.18.14,1.26,1.39,1.36v.52h-4.65v-.52c1.19-.1,1.32-.18,1.32-1.36V3.1h-.85c-.78,0-1.01.13-1.27.46-.2.27-.39.77-.57,1.33h-.53c.1-1.02.2-2.12.22-2.79h.42c.21.32.38.35.8.35h5.6c.38,0,.57-.08.81-.35h.41c.01.59.07,1.82.14,2.73l-.53.04Z"/>
        <path class="cls-15" d="m225.27,2.97c-1.09.11-1.19.2-1.19,1.36v5.37c0,1.16.11,1.25,1.19,1.34v.52h-4.33v-.52c1.11-.14,1.19-.18,1.19-1.34v-2.63h-3.78v2.63c0,1.16.13,1.23,1.18,1.34v.52h-4.31v-.52c1.04-.11,1.19-.18,1.19-1.34v-5.37c0-1.16-.13-1.27-1.19-1.36v-.52h4.31v.52c-1.06.1-1.18.2-1.18,1.36v2h3.78v-2c0-1.16-.14-1.25-1.19-1.36v-.52h4.33v.52Z"/>
        <path class="cls-15" d="m234.15,9.17c-.07.38-.46,1.99-.59,2.38h-7.27v-.5c1.27-.13,1.36-.2,1.36-1.37v-5.35c0-1.19-.17-1.27-1.12-1.36v-.52h4.55c1.47,0,1.96-.01,2.16-.03.01.25.08,1.4.14,2.27l-.55.07c-.13-.48-.36-1.05-.6-1.3-.25-.28-.43-.36-1.15-.36h-.91c-.53,0-.59.03-.59.5v2.93h1.37c.78,0,.92-.21,1.13-1.2h.55v3.12h-.55c-.22-1.04-.34-1.2-1.15-1.2h-1.36v2.41c0,.97.03,1.26.9,1.27h1c.78,0,.99-.1,1.3-.48.35-.41.63-.92.85-1.4l.52.13Z"/>
        <path class="cls-15" d="m248.13,2.97c-1.09.11-1.19.2-1.19,1.36v5.37c0,1.16.11,1.25,1.19,1.34v.52h-4.33v-.52c1.11-.14,1.19-.18,1.19-1.34v-2.63h-3.78v2.63c0,1.16.13,1.23,1.18,1.34v.52h-4.31v-.52c1.04-.11,1.19-.18,1.19-1.34v-5.37c0-1.16-.13-1.27-1.19-1.36v-.52h4.31v.52c-1.06.1-1.18.2-1.18,1.36v2h3.78v-2c0-1.16-.14-1.25-1.19-1.36v-.52h4.33v.52Z"/>
        <path class="cls-15" d="m249.32,11.56v-.52c1.06-.1,1.19-.18,1.19-1.36v-5.34c0-1.18-.14-1.29-1.19-1.37v-.52h4.33v.52c-1.05.1-1.19.2-1.19,1.37v5.34c0,1.16.13,1.25,1.19,1.36v.52h-4.33Z"/>
        <path class="cls-15" d="m260.01,4.76c-.28-.9-.67-1.92-1.96-1.92-.81,0-1.34.57-1.34,1.36s.52,1.23,1.75,1.85c1.5.74,2.45,1.47,2.45,2.86,0,1.65-1.37,2.86-3.38,2.86-.9,0-1.69-.24-2.35-.43-.08-.32-.32-1.78-.42-2.44l.55-.13c.28.88,1.06,2.41,2.44,2.41.85,0,1.37-.53,1.37-1.43,0-.81-.5-1.29-1.68-1.92-1.46-.78-2.41-1.48-2.41-2.94s1.15-2.63,3.25-2.63c.97,0,1.69.21,2,.25.06.52.15,1.25.27,2.13l-.53.13Z"/>
        <path class="cls-15" d="m269.69,4.87c-.15-.64-.46-1.18-.6-1.37-.25-.29-.36-.41-1.19-.41h-.9v6.58c0,1.18.14,1.26,1.39,1.36v.52h-4.65v-.52c1.19-.1,1.32-.18,1.32-1.36V3.1h-.85c-.78,0-1.01.13-1.27.46-.2.27-.39.77-.57,1.33h-.53c.1-1.02.2-2.12.22-2.79h.42c.21.32.38.35.8.35h5.6c.38,0,.57-.08.81-.35h.41c.01.59.07,1.82.14,2.73l-.53.04Z"/>
        <path class="cls-15" d="m276.13,2.25c2.59,0,4.71,1.89,4.71,4.65,0,2.98-2.13,4.86-4.78,4.86-2.8,0-4.83-2.04-4.83-4.75,0-2.4,1.71-4.76,4.9-4.76Zm-.21.62c-1.43,0-2.48,1.4-2.48,3.88s.94,4.4,2.83,4.4c1.33,0,2.37-1.29,2.37-3.85,0-2.77-1.09-4.43-2.72-4.43Z"/>
        <path class="cls-15" d="m290.87,11.64c-.08,0-.25,0-.42-.01-1.78-.08-2.3-.46-2.72-1.05-.56-.77-.97-1.62-1.44-2.47-.21-.38-.41-.46-.85-.46h-.28s0,2.03,0,2.03c0,1.13.14,1.23,1.19,1.36v.52h-4.29v-.52c1.06-.11,1.19-.22,1.19-1.36v-5.36c0-1.11-.14-1.26-1.19-1.34v-.52h4.06c1.25,0,1.96.14,2.54.53.56.38.94.99.94,1.86,0,1.25-.83,1.9-1.75,2.27.21.42.76,1.33,1.18,1.98.49.77.8,1.15,1.06,1.46.32.36.48.48.88.62l-.1.48Zm-5.34-4.58c.6,0,1.06-.1,1.37-.36.46-.39.66-.92.66-1.64,0-1.48-.85-2.02-1.64-2.02-.38,0-.56.06-.64.14-.1.08-.13.25-.13.53v3.35h.38Z"/>
        <path class="cls-15" d="m291.45,11.56v-.52c1.06-.1,1.19-.18,1.19-1.36v-5.34c0-1.18-.14-1.29-1.19-1.37v-.52h4.33v.52c-1.05.1-1.19.2-1.19,1.37v5.34c0,1.16.13,1.25,1.19,1.36v.52h-4.33Z"/>
        <path class="cls-15" d="m305.69,9.15c-.2.7-.56,1.76-.79,2.25-.36.08-1.51.36-2.58.36-3.77,0-5.32-2.42-5.32-4.65,0-2.9,2.21-4.86,5.58-4.86,1.22,0,2.3.29,2.65.34.07.66.17,1.69.27,2.31l-.56.1c-.29-1.09-.71-1.61-1.46-1.9-.34-.14-.84-.2-1.22-.2-2.03,0-3.05,1.69-3.05,3.89,0,2.56,1.32,4.3,3.24,4.3,1.18,0,1.96-.62,2.72-2.16l.53.21Z"/>
        <path class="cls-15" d="m311.83,11.56v-.52c.88-.13.88-.28.69-.88-.14-.42-.36-1.05-.58-1.61h-2.73c-.15.43-.35.97-.49,1.4-.29.88.04.99,1.15,1.09v.52h-3.46v-.52c.88-.11,1.11-.24,1.58-1.42l2.91-7.24.67-.13c.9,2.44,1.85,4.93,2.76,7.27.52,1.3.64,1.4,1.55,1.51v.52h-4.06Zm-1.23-6.7c-.41,1.01-.8,1.95-1.15,2.97h2.23l-1.08-2.97Z"/>
        <path class="cls-15" d="m323.82,9.09c-.11.6-.5,2.09-.63,2.47h-6.95v-.52c1.23-.08,1.34-.18,1.34-1.36v-5.34c0-1.18-.14-1.29-1.19-1.37v-.52h4.37v.52c-1.09.1-1.23.2-1.23,1.37v5.44c0,.77.03,1.12.8,1.13.03.01.67.01.73.01.8,0,1.01-.17,1.34-.55.27-.28.63-.88.88-1.46l.53.17Z"/>
        <path class="cls-15" d="m18.85,21.57c-.28-.9-.67-1.92-1.96-1.92-.81,0-1.34.57-1.34,1.36s.52,1.23,1.75,1.85c1.5.74,2.45,1.47,2.45,2.86,0,1.65-1.37,2.86-3.38,2.86-.9,0-1.69-.24-2.35-.43-.08-.32-.32-1.78-.42-2.44l.55-.13c.28.88,1.06,2.41,2.44,2.41.85,0,1.37-.53,1.37-1.43,0-.81-.5-1.29-1.68-1.92-1.46-.78-2.41-1.48-2.41-2.94s1.15-2.63,3.25-2.63c.97,0,1.7.21,2,.25.06.52.15,1.25.27,2.13l-.53.13Z"/>
        <path class="cls-15" d="m28.53,21.68c-.15-.64-.46-1.18-.6-1.37-.25-.29-.36-.41-1.19-.41h-.9v6.58c0,1.18.14,1.26,1.39,1.36v.52h-4.65v-.52c1.19-.1,1.32-.18,1.32-1.36v-6.58h-.85c-.78,0-1.01.13-1.27.46-.2.27-.39.77-.57,1.33h-.53c.1-1.02.2-2.12.22-2.79h.42c.21.32.38.35.8.35h5.6c.38,0,.57-.08.81-.35h.41c.01.59.07,1.82.14,2.73l-.53.04Z"/>
        <path class="cls-15" d="m39.86,19.78c-.9.08-1.13.35-1.19.85-.04.42-.07.9-.07,1.88v1.83c0,1.2-.2,2.42-.99,3.26-.64.67-1.64.97-2.63.97-.92,0-1.85-.2-2.51-.73-.81-.62-1.2-1.47-1.2-3.04v-3.54c0-1.29-.13-1.39-1.19-1.48v-.52h4.33v.52c-1.05.1-1.18.2-1.18,1.48v3.73c0,1.57.77,2.61,2.27,2.61,1.67,0,2.4-1.23,2.4-3.33v-1.75c0-.97-.04-1.47-.07-1.89-.06-.64-.45-.78-1.43-.84v-.52h3.47v.52Z"/>
        <path class="cls-15" d="m44.86,19.26c1.79,0,3.11.38,4.01,1.22.71.66,1.26,1.64,1.26,3.05,0,1.61-.67,2.84-1.75,3.66-1.04.78-2.37,1.18-3.96,1.18h-3.85v-.52c1.06-.08,1.19-.21,1.19-1.37v-5.32c0-1.18-.15-1.29-1.19-1.37v-.52h4.3Zm-1.16,7.12c0,.99.25,1.33,1.27,1.33,1.89,0,2.98-1.32,2.98-3.96,0-1.33-.36-2.49-1.01-3.1-.59-.59-1.32-.78-2.26-.78-.52,0-.76.11-.84.2-.13.13-.15.36-.15.77v5.55Z"/>
        <path class="cls-15" d="m59.35,19.78c-.9.1-1.22.29-1.72,1.15-.5.87-.94,1.64-1.62,3.04-.11.22-.15.39-.15.74v1.74c0,1.22.11,1.26,1.26,1.4v.52h-4.43v-.52c1.11-.14,1.2-.18,1.2-1.4v-1.61c0-.31-.06-.45-.15-.64-.41-.83-.92-1.77-1.77-3.24-.52-.91-.73-1.09-1.54-1.18v-.52h4.1v.52c-.94.13-.91.31-.67.8.46.91,1.06,2.03,1.6,3.05.42-.78,1.09-2.13,1.48-2.98.27-.56.15-.74-.85-.87v-.52h3.26v.52Z"/>
        <path class="cls-15" d="m67.3,19.06c2.59,0,4.71,1.89,4.71,4.65,0,2.98-2.13,4.86-4.78,4.86-2.8,0-4.83-2.04-4.83-4.75,0-2.4,1.71-4.76,4.9-4.76Zm-.21.62c-1.43,0-2.48,1.4-2.48,3.88s.94,4.4,2.83,4.4c1.33,0,2.37-1.29,2.37-3.85,0-2.77-1.09-4.43-2.72-4.43Z"/>
        <path class="cls-15" d="m79.71,21.58c-.15-.53-.38-1.05-.62-1.32-.29-.31-.48-.36-1.15-.36h-1.05c-.48,0-.53.03-.53.5v3.05h1.5c.83,0,.94-.21,1.15-1.19h.52v3.11h-.53c-.15-.95-.36-1.19-1.13-1.19h-1.5v2.19c0,1.29.08,1.39,1.34,1.47v.52h-4.48v-.52c1.06-.1,1.19-.18,1.19-1.47v-5.15c0-1.25-.13-1.36-1.19-1.44v-.52h4.75c1.2,0,1.9-.01,2.13-.03.01.24.08,1.44.15,2.27l-.55.08Z"/>
        <path class="cls-15" d="m93.11,28.45c-.08,0-.25,0-.42-.01-1.78-.08-2.3-.46-2.72-1.05-.56-.77-.97-1.62-1.44-2.47-.21-.38-.41-.46-.85-.46h-.28s0,2.03,0,2.03c0,1.13.14,1.23,1.19,1.36v.52h-4.29v-.52c1.06-.11,1.19-.22,1.19-1.36v-5.36c0-1.11-.14-1.26-1.19-1.34v-.52h4.06c1.25,0,1.96.14,2.54.53.56.38.94.99.94,1.86,0,1.25-.83,1.9-1.75,2.27.21.42.76,1.33,1.18,1.98.49.77.8,1.15,1.06,1.46.32.36.48.48.88.62l-.1.48Zm-5.34-4.58c.6,0,1.06-.1,1.37-.36.46-.39.66-.92.66-1.64,0-1.48-.85-2.02-1.64-2.02-.38,0-.56.06-.64.14-.1.08-.13.25-.13.53v3.35h.38Z"/>
        <path class="cls-15" d="m98.94,28.36v-.52c.88-.13.88-.28.69-.88-.14-.42-.36-1.05-.57-1.61h-2.73c-.15.43-.35.97-.49,1.4-.29.88.04.99,1.15,1.09v.52h-3.46v-.52c.88-.11,1.11-.24,1.58-1.42l2.91-7.24.67-.13c.9,2.44,1.85,4.93,2.76,7.27.52,1.3.64,1.4,1.56,1.51v.52h-4.06Zm-1.23-6.7c-.41,1.01-.8,1.95-1.15,2.97h2.23l-1.08-2.97Z"/>
        <path class="cls-15" d="m112.09,25.96c-.2.7-.56,1.76-.78,2.25-.36.08-1.51.36-2.58.36-3.77,0-5.32-2.42-5.32-4.65,0-2.9,2.21-4.86,5.58-4.86,1.22,0,2.3.29,2.65.34.07.66.17,1.69.27,2.31l-.56.1c-.29-1.09-.71-1.61-1.46-1.9-.34-.14-.84-.2-1.22-.2-2.03,0-3.05,1.69-3.05,3.89,0,2.56,1.32,4.3,3.24,4.3,1.18,0,1.96-.62,2.72-2.16l.53.21Z"/>
        <path class="cls-15" d="m120.97,25.98c-.07.38-.46,1.99-.59,2.38h-7.27v-.5c1.27-.13,1.36-.2,1.36-1.37v-5.35c0-1.19-.17-1.27-1.12-1.36v-.52h4.55c1.47,0,1.96-.01,2.16-.03.01.25.08,1.4.14,2.27l-.55.07c-.13-.48-.36-1.05-.6-1.3-.25-.28-.43-.36-1.15-.36h-.91c-.53,0-.59.03-.59.5v2.93h1.37c.78,0,.92-.21,1.13-1.2h.55v3.12h-.55c-.22-1.04-.34-1.2-1.15-1.2h-1.36v2.41c0,.97.03,1.26.9,1.27h.99c.78,0,.99-.1,1.3-.48.35-.41.63-.92.85-1.4l.52.13Z"/>
        <path class="cls-15" d="m122.12,29.79c.83-.36,1.34-.81,1.34-1.36,0-.49-.36-.71-1.12-.87-.1-.01-.22-.22-.22-.59,0-.45.38-.91,1.01-.91.74,0,1.47.66,1.47,1.77,0,1.32-1.19,2.17-2.3,2.47l-.18-.5Z"/>
        <path class="cls-15" d="m128.81,28.36v-.52c1.06-.1,1.19-.18,1.19-1.36v-5.34c0-1.18-.14-1.29-1.19-1.37v-.52h4.33v.52c-1.05.1-1.19.2-1.19,1.37v5.34c0,1.16.13,1.25,1.19,1.36v.52h-4.33Z"/>
        <path class="cls-15" d="m144.1,19.78c-.85.11-1.12.29-1.16.92-.04.55-.08,1.02-.08,2.24v5.58h-.78l-5.84-7v3.17c0,1.22.03,1.77.07,2.17.06.62.35.94,1.39.99v.52h-3.47v-.52c.8-.07,1.15-.28,1.23-.94.06-.5.08-1.01.08-2.23v-3.32c0-.46-.03-.77-.29-1.13-.25-.35-.59-.39-1.18-.45v-.52h2.73l5.34,6.21v-2.52c0-1.22-.01-1.68-.06-2.2-.04-.6-.27-.9-1.43-.97v-.52h3.46v.52Z"/>
        <path class="cls-15" d="m152.65,25.98c-.07.38-.46,1.99-.59,2.38h-7.27v-.5c1.27-.13,1.36-.2,1.36-1.37v-5.35c0-1.19-.17-1.27-1.12-1.36v-.52h4.55c1.47,0,1.96-.01,2.16-.03.01.25.08,1.4.14,2.27l-.55.07c-.13-.48-.36-1.05-.6-1.3-.25-.28-.43-.36-1.15-.36h-.91c-.53,0-.59.03-.59.5v2.93h1.37c.78,0,.92-.21,1.13-1.2h.55v3.12h-.55c-.22-1.04-.34-1.2-1.15-1.2h-1.36v2.41c0,.97.03,1.26.9,1.27h.99c.78,0,.99-.1,1.3-.48.35-.41.63-.92.85-1.4l.52.13Z"/>
        <path class="cls-15" d="m158.55,19.06c2.59,0,4.71,1.89,4.71,4.65,0,2.98-2.13,4.86-4.78,4.86-2.8,0-4.83-2.04-4.83-4.75,0-2.4,1.71-4.76,4.9-4.76Zm-.21.62c-1.43,0-2.48,1.4-2.48,3.88s.94,4.4,2.83,4.4c1.33,0,2.37-1.29,2.37-3.85,0-2.77-1.09-4.43-2.72-4.43Zm1.05,7.79c1.79,1.37,3.24,2.35,4.27,2.75l-.13.42c-.63.06-1.68.03-2.23-.13-1.22-.35-2.69-1.48-3.87-2.42l1.95-.62Z"/>
        <path class="cls-15" d="m174.13,19.78c-.9.08-1.13.35-1.19.85-.04.42-.07.9-.07,1.88v1.83c0,1.2-.2,2.42-.99,3.26-.64.67-1.64.97-2.63.97-.92,0-1.85-.2-2.51-.73-.81-.62-1.21-1.47-1.21-3.04v-3.54c0-1.29-.13-1.39-1.19-1.48v-.52h4.33v.52c-1.05.1-1.18.2-1.18,1.48v3.73c0,1.57.77,2.61,2.27,2.61,1.67,0,2.4-1.23,2.4-3.33v-1.75c0-.97-.04-1.47-.07-1.89-.06-.64-.45-.78-1.43-.84v-.52h3.47v.52Z"/>
        <path class="cls-15" d="m179,28.36v-.52c.88-.13.88-.28.69-.88-.14-.42-.36-1.05-.58-1.61h-2.73c-.15.43-.35.97-.49,1.4-.29.88.04.99,1.15,1.09v.52h-3.46v-.52c.88-.11,1.11-.24,1.58-1.42l2.91-7.24.67-.13c.9,2.44,1.85,4.93,2.76,7.27.52,1.3.64,1.4,1.55,1.51v.52h-4.06Zm-1.23-6.7c-.41,1.01-.8,1.95-1.15,2.97h2.23l-1.08-2.97Z"/>
        <path class="cls-15" d="m190.99,25.9c-.11.6-.5,2.09-.63,2.47h-6.95v-.52c1.23-.08,1.34-.18,1.34-1.36v-5.34c0-1.18-.14-1.29-1.19-1.37v-.52h4.37v.52c-1.09.1-1.23.2-1.23,1.37v5.44c0,.77.03,1.12.8,1.13.03.01.67.01.73.01.8,0,1.01-.17,1.34-.55.27-.28.63-.88.88-1.46l.53.17Z"/>
        <path class="cls-15" d="m191.65,28.36v-.52c1.06-.1,1.19-.18,1.19-1.36v-5.34c0-1.18-.14-1.29-1.19-1.37v-.52h4.33v.52c-1.05.1-1.19.2-1.19,1.37v5.34c0,1.16.13,1.25,1.19,1.36v.52h-4.33Z"/>
        <path class="cls-15" d="m204.91,21.68c-.15-.64-.46-1.18-.6-1.37-.25-.29-.36-.41-1.19-.41h-.9v6.58c0,1.18.14,1.26,1.39,1.36v.52h-4.65v-.52c1.19-.1,1.32-.18,1.32-1.36v-6.58h-.85c-.78,0-1.01.13-1.27.46-.2.27-.39.77-.57,1.33h-.53c.1-1.02.2-2.12.22-2.79h.42c.21.32.38.35.8.35h5.6c.38,0,.57-.08.81-.35h.41c.01.59.07,1.82.14,2.73l-.53.04Z"/>
        <path class="cls-15" d="m215.29,19.78c-.9.1-1.22.29-1.72,1.15-.5.87-.94,1.64-1.62,3.04-.11.22-.15.39-.15.74v1.74c0,1.22.11,1.26,1.26,1.4v.52h-4.43v-.52c1.11-.14,1.21-.18,1.21-1.4v-1.61c0-.31-.06-.45-.15-.64-.41-.83-.92-1.77-1.76-3.24-.52-.91-.73-1.09-1.54-1.18v-.52h4.1v.52c-.94.13-.91.31-.67.8.46.91,1.06,2.03,1.6,3.05.42-.78,1.09-2.13,1.48-2.98.27-.56.15-.74-.85-.87v-.52h3.26v.52Z"/>
        <path class="cls-15" d="m214.62,29.79c.83-.36,1.34-.81,1.34-1.36,0-.49-.36-.71-1.12-.87-.1-.01-.22-.22-.22-.59,0-.45.38-.91,1.01-.91.74,0,1.47.66,1.47,1.77,0,1.32-1.19,2.17-2.3,2.47l-.18-.5Z"/>
        <path class="cls-15" d="m225.76,28.36v-.52c.88-.13.88-.28.69-.88-.14-.42-.36-1.05-.58-1.61h-2.73c-.15.43-.35.97-.49,1.4-.29.88.04.99,1.15,1.09v.52h-3.46v-.52c.88-.11,1.11-.24,1.58-1.42l2.91-7.24.67-.13c.9,2.44,1.85,4.93,2.76,7.27.52,1.3.64,1.4,1.55,1.51v.52h-4.06Zm-1.23-6.7c-.41,1.01-.8,1.95-1.15,2.97h2.23l-1.08-2.97Z"/>
        <path class="cls-15" d="m240.08,19.78c-.85.11-1.12.29-1.16.92-.04.55-.08,1.02-.08,2.24v5.58h-.79l-5.84-7v3.17c0,1.22.03,1.77.07,2.17.06.62.35.94,1.39.99v.52h-3.47v-.52c.8-.07,1.15-.28,1.23-.94.06-.5.08-1.01.08-2.23v-3.32c0-.46-.03-.77-.29-1.13-.25-.35-.59-.39-1.18-.45v-.52h2.73l5.34,6.21v-2.52c0-1.22-.01-1.68-.06-2.2-.04-.6-.27-.9-1.43-.97v-.52h3.46v.52Z"/>
        <path class="cls-15" d="m245.25,19.26c1.79,0,3.11.38,4.01,1.22.71.66,1.26,1.64,1.26,3.05,0,1.61-.67,2.84-1.75,3.66-1.04.78-2.37,1.18-3.96,1.18h-3.85v-.52c1.06-.08,1.19-.21,1.19-1.37v-5.32c0-1.18-.15-1.29-1.19-1.37v-.52h4.3Zm-1.16,7.12c0,.99.25,1.33,1.27,1.33,1.89,0,2.98-1.32,2.98-3.96,0-1.33-.36-2.49-1.01-3.1-.59-.59-1.32-.78-2.25-.78-.52,0-.76.11-.84.2-.13.13-.15.36-.15.77v5.55Z"/>
        <path class="cls-15" d="m264.82,19.78c-1.09.11-1.19.2-1.19,1.36v5.37c0,1.16.11,1.25,1.19,1.34v.52h-4.33v-.52c1.11-.14,1.19-.18,1.19-1.34v-2.63h-3.78v2.63c0,1.16.13,1.23,1.18,1.34v.52h-4.31v-.52c1.04-.11,1.19-.18,1.19-1.34v-5.37c0-1.16-.13-1.27-1.19-1.36v-.52h4.31v.52c-1.06.1-1.18.2-1.18,1.36v2h3.78v-2c0-1.16-.14-1.25-1.19-1.36v-.52h4.33v.52Z"/>
        <path class="cls-15" d="m273.7,25.98c-.07.38-.46,1.99-.59,2.38h-7.27v-.5c1.27-.13,1.36-.2,1.36-1.37v-5.35c0-1.19-.17-1.27-1.12-1.36v-.52h4.55c1.47,0,1.96-.01,2.16-.03.01.25.08,1.4.14,2.27l-.55.07c-.13-.48-.36-1.05-.6-1.3-.25-.28-.43-.36-1.15-.36h-.91c-.53,0-.59.03-.59.5v2.93h1.37c.78,0,.92-.21,1.13-1.2h.55v3.12h-.55c-.22-1.04-.34-1.2-1.15-1.2h-1.36v2.41c0,.97.03,1.26.9,1.27h1c.78,0,.99-.1,1.3-.48.35-.41.63-.92.85-1.4l.52.13Z"/>
        <path class="cls-15" d="m279.81,28.36v-.52c.88-.13.88-.28.69-.88-.14-.42-.36-1.05-.58-1.61h-2.73c-.15.43-.35.97-.49,1.4-.29.88.04.99,1.15,1.09v.52h-3.46v-.52c.88-.11,1.11-.24,1.58-1.42l2.91-7.24.67-.13c.9,2.44,1.85,4.93,2.76,7.27.52,1.3.64,1.4,1.55,1.51v.52h-4.06Zm-1.23-6.7c-.41,1.01-.8,1.95-1.15,2.97h2.23l-1.08-2.97Z"/>
        <path class="cls-15" d="m291.8,25.9c-.11.6-.5,2.09-.63,2.47h-6.95v-.52c1.23-.08,1.34-.18,1.34-1.36v-5.34c0-1.18-.14-1.29-1.19-1.37v-.52h4.37v.52c-1.09.1-1.23.2-1.23,1.37v5.44c0,.77.03,1.12.8,1.13.03.01.67.01.73.01.8,0,1.01-.17,1.34-.55.27-.28.63-.88.88-1.46l.53.17Z"/>
        <path class="cls-15" d="m298.89,21.68c-.15-.64-.46-1.18-.6-1.37-.25-.29-.36-.41-1.19-.41h-.9v6.58c0,1.18.14,1.26,1.39,1.36v.52h-4.65v-.52c1.19-.1,1.32-.18,1.32-1.36v-6.58h-.85c-.78,0-1.01.13-1.27.46-.2.27-.39.77-.57,1.33h-.53c.1-1.02.2-2.12.22-2.79h.42c.21.32.38.35.8.35h5.6c.38,0,.57-.08.81-.35h.41c.01.59.07,1.82.14,2.73l-.53.04Z"/>
        <path class="cls-15" d="m310.46,19.78c-1.09.11-1.19.2-1.19,1.36v5.37c0,1.16.11,1.25,1.19,1.34v.52h-4.33v-.52c1.11-.14,1.19-.18,1.19-1.34v-2.63h-3.78v2.63c0,1.16.13,1.23,1.18,1.34v.52h-4.31v-.52c1.04-.11,1.19-.18,1.19-1.34v-5.37c0-1.16-.13-1.27-1.19-1.36v-.52h4.31v.52c-1.07.1-1.18.2-1.18,1.36v2h3.78v-2c0-1.16-.14-1.25-1.19-1.36v-.52h4.33v.52Z"/>
      </g>
      <g>
        <path class="cls-15" d="m14.46,170.34c-.15.55-.44,1.39-.62,1.77-.29.07-1.19.29-2.03.29-2.96,0-4.19-1.91-4.19-3.66,0-2.28,1.74-3.82,4.38-3.82.96,0,1.81.23,2.08.26.06.52.13,1.33.21,1.82l-.44.08c-.23-.86-.56-1.27-1.15-1.5-.26-.11-.66-.15-.96-.15-1.6,0-2.4,1.33-2.4,3.06,0,2.02,1.04,3.38,2.54,3.38.93,0,1.54-.49,2.14-1.7l.42.17Z"/>
        <path class="cls-15" d="m19.25,164.92c2.04,0,3.7,1.49,3.7,3.66,0,2.35-1.67,3.82-3.76,3.82-2.2,0-3.8-1.61-3.8-3.73,0-1.88,1.34-3.75,3.86-3.75Zm-.17.49c-1.12,0-1.95,1.1-1.95,3.05s.74,3.46,2.23,3.46c1.05,0,1.86-1.01,1.86-3.03,0-2.18-.86-3.48-2.14-3.48Z"/>
        <path class="cls-15" d="m29.75,170.29c-.09.47-.4,1.64-.5,1.94h-5.46v-.41c.97-.07,1.06-.14,1.06-1.07v-4.2c0-.92-.11-1.01-.94-1.08v-.41h3.44v.41c-.86.08-.97.15-.97,1.08v4.27c0,.61.02.88.63.89.02.01.53.01.57.01.63,0,.79-.13,1.06-.43.21-.22.5-.69.69-1.15l.42.13Z"/>
        <path class="cls-15" d="m37.49,165.48c-.71.07-.89.28-.94.67-.03.33-.06.71-.06,1.48v1.44c0,.95-.15,1.91-.78,2.57-.51.53-1.29.76-2.07.76-.73,0-1.45-.15-1.97-.57-.64-.49-.95-1.16-.95-2.39v-2.79c0-1.01-.1-1.09-.94-1.17v-.41h3.4v.41c-.83.08-.93.15-.93,1.17v2.93c0,1.23.61,2.05,1.78,2.05,1.31,0,1.88-.97,1.88-2.62v-1.38c0-.76-.03-1.16-.06-1.49-.04-.51-.35-.62-1.12-.66v-.41h2.73v.41Z"/>
        <path class="cls-15" d="m43.72,172.23v-.41c.84-.09.89-.17.89-1.16v-4.3c-.8,1.9-1.67,3.99-2.47,5.86h-.36c-.72-1.8-1.5-3.84-2.29-5.77-.14,3.46-.14,4.14-.14,4.54.01.59.23.75,1.06.83v.41h-2.73v-.41c.63-.06.91-.18,1-.84.04-.33.09-.96.34-4.59.03-.53-.04-.83-.99-.91v-.41h2.38l2.13,4.86,2.14-4.86h2.32v.41c-.88.09-.98.18-.96,1.06l.09,4.13c.01.99.06,1.04.95,1.16v.41h-3.35Z"/>
        <path class="cls-15" d="m52.14,168.29c1.16.21,1.97.76,1.97,1.81,0,.68-.43,1.32-1.06,1.67-.56.31-1.28.46-2.09.46h-3.08v-.41c.85-.09.94-.14.94-1.07v-4.2c0-.92-.14-1.02-.93-1.08v-.41h3.35c.84,0,1.37.11,1.81.39.41.26.67.68.67,1.22,0,.92-.86,1.47-1.58,1.61Zm-1.4-.14c1.05,0,1.43-.45,1.43-1.27,0-.96-.63-1.32-1.23-1.32-.26,0-.43.03-.52.09-.12.08-.11.18-.11.41v2.09h.43Zm-.43,2.59c0,.79.36,1.04.96,1.02.61-.01,1.2-.54,1.2-1.56s-.54-1.58-1.77-1.58h-.39v2.12Z"/>
        <path class="cls-15" d="m54.94,172.23v-.41c.84-.08.94-.14.94-1.07v-4.2c0-.92-.11-1.01-.94-1.08v-.41h3.4v.41c-.83.08-.94.15-.94,1.08v4.2c0,.92.1.98.94,1.07v.41h-3.4Z"/>
        <path class="cls-15" d="m62.94,172.23v-.41c.69-.1.69-.22.54-.69-.11-.33-.29-.83-.45-1.27h-2.15c-.12.34-.28.76-.39,1.1-.23.69.03.78.9.86v.41h-2.72v-.41c.69-.09.87-.19,1.25-1.11l2.29-5.7.53-.1c.71,1.92,1.45,3.88,2.17,5.72.41,1.02.51,1.1,1.22,1.19v.41h-3.19Zm-.97-5.27c-.32.79-.63,1.53-.9,2.33h1.75l-.85-2.33Z"/>
        <path class="cls-15" d="m76.17,165.48c-.71.07-.89.28-.94.67-.03.33-.06.71-.06,1.48v1.44c0,.95-.15,1.91-.78,2.57-.51.53-1.29.76-2.07.76-.73,0-1.45-.15-1.97-.57-.64-.49-.95-1.16-.95-2.39v-2.79c0-1.01-.1-1.09-.94-1.17v-.41h3.4v.41c-.83.08-.93.15-.93,1.17v2.93c0,1.23.61,2.05,1.78,2.05,1.31,0,1.88-.97,1.88-2.62v-1.38c0-.76-.03-1.16-.06-1.49-.04-.51-.35-.62-1.12-.66v-.41h2.73v.41Z"/>
        <path class="cls-15" d="m84.4,165.48c-.67.09-.88.23-.91.73-.03.43-.07.8-.07,1.76v4.38h-.62l-4.59-5.51v2.49c0,.96.02,1.39.06,1.71.04.48.28.74,1.09.78v.41h-2.73v-.41c.63-.06.9-.22.97-.74.04-.4.07-.79.07-1.75v-2.61c0-.36-.02-.61-.23-.89-.2-.28-.46-.31-.93-.35v-.41h2.15l4.2,4.88v-1.98c0-.96-.01-1.32-.04-1.73-.03-.47-.21-.71-1.12-.76v-.41h2.72v.41Z"/>
        <path class="cls-15" d="m85.08,172.23v-.41c.84-.08.94-.14.94-1.07v-4.2c0-.92-.11-1.01-.94-1.08v-.41h3.4v.41c-.83.08-.94.15-.94,1.08v4.2c0,.92.1.98.94,1.07v.41h-3.4Z"/>
        <path class="cls-15" d="m96.61,165.48c-.73.08-.95.18-1.37,1.22-.34.85-1.48,3.58-2.29,5.65h-.61c-.31-.86-1.74-4.64-2.2-5.81-.34-.83-.48-1-1.2-1.07v-.41h3.36v.41c-.81.11-.81.19-.64.65.34.93,1.17,3.2,1.54,4.17.66-1.58,1.26-3.07,1.51-3.79.28-.76.2-.93-.73-1.02v-.41h2.62v.41Z"/>
        <path class="cls-15" d="m103.12,170.36c-.05.3-.36,1.56-.46,1.87h-5.72v-.4c1-.1,1.07-.15,1.07-1.08v-4.21c0-.94-.13-1-.88-1.07v-.41h3.58c1.16,0,1.54-.01,1.7-.02.01.2.07,1.1.11,1.78l-.43.06c-.1-.38-.29-.83-.47-1.03-.2-.22-.34-.29-.9-.29h-.72c-.42,0-.46.02-.46.4v2.3h1.08c.62,0,.73-.17.89-.95h.43v2.46h-.43c-.18-.82-.26-.95-.9-.95h-1.07v1.9c0,.76.02.99.71,1h.78c.62,0,.78-.08,1.02-.37.28-.32.5-.73.67-1.1l.41.1Z"/>
        <path class="cls-15" d="m110.7,172.3c-.07,0-.2,0-.33-.01-1.4-.07-1.81-.36-2.14-.83-.44-.61-.76-1.28-1.13-1.94-.17-.3-.32-.36-.67-.36h-.22s0,1.6,0,1.6c0,.89.11.97.94,1.07v.41h-3.37v-.41c.84-.09.94-.18.94-1.07v-4.22c0-.87-.11-.99-.94-1.06v-.41h3.19c.98,0,1.54.11,1.99.42.44.3.74.78.74,1.46,0,.98-.65,1.5-1.38,1.79.17.33.59,1.05.93,1.55.39.61.63.9.84,1.15.25.29.37.37.69.48l-.08.38Zm-4.2-3.6c.47,0,.84-.08,1.08-.29.36-.31.52-.73.52-1.29,0-1.17-.67-1.59-1.29-1.59-.3,0-.44.04-.51.11-.08.07-.1.2-.1.42v2.63h.3Z"/>
        <path class="cls-15" d="m115.44,166.89c-.22-.71-.53-1.51-1.54-1.51-.64,0-1.06.45-1.06,1.07s.41.97,1.38,1.45c1.18.58,1.93,1.16,1.93,2.25,0,1.3-1.08,2.25-2.66,2.25-.71,0-1.33-.19-1.85-.34-.07-.25-.25-1.4-.33-1.92l.43-.1c.22.69.84,1.89,1.92,1.89.67,0,1.08-.42,1.08-1.12,0-.64-.4-1.01-1.32-1.51-1.15-.62-1.89-1.17-1.89-2.31s.9-2.07,2.56-2.07c.76,0,1.33.17,1.58.2.04.41.12.98.21,1.67l-.42.1Z"/>
        <path class="cls-15" d="m117.01,172.23v-.41c.84-.08.94-.14.94-1.07v-4.2c0-.92-.11-1.01-.94-1.08v-.41h3.4v.41c-.83.08-.94.15-.94,1.08v4.2c0,.92.1.98.94,1.07v.41h-3.4Z"/>
        <path class="cls-15" d="m127.44,166.98c-.12-.51-.36-.93-.47-1.08-.2-.23-.29-.32-.94-.32h-.71v5.18c0,.93.11.99,1.09,1.07v.41h-3.66v-.41c.94-.08,1.04-.14,1.04-1.07v-5.18h-.67c-.62,0-.79.1-1,.36-.15.21-.31.61-.45,1.05h-.42c.08-.8.15-1.66.18-2.19h.33c.17.25.3.28.63.28h4.41c.3,0,.45-.07.64-.28h.32c.01.46.06,1.43.11,2.15l-.42.03Z"/>
        <path class="cls-15" d="m135.61,165.48c-.71.08-.96.23-1.35.9-.4.68-.74,1.29-1.28,2.39-.09.18-.12.31-.12.58v1.37c0,.96.09.99.99,1.1v.41h-3.48v-.41c.87-.11.95-.14.95-1.1v-1.27c0-.24-.04-.35-.12-.51-.32-.65-.73-1.39-1.39-2.54-.41-.72-.57-.86-1.21-.92v-.41h3.23v.41c-.74.1-.72.24-.53.63.36.72.84,1.6,1.26,2.4.33-.62.86-1.67,1.17-2.35.21-.44.12-.58-.67-.68v-.41h2.57v.41Z"/>
        <path class="cls-15" d="m144.83,170.34c-.15.55-.44,1.39-.62,1.77-.29.07-1.19.29-2.03.29-2.96,0-4.19-1.91-4.19-3.66,0-2.28,1.74-3.82,4.38-3.82.96,0,1.81.23,2.08.26.06.52.13,1.33.21,1.82l-.44.08c-.23-.86-.56-1.27-1.15-1.5-.26-.11-.66-.15-.96-.15-1.6,0-2.4,1.33-2.4,3.06,0,2.02,1.04,3.38,2.54,3.38.93,0,1.54-.49,2.14-1.7l.42.17Z"/>
        <path class="cls-15" d="m151.81,170.36c-.06.3-.36,1.56-.46,1.87h-5.72v-.4c1-.1,1.07-.15,1.07-1.08v-4.21c0-.94-.13-1-.88-1.07v-.41h3.58c1.16,0,1.54-.01,1.7-.02.01.2.07,1.1.11,1.78l-.43.06c-.1-.38-.29-.83-.47-1.03-.2-.22-.34-.29-.9-.29h-.72c-.42,0-.46.02-.46.4v2.3h1.08c.62,0,.73-.17.89-.95h.43v2.46h-.43c-.18-.82-.26-.95-.9-.95h-1.07v1.9c0,.76.02.99.71,1h.78c.62,0,.78-.08,1.02-.37.28-.32.5-.73.67-1.1l.41.1Z"/>
        <path class="cls-15" d="m160.14,165.48c-.67.09-.88.23-.91.73-.03.43-.07.8-.07,1.76v4.38h-.62l-4.59-5.51v2.49c0,.96.02,1.39.06,1.71.04.48.28.74,1.09.78v.41h-2.73v-.41c.63-.06.9-.22.97-.74.04-.4.07-.79.07-1.75v-2.61c0-.36-.02-.61-.23-.89-.2-.28-.46-.31-.93-.35v-.41h2.15l4.2,4.88v-1.98c0-.96-.01-1.32-.04-1.73-.03-.47-.21-.71-1.12-.76v-.41h2.72v.41Z"/>
        <path class="cls-15" d="m167.08,166.98c-.12-.51-.36-.93-.47-1.08-.2-.23-.29-.32-.94-.32h-.71v5.18c0,.93.11.99,1.09,1.07v.41h-3.66v-.41c.94-.08,1.04-.14,1.04-1.07v-5.18h-.67c-.62,0-.79.1-1,.36-.15.21-.31.61-.45,1.05h-.42c.08-.8.15-1.66.18-2.19h.33c.17.25.3.28.63.28h4.41c.3,0,.45-.07.64-.28h.32c.01.46.06,1.43.11,2.15l-.42.03Z"/>
        <path class="cls-15" d="m174.31,170.36c-.06.3-.36,1.56-.46,1.87h-5.72v-.4c1-.1,1.07-.15,1.07-1.08v-4.21c0-.94-.13-1-.88-1.07v-.41h3.58c1.16,0,1.54-.01,1.7-.02.01.2.07,1.1.11,1.78l-.43.06c-.1-.38-.29-.83-.47-1.03-.2-.22-.34-.29-.9-.29h-.72c-.42,0-.46.02-.46.4v2.3h1.08c.62,0,.73-.17.89-.95h.43v2.46h-.43c-.18-.82-.26-.95-.9-.95h-1.07v1.9c0,.76.02.99.71,1h.78c.62,0,.78-.08,1.02-.37.28-.32.5-.73.67-1.1l.41.1Z"/>
        <path class="cls-15" d="m181.89,172.3c-.07,0-.2,0-.33-.01-1.4-.07-1.81-.36-2.14-.83-.44-.61-.76-1.28-1.13-1.94-.17-.3-.32-.36-.67-.36h-.22s0,1.6,0,1.6c0,.89.11.97.94,1.07v.41h-3.37v-.41c.84-.09.94-.18.94-1.07v-4.22c0-.87-.11-.99-.94-1.06v-.41h3.2c.98,0,1.54.11,1.99.42.44.3.74.78.74,1.46,0,.98-.65,1.5-1.38,1.79.17.33.6,1.05.93,1.55.39.61.63.9.84,1.15.25.29.38.37.69.48l-.08.38Zm-4.2-3.6c.47,0,.84-.08,1.08-.29.36-.31.52-.73.52-1.29,0-1.17-.67-1.59-1.29-1.59-.3,0-.44.04-.51.11-.08.07-.1.2-.1.42v2.63h.3Z"/>
        <path class="cls-15" d="m189.68,166.9c-.12-.42-.3-.83-.48-1.04-.23-.24-.37-.29-.9-.29h-.83c-.38,0-.42.02-.42.4v2.4h1.18c.65,0,.74-.17.9-.94h.41v2.45h-.42c-.12-.75-.29-.94-.89-.94h-1.18v1.72c0,1.01.07,1.09,1.06,1.16v.41h-3.53v-.41c.84-.08.94-.14.94-1.16v-4.05c0-.98-.1-1.07-.94-1.13v-.41h3.74c.95,0,1.5-.01,1.67-.02.01.19.07,1.13.12,1.78l-.43.07Z"/>
        <path class="cls-15" d="m194.79,164.92c2.04,0,3.7,1.49,3.7,3.66,0,2.35-1.67,3.82-3.76,3.82-2.2,0-3.8-1.61-3.8-3.73,0-1.88,1.34-3.75,3.86-3.75Zm-.17.49c-1.12,0-1.95,1.1-1.95,3.05s.74,3.46,2.23,3.46c1.05,0,1.86-1.01,1.86-3.03,0-2.18-.86-3.48-2.14-3.48Z"/>
        <path class="cls-15" d="m206.38,172.3c-.07,0-.2,0-.33-.01-1.4-.07-1.81-.36-2.14-.83-.44-.61-.76-1.28-1.13-1.94-.17-.3-.32-.36-.67-.36h-.22s0,1.6,0,1.6c0,.89.11.97.94,1.07v.41h-3.37v-.41c.84-.09.94-.18.94-1.07v-4.22c0-.87-.11-.99-.94-1.06v-.41h3.2c.98,0,1.54.11,1.99.42.44.3.74.78.74,1.46,0,.98-.65,1.5-1.38,1.79.17.33.6,1.05.93,1.55.39.61.63.9.84,1.15.25.29.38.37.69.48l-.08.38Zm-4.2-3.6c.47,0,.84-.08,1.08-.29.36-.31.52-.73.52-1.29,0-1.17-.67-1.59-1.29-1.59-.3,0-.44.04-.51.11-.08.07-.1.2-.1.42v2.63h.3Z"/>
        <path class="cls-15" d="m213.19,166.89c-.22-.71-.53-1.51-1.54-1.51-.64,0-1.06.45-1.06,1.07s.41.97,1.38,1.45c1.18.58,1.93,1.16,1.93,2.25,0,1.3-1.08,2.25-2.65,2.25-.71,0-1.33-.19-1.85-.34-.07-.25-.25-1.4-.33-1.92l.43-.1c.22.69.84,1.89,1.92,1.89.67,0,1.08-.42,1.08-1.12,0-.64-.4-1.01-1.32-1.51-1.15-.62-1.9-1.17-1.9-2.31s.9-2.07,2.56-2.07c.76,0,1.33.17,1.58.2.04.41.12.98.21,1.67l-.42.1Z"/>
        <path class="cls-15" d="m221.61,170.34c-.15.55-.44,1.39-.62,1.77-.29.07-1.19.29-2.03.29-2.96,0-4.19-1.91-4.19-3.66,0-2.28,1.74-3.82,4.38-3.82.96,0,1.81.23,2.08.26.05.52.13,1.33.21,1.82l-.44.08c-.23-.86-.56-1.27-1.15-1.5-.26-.11-.66-.15-.96-.15-1.6,0-2.4,1.33-2.4,3.06,0,2.02,1.04,3.38,2.54,3.38.93,0,1.54-.49,2.14-1.7l.42.17Z"/>
        <path class="cls-15" d="m222.55,172.23v-.41c.84-.08.94-.14.94-1.07v-4.2c0-.92-.11-1.01-.94-1.08v-.41h3.4v.41c-.83.08-.94.15-.94,1.08v4.2c0,.92.1.98.94,1.07v.41h-3.4Z"/>
        <path class="cls-15" d="m232.94,170.36c-.06.3-.36,1.56-.46,1.87h-5.72v-.4c1-.1,1.07-.15,1.07-1.08v-4.21c0-.94-.13-1-.88-1.07v-.41h3.58c1.16,0,1.54-.01,1.7-.02.01.2.07,1.1.11,1.78l-.43.06c-.1-.38-.29-.83-.47-1.03-.2-.22-.34-.29-.9-.29h-.72c-.42,0-.46.02-.46.4v2.3h1.08c.62,0,.73-.17.89-.95h.43v2.46h-.43c-.18-.82-.26-.95-.9-.95h-1.07v1.9c0,.76.02.99.71,1h.78c.62,0,.78-.08,1.02-.37.28-.32.5-.73.67-1.1l.41.1Z"/>
        <path class="cls-15" d="m241.26,165.48c-.67.09-.88.23-.91.73-.03.43-.07.8-.07,1.76v4.38h-.62l-4.59-5.51v2.49c0,.96.02,1.39.06,1.71.04.48.28.74,1.09.78v.41h-2.73v-.41c.63-.06.9-.22.97-.74.04-.4.07-.79.07-1.75v-2.61c0-.36-.02-.61-.23-.89-.2-.28-.46-.31-.92-.35v-.41h2.15l4.2,4.88v-1.98c0-.96-.01-1.32-.04-1.73-.03-.47-.21-.71-1.12-.76v-.41h2.72v.41Z"/>
        <path class="cls-15" d="m248.83,170.34c-.15.55-.44,1.39-.62,1.77-.29.07-1.19.29-2.03.29-2.96,0-4.19-1.91-4.19-3.66,0-2.28,1.74-3.82,4.38-3.82.96,0,1.81.23,2.08.26.05.52.13,1.33.21,1.82l-.44.08c-.23-.86-.56-1.27-1.15-1.5-.26-.11-.66-.15-.96-.15-1.6,0-2.4,1.33-2.4,3.06,0,2.02,1.04,3.38,2.54,3.38.93,0,1.54-.49,2.14-1.7l.42.17Z"/>
        <path class="cls-15" d="m255.82,170.36c-.06.3-.36,1.56-.46,1.87h-5.72v-.4c1-.1,1.07-.15,1.07-1.08v-4.21c0-.94-.13-1-.88-1.07v-.41h3.58c1.16,0,1.54-.01,1.7-.02.01.2.07,1.1.11,1.78l-.43.06c-.1-.38-.29-.83-.47-1.03-.2-.22-.34-.29-.9-.29h-.72c-.42,0-.46.02-.46.4v2.3h1.08c.62,0,.73-.17.89-.95h.43v2.46h-.43c-.18-.82-.26-.95-.9-.95h-1.07v1.9c0,.76.02.99.71,1h.78c.62,0,.78-.08,1.02-.37.28-.32.5-.73.67-1.1l.41.1Z"/>
        <path class="cls-15" d="m266.47,167.94c-.73.07-.83.21-1.21.72-.32.4-.63.8-.97,1.28.72.68,1.46,1.55,1.97,2.33l-.05.13c-1.1.01-1.79-.25-1.93-.39-.14-.14-.51-.5-.9-.9-.69.89-1.37,1.29-2.16,1.29-1.54,0-2.29-1.09-2.29-2.05s.5-1.32,1.58-1.97c-.44-.43-.76-.91-.76-1.59,0-.99.85-1.85,2.02-1.85s1.85.69,1.85,1.6c0,.39-.18.72-.48.94-.28.2-.55.36-.89.56.31.25.96.85,1.73,1.58.19-.29.41-.57.56-.93.23-.48.21-.66-.59-.74v-.42h2.54v.42Zm-4.73,3.44c.51,0,1.02-.29,1.3-.63-.79-.82-1.3-1.28-2.24-2.08-.36.32-.5.65-.5,1.17,0,1.05.69,1.54,1.43,1.54Zm-.09-5.99c-.45,0-.75.42-.75.93,0,.55.24.87.98,1.44.36-.29.62-.62.62-1.28,0-.56-.26-1.09-.85-1.09Z"/>
        <path class="cls-15" d="m273.69,166.89c-.22-.71-.53-1.51-1.54-1.51-.64,0-1.06.45-1.06,1.07s.41.97,1.38,1.45c1.18.58,1.93,1.16,1.93,2.25,0,1.3-1.08,2.25-2.65,2.25-.71,0-1.33-.19-1.85-.34-.07-.25-.25-1.4-.33-1.92l.43-.1c.22.69.84,1.89,1.92,1.89.67,0,1.08-.42,1.08-1.12,0-.64-.4-1.01-1.32-1.51-1.15-.62-1.9-1.17-1.9-2.31s.9-2.07,2.56-2.07c.76,0,1.33.17,1.58.2.04.41.12.98.21,1.67l-.42.1Z"/>
        <path class="cls-15" d="m279.15,164.92c2.04,0,3.7,1.49,3.7,3.66,0,2.35-1.67,3.82-3.76,3.82-2.2,0-3.8-1.61-3.8-3.73,0-1.88,1.34-3.75,3.86-3.75Zm-.17.49c-1.12,0-1.95,1.1-1.95,3.05s.74,3.46,2.23,3.46c1.05,0,1.86-1.01,1.86-3.03,0-2.18-.86-3.48-2.14-3.48Z"/>
        <path class="cls-15" d="m290.82,170.34c-.15.55-.44,1.39-.62,1.77-.29.07-1.19.29-2.03.29-2.96,0-4.19-1.91-4.19-3.66,0-2.28,1.74-3.82,4.38-3.82.96,0,1.81.23,2.08.26.05.52.13,1.33.21,1.82l-.44.08c-.23-.86-.56-1.27-1.15-1.5-.26-.11-.66-.15-.96-.15-1.6,0-2.4,1.33-2.4,3.06,0,2.02,1.04,3.38,2.54,3.38.93,0,1.54-.49,2.14-1.7l.42.17Z"/>
        <path class="cls-15" d="m291.76,172.23v-.41c.84-.08.94-.14.94-1.07v-4.2c0-.92-.11-1.01-.94-1.08v-.41h3.4v.41c-.83.08-.94.15-.94,1.08v4.2c0,.92.1.98.94,1.07v.41h-3.4Z"/>
        <path class="cls-15" d="m302.15,170.36c-.06.3-.36,1.56-.46,1.87h-5.72v-.4c1-.1,1.07-.15,1.07-1.08v-4.21c0-.94-.13-1-.88-1.07v-.41h3.58c1.16,0,1.54-.01,1.7-.02.01.2.07,1.1.11,1.78l-.43.06c-.1-.38-.29-.83-.47-1.03-.2-.22-.34-.29-.9-.29h-.72c-.42,0-.46.02-.46.4v2.3h1.08c.62,0,.73-.17.89-.95h.43v2.46h-.43c-.18-.82-.26-.95-.9-.95h-1.07v1.9c0,.76.02.99.71,1h.78c.62,0,.78-.08,1.02-.37.28-.32.5-.73.67-1.1l.41.1Z"/>
        <path class="cls-15" d="m308.73,166.98c-.12-.51-.36-.93-.47-1.08-.2-.23-.29-.32-.94-.32h-.71v5.18c0,.93.11.99,1.09,1.07v.41h-3.66v-.41c.94-.08,1.04-.14,1.04-1.07v-5.18h-.67c-.62,0-.79.1-1,.36-.15.21-.31.61-.45,1.05h-.42c.08-.8.15-1.66.18-2.19h.33c.17.25.3.28.63.28h4.41c.3,0,.45-.07.64-.28h.32c.01.46.06,1.43.11,2.15l-.42.03Z"/>
        <path class="cls-15" d="m316.9,165.48c-.71.08-.96.23-1.36.9-.4.68-.74,1.29-1.28,2.39-.09.18-.12.31-.12.58v1.37c0,.96.09.99.99,1.1v.41h-3.48v-.41c.87-.11.95-.14.95-1.1v-1.27c0-.24-.04-.35-.12-.51-.32-.65-.73-1.39-1.39-2.54-.41-.72-.57-.86-1.21-.92v-.41h3.23v.41c-.74.1-.72.24-.53.63.36.72.84,1.6,1.26,2.4.33-.62.86-1.67,1.17-2.35.21-.44.12-.58-.67-.68v-.41h2.57v.41Z"/>
      </g>
    </g>
  </g>
</svg>